<?xml version="1.0" encoding="UTF-8"?>
<svg id="Layer_1" data-name="Layer 1" xmlns="http://www.w3.org/2000/svg" viewBox="0 0 945.81 74.29">
  <defs>
    <style>
      .cls-1 {
        opacity: .54;
      }

      .cls-2 {
        fill: #108041;
      }

      .cls-2, .cls-3 {
        stroke-width: 0px;
      }

      .cls-3 {
        fill: #102242;
      }
    </style>
  </defs>
  <g>
    <path class="cls-3" d="m7.68,66.71C2.56,61.88,0,55.53,0,47.68v-19.82C0,19.44,2.56,12.69,7.68,7.61,12.8,2.54,19.58,0,28,0h11.78c8.14,0,14.7,2.49,19.68,7.47,4.98,4.98,7.47,11.59,7.47,19.82v13.5H13.36v6.89c0,4.41,1.34,7.95,4.02,10.63,2.68,2.68,6.22,4.02,10.63,4.02h11.06c4.31,0,7.8-1.12,10.48-3.38,2.68-2.25,4.02-5.24,4.02-8.98h13.07c0,7.18-2.54,12.97-7.61,17.38-5.08,4.4-11.78,6.61-20.11,6.61h-10.92c-8.43,0-15.2-2.42-20.32-7.25ZM53.57,30.16v-2.87c0-4.79-1.27-8.62-3.81-11.49-2.54-2.87-5.87-4.31-9.98-4.31h-11.78c-4.4,0-7.95,1.51-10.63,4.52-2.68,3.02-4.02,7.01-4.02,11.99v2.15h40.21Z"/>
    <path class="cls-3" d="m83.44,1.15h12.78v9.91c2.1-3.25,4.91-5.91,8.4-7.97,3.49-2.06,6.97-3.09,10.41-3.09h9.48c6.89,0,12.47,2.3,16.73,6.89,4.26,4.6,6.39,10.63,6.39,18.1v47.82h-13.36V24.99c0-3.92-1-7.11-3.02-9.55s-4.64-3.66-7.9-3.66h-8.9c-4.12,0-7.85,1.58-11.2,4.74-3.35,3.16-5.51,7.28-6.46,12.35v43.95h-13.36V1.15Z"/>
    <path class="cls-3" d="m262.38,6.39c3.92,4.26,5.89,10.08,5.89,17.45v48.97h-13.36V23.7c0-3.64-.86-6.53-2.58-8.69-1.72-2.15-3.97-3.23-6.75-3.23h-7.47c-3.64,0-6.68,1.27-9.12,3.81-2.44,2.54-4,6.01-4.67,10.41v46.82h-13.5V24.27c0-3.92-.79-6.99-2.37-9.19-1.58-2.2-3.71-3.3-6.39-3.3h-7.32c-3.64,0-6.8,1.56-9.48,4.67-2.68,3.11-4.36,7.21-5.03,12.28v44.09h-13.36V1.15h12.78v9.62c1.91-3.35,4.28-5.98,7.11-7.9,2.82-1.91,5.72-2.87,8.69-2.87h8.33c3.83,0,7.16.96,9.98,2.87,2.82,1.92,5.05,4.65,6.68,8.19,2.1-3.64,4.69-6.39,7.75-8.26,3.06-1.87,6.37-2.8,9.91-2.8h8.47c6.61,0,11.87,2.13,15.8,6.39Z"/>
    <path class="cls-3" d="m291.68,68.43c-4.31-3.68-6.46-8.59-6.46-14.72v-4.74c0-6.03,2.25-10.89,6.75-14.58,4.5-3.68,10.39-5.53,17.67-5.53h9.05c2.87,0,5.94.43,9.19,1.29,3.25.86,6.03,2.06,8.33,3.59v-10.48c0-3.54-1.1-6.39-3.3-8.55-2.2-2.15-5.08-3.23-8.62-3.23h-11.78c-3.64,0-6.56.86-8.76,2.59-2.2,1.72-3.3,3.97-3.3,6.75h-13.21c0-6.22,2.32-11.25,6.97-15.08,4.64-3.83,10.75-5.74,18.31-5.74h11.78c7.56,0,13.64,2.13,18.24,6.39,4.6,4.26,6.89,9.89,6.89,16.88v49.55h-12.49v-9.62c-2.2,3.26-5.08,5.87-8.62,7.83-3.54,1.96-7.13,2.94-10.77,2.94h-8.62c-7.18,0-12.93-1.84-17.23-5.53Zm26.57-5.53c4.21,0,7.95-1.22,11.2-3.66,3.25-2.44,5.5-5.72,6.75-9.84v-4.31c-1.82-1.63-4.31-2.92-7.47-3.88-3.16-.96-6.42-1.44-9.77-1.44h-9.19c-3.35,0-6.08.86-8.19,2.58-2.11,1.72-3.16,4.02-3.16,6.89v4.31c0,2.87,1.03,5.15,3.09,6.82,2.06,1.68,4.81,2.51,8.26,2.51h8.47Z"/>
    <path class="cls-3" d="m372.1,67.57c-4.69-4.26-7.04-9.88-7.04-16.87h13.07c0,3.54,1.15,6.42,3.45,8.62,2.3,2.2,5.36,3.3,9.19,3.3h12.64c3.64,0,6.56-.69,8.76-2.08,2.2-1.39,3.3-3.23,3.3-5.53v-4.16c0-1.53-.65-2.9-1.94-4.09-1.29-1.2-2.94-1.99-4.96-2.37l-24.84-4.31c-5.27-.96-9.48-2.94-12.64-5.96s-4.74-6.53-4.74-10.56v-4.74c0-5.65,2.25-10.2,6.75-13.64,4.5-3.45,10.53-5.17,18.1-5.17h12.06c7.18,0,12.95,1.96,17.31,5.89,4.36,3.93,6.53,9.14,6.53,15.65h-13.07c-.1-3.06-1.13-5.53-3.09-7.4-1.96-1.87-4.52-2.8-7.68-2.8h-11.92c-3.54,0-6.34.72-8.4,2.15-2.06,1.44-3.09,3.35-3.09,5.74v3.59c0,1.53.67,2.87,2.01,4.02,1.34,1.15,3.06,1.96,5.17,2.44l25.13,4.45c4.98.86,9.02,2.78,12.13,5.75,3.11,2.97,4.67,6.42,4.67,10.34v5.6c0,5.55-2.35,10.03-7.04,13.43-4.69,3.4-10.87,5.1-18.53,5.1h-12.64c-7.76,0-13.98-2.13-18.67-6.39Z"/>
    <path class="cls-3" d="m448.22,67.57c-4.69-4.26-7.04-9.88-7.04-16.87h13.07c0,3.54,1.15,6.42,3.45,8.62,2.3,2.2,5.36,3.3,9.19,3.3h12.64c3.64,0,6.56-.69,8.76-2.08,2.2-1.39,3.3-3.23,3.3-5.53v-4.16c0-1.53-.65-2.9-1.94-4.09-1.29-1.2-2.94-1.99-4.96-2.37l-24.84-4.31c-5.27-.96-9.48-2.94-12.64-5.96-3.16-3.02-4.74-6.53-4.74-10.56v-4.74c0-5.65,2.25-10.2,6.75-13.64,4.5-3.45,10.53-5.17,18.1-5.17h12.06c7.18,0,12.95,1.96,17.31,5.89,4.36,3.93,6.53,9.14,6.53,15.65h-13.07c-.1-3.06-1.13-5.53-3.09-7.4-1.96-1.87-4.52-2.8-7.68-2.8h-11.92c-3.54,0-6.34.72-8.4,2.15-2.06,1.44-3.09,3.35-3.09,5.74v3.59c0,1.53.67,2.87,2.01,4.02,1.34,1.15,3.06,1.96,5.17,2.44l25.13,4.45c4.98.86,9.02,2.78,12.14,5.75,3.11,2.97,4.67,6.42,4.67,10.34v5.6c0,5.55-2.35,10.03-7.04,13.43-4.69,3.4-10.87,5.1-18.53,5.1h-12.64c-7.76,0-13.98-2.13-18.67-6.39Z"/>
    <path class="cls-3" d="m525.7,66.71c-5.12-4.83-7.68-11.18-7.68-19.03v-19.82c0-8.42,2.56-15.17,7.68-20.25,5.12-5.07,11.9-7.61,20.32-7.61h11.78c8.14,0,14.7,2.49,19.68,7.47,4.98,4.98,7.47,11.59,7.47,19.82v13.5h-53.57v6.89c0,4.41,1.34,7.95,4.02,10.63,2.68,2.68,6.22,4.02,10.63,4.02h11.06c4.31,0,7.8-1.12,10.48-3.38,2.68-2.25,4.02-5.24,4.02-8.98h13.07c0,7.18-2.54,12.97-7.61,17.38-5.08,4.4-11.78,6.61-20.11,6.61h-10.92c-8.43,0-15.2-2.42-20.32-7.25Zm45.88-36.55v-2.87c0-4.79-1.27-8.62-3.81-11.49-2.54-2.87-5.87-4.31-9.98-4.31h-11.78c-4.41,0-7.95,1.51-10.63,4.52-2.68,3.02-4.02,7.01-4.02,11.99v2.15h40.21Z"/>
  </g>
  <g>
    <g>
      <path class="cls-3" d="m685.54,70.78c-1.39-1.36-2.09-3.22-2.09-5.6V1.6h31.03c5.15,0,9.68.98,13.58,2.95,3.9,1.97,6.92,4.77,9.05,8.39,2.14,3.63,3.21,7.78,3.21,12.46v21.57c0,8.48-2.15,14.9-6.46,19.28-4.31,4.37-10.63,6.56-18.97,6.56h-23.7c-2.37,0-4.26-.68-5.65-2.03Zm29.04-6.61c5.29,0,9.29-1.46,12-4.38,2.71-2.92,4.07-7.26,4.07-13.02v-21.16c0-4.61-1.51-8.32-4.53-11.14-3.02-2.81-7-4.22-11.95-4.22h-21.06v53.92h21.46Z"/>
      <path class="cls-3" d="m852.52,10.05h-22.58V1.6h54.83v8.44h-22.58v62.77h-9.66V10.05Z"/>
      <path class="cls-3" d="m896.57,67.73c-3.93-3.93-5.9-9.22-5.9-15.87h9.46c0,4,1.13,7.19,3.41,9.56,2.27,2.38,5.27,3.56,9,3.56h11.29c3.73,0,6.71-.8,8.95-2.39,2.24-1.59,3.36-3.71,3.36-6.36v-5.49c0-2.1-.8-3.87-2.39-5.29-1.59-1.42-3.85-2.37-6.76-2.85l-18.51-3.05c-5.43-.88-9.61-2.75-12.56-5.59-2.95-2.85-4.42-6.41-4.42-10.68v-5.6c0-5.09,1.95-9.17,5.85-12.26,3.9-3.09,9.04-4.63,15.41-4.63h11.5c4,0,7.54.83,10.63,2.49,3.08,1.66,5.48,4,7.17,7.02,1.69,3.02,2.54,6.49,2.54,10.43h-9.56c0-3.39-.98-6.12-2.95-8.19-1.97-2.07-4.58-3.1-7.83-3.1h-11.5c-3.46,0-6.26.76-8.39,2.29-2.14,1.53-3.2,3.61-3.2,6.26v4.58c0,2.17.76,3.97,2.29,5.39,1.53,1.42,3.71,2.41,6.56,2.95l18.31,3.15c5.63.95,9.95,2.8,12.97,5.54,3.02,2.75,4.53,6.19,4.53,10.33v6.61c0,5.15-1.98,9.29-5.95,12.41-3.97,3.12-9.24,4.68-15.82,4.68h-11.7c-6.58,0-11.83-1.97-15.77-5.9Z"/>
    </g>
    <g class="cls-1">
      <rect class="cls-2" x="753.22" y="2.07" width="71.59" height="72.23" rx="35.79" ry="35.79"/>
    </g>
    <g class="cls-1">
      <rect class="cls-2" x="760.92" y="9.84" width="56.18" height="56.68" rx="28.09" ry="28.09"/>
    </g>
    <rect class="cls-2" x="771.06" y="20.23" width="35.9" height="35.9" rx="17.95" ry="17.95"/>
  </g>
  <rect class="cls-2" x="615.06" y="20.23" width="35.9" height="35.9" rx="17.95" ry="17.95"/>
</svg>