<?xml version="1.0" encoding="utf-8"?>
<!-- Generator: Adobe Illustrator 28.1.0, SVG Export Plug-In . SVG Version: 6.00 Build 0)  -->
<svg version="1.1" id="Layer_1" xmlns="http://www.w3.org/2000/svg" xmlns:xlink="http://www.w3.org/1999/xlink" x="0px" y="0px"
	 viewBox="0 0 145.9 16" enable-background="new 0 0 145.9 16" xml:space="preserve">
<g>
	<path fill="#2B0D5C" d="M26.88,4.67v1.88h3.03V8.3h-3.03v2.04h3.43v1.81h-5.7v-9.3h5.7v1.81H26.88z"/>
	<path fill="#2B0D5C" d="M38.49,7.33c-0.25,0.45-0.63,0.81-1.14,1.08s-1.15,0.41-1.91,0.41h-1.4v3.34h-2.26v-9.3h3.67
		c0.74,0,1.37,0.13,1.88,0.38c0.51,0.26,0.9,0.61,1.15,1.06c0.26,0.45,0.38,0.97,0.38,1.55C38.87,6.39,38.74,6.88,38.49,7.33z
		 M36.24,6.71c0.21-0.2,0.32-0.49,0.32-0.86c0-0.37-0.11-0.66-0.32-0.86c-0.21-0.2-0.53-0.3-0.97-0.3h-1.23v2.33h1.23
		C35.71,7.02,36.03,6.92,36.24,6.71z"/>
	<path fill="#2B0D5C" d="M42.31,2.86v9.3h-2.26v-9.3H42.31z"/>
	<path fill="#2B0D5C" d="M44.16,5.04c0.4-0.72,0.95-1.28,1.66-1.68c0.71-0.4,1.52-0.6,2.42-0.6c1.1,0,2.05,0.29,2.83,0.87
		c0.79,0.58,1.31,1.38,1.58,2.38h-2.49c-0.19-0.39-0.45-0.68-0.79-0.89s-0.73-0.3-1.16-0.3c-0.7,0-1.26,0.24-1.7,0.73
		c-0.43,0.49-0.65,1.13-0.65,1.95c0,0.81,0.22,1.46,0.65,1.95c0.43,0.49,1,0.73,1.7,0.73c0.43,0,0.82-0.1,1.16-0.3
		s0.6-0.5,0.79-0.89h2.49c-0.27,1.01-0.79,1.8-1.58,2.38c-0.79,0.58-1.73,0.87-2.83,0.87c-0.9,0-1.71-0.2-2.42-0.6
		c-0.71-0.4-1.26-0.96-1.66-1.68s-0.6-1.53-0.6-2.45C43.57,6.58,43.77,5.76,44.16,5.04z"/>
	<path fill="#2B0D5C" d="M70.81,2.93v9.23h-1.21V2.93H70.81z"/>
	<path fill="#2B0D5C" d="M78.55,5.57c0.55,0.53,0.82,1.3,0.82,2.31v4.28h-1.19V8.05c0-0.72-0.18-1.28-0.54-1.66
		c-0.36-0.38-0.86-0.58-1.48-0.58c-0.64,0-1.14,0.2-1.52,0.6s-0.56,0.98-0.56,1.73v4.01h-1.21V4.9h1.21v1.03
		c0.24-0.37,0.56-0.66,0.97-0.86c0.41-0.2,0.86-0.3,1.36-0.3C77.29,4.77,78,5.03,78.55,5.57z"/>
	<path fill="#2B0D5C" d="M82.81,5.89v4.28c0,0.35,0.07,0.6,0.22,0.75s0.41,0.22,0.78,0.22h0.89v1.02h-1.09
		c-0.67,0-1.17-0.15-1.51-0.46c-0.33-0.31-0.5-0.82-0.5-1.52V5.89h-0.94V4.9h0.94V3.07h1.21V4.9h1.89v0.99H82.81z"/>
	<path fill="#2B0D5C" d="M92.75,8.98h-5.8c0.04,0.71,0.29,1.27,0.74,1.68c0.45,0.4,0.99,0.6,1.62,0.6c0.52,0,0.96-0.12,1.3-0.36
		c0.35-0.24,0.59-0.57,0.73-0.97h1.3c-0.2,0.7-0.58,1.26-1.17,1.7c-0.58,0.44-1.31,0.66-2.17,0.66c-0.69,0-1.3-0.15-1.85-0.46
		c-0.54-0.31-0.97-0.75-1.28-1.32c-0.31-0.57-0.46-1.23-0.46-1.98c0-0.75,0.15-1.41,0.45-1.97c0.3-0.56,0.72-1,1.26-1.3
		s1.17-0.46,1.88-0.46c0.69,0,1.3,0.15,1.83,0.45s0.94,0.71,1.23,1.24s0.43,1.12,0.43,1.78C92.79,8.48,92.77,8.72,92.75,8.98z
		 M91.24,6.81c-0.2-0.33-0.48-0.58-0.83-0.75c-0.35-0.17-0.74-0.26-1.16-0.26c-0.61,0-1.13,0.19-1.56,0.58
		C87.27,6.77,87.02,7.31,86.96,8h4.58C91.54,7.54,91.44,7.15,91.24,6.81z"/>
	<path fill="#2B0D5C" d="M95.58,2.36v9.8h-1.21v-9.8H95.58z"/>
	<path fill="#2B0D5C" d="M98.84,2.36v9.8h-1.21v-9.8H98.84z"/>
	<path fill="#2B0D5C" d="M100.93,3.48c-0.16-0.16-0.24-0.35-0.24-0.58s0.08-0.42,0.24-0.58c0.16-0.16,0.35-0.24,0.58-0.24
		c0.22,0,0.41,0.08,0.56,0.24c0.15,0.16,0.23,0.35,0.23,0.58s-0.08,0.42-0.23,0.58c-0.16,0.16-0.34,0.24-0.56,0.24
		C101.29,3.72,101.09,3.64,100.93,3.48z M102.1,4.9v7.26h-1.21V4.9H102.1z"/>
	<path fill="#2B0D5C" d="M108.79,5.19c0.47,0.27,0.82,0.62,1.05,1.03V4.9h1.22v7.42c0,0.66-0.14,1.25-0.42,1.77
		s-0.69,0.92-1.21,1.21c-0.53,0.29-1.14,0.44-1.83,0.44c-0.95,0-1.75-0.22-2.38-0.68c-0.64-0.45-1.01-1.06-1.13-1.84h1.19
		c0.13,0.44,0.41,0.8,0.82,1.07c0.41,0.27,0.91,0.4,1.5,0.4c0.66,0,1.2-0.21,1.62-0.62s0.63-1,0.63-1.75v-1.52
		c-0.24,0.42-0.59,0.78-1.06,1.06c-0.47,0.28-1.02,0.42-1.64,0.42c-0.64,0-1.23-0.16-1.76-0.48c-0.53-0.32-0.94-0.76-1.24-1.34
		c-0.3-0.57-0.45-1.23-0.45-1.96c0-0.74,0.15-1.39,0.45-1.95c0.3-0.56,0.71-1,1.24-1.3s1.11-0.46,1.76-0.46
		C107.77,4.78,108.32,4.92,108.79,5.19z M109.52,7.09c-0.22-0.41-0.52-0.72-0.89-0.93s-0.79-0.32-1.24-0.32
		c-0.45,0-0.86,0.11-1.23,0.32s-0.67,0.52-0.89,0.93c-0.22,0.41-0.33,0.88-0.33,1.43c0,0.56,0.11,1.04,0.33,1.45
		c0.22,0.41,0.52,0.72,0.89,0.94c0.37,0.22,0.78,0.32,1.23,0.32c0.45,0,0.86-0.11,1.24-0.32c0.38-0.22,0.67-0.53,0.89-0.94
		c0.22-0.41,0.33-0.89,0.33-1.44C109.85,7.97,109.74,7.49,109.52,7.09z"/>
	<path fill="#2B0D5C" d="M119.69,8.98h-5.8c0.04,0.71,0.29,1.27,0.73,1.68c0.45,0.4,0.99,0.6,1.62,0.6c0.52,0,0.96-0.12,1.3-0.36
		s0.59-0.57,0.74-0.97h1.3c-0.19,0.7-0.58,1.26-1.17,1.7c-0.58,0.44-1.31,0.66-2.17,0.66c-0.69,0-1.3-0.15-1.85-0.46
		c-0.54-0.31-0.97-0.75-1.28-1.32c-0.31-0.57-0.46-1.23-0.46-1.98c0-0.75,0.15-1.41,0.45-1.97c0.3-0.56,0.72-1,1.27-1.3
		s1.17-0.46,1.87-0.46c0.69,0,1.3,0.15,1.83,0.45c0.53,0.3,0.94,0.71,1.22,1.24s0.43,1.12,0.43,1.78
		C119.73,8.48,119.71,8.72,119.69,8.98z M118.18,6.81c-0.2-0.33-0.48-0.58-0.83-0.75c-0.35-0.17-0.73-0.26-1.16-0.26
		c-0.61,0-1.13,0.19-1.56,0.58c-0.43,0.39-0.67,0.93-0.74,1.62h4.58C118.48,7.54,118.38,7.15,118.18,6.81z"/>
	<path fill="#2B0D5C" d="M127,5.57c0.55,0.53,0.82,1.3,0.82,2.31v4.28h-1.19V8.05c0-0.72-0.18-1.28-0.54-1.66
		c-0.36-0.38-0.86-0.58-1.48-0.58c-0.64,0-1.14,0.2-1.52,0.6s-0.56,0.98-0.56,1.73v4.01h-1.21V4.9h1.21v1.03
		c0.24-0.37,0.56-0.66,0.97-0.86c0.41-0.2,0.86-0.3,1.36-0.3C125.74,4.77,126.45,5.03,127,5.57z"/>
	<path fill="#2B0D5C" d="M129.79,6.55c0.3-0.56,0.72-1,1.25-1.3s1.15-0.46,1.83-0.46c0.89,0,1.63,0.22,2.21,0.65s0.96,1.03,1.15,1.8
		h-1.3c-0.12-0.44-0.36-0.79-0.72-1.05c-0.36-0.26-0.8-0.38-1.33-0.38c-0.69,0-1.25,0.24-1.67,0.71c-0.42,0.47-0.64,1.14-0.64,2.01
		c0,0.87,0.21,1.55,0.64,2.03c0.42,0.48,0.98,0.72,1.67,0.72c0.53,0,0.97-0.12,1.32-0.37c0.35-0.25,0.6-0.6,0.73-1.06h1.3
		c-0.19,0.74-0.58,1.34-1.17,1.78c-0.58,0.45-1.31,0.67-2.19,0.67c-0.69,0-1.3-0.15-1.83-0.46c-0.53-0.31-0.95-0.75-1.25-1.31
		c-0.3-0.57-0.45-1.23-0.45-1.99C129.34,7.77,129.5,7.11,129.79,6.55z"/>
	<path fill="#2B0D5C" d="M144.42,8.98h-5.8c0.04,0.71,0.29,1.27,0.73,1.68c0.45,0.4,0.99,0.6,1.62,0.6c0.52,0,0.96-0.12,1.3-0.36
		s0.59-0.57,0.74-0.97h1.3c-0.19,0.7-0.58,1.26-1.17,1.7c-0.58,0.44-1.31,0.66-2.17,0.66c-0.69,0-1.3-0.15-1.85-0.46
		c-0.54-0.31-0.97-0.75-1.28-1.32c-0.31-0.57-0.46-1.23-0.46-1.98c0-0.75,0.15-1.41,0.45-1.97c0.3-0.56,0.72-1,1.27-1.3
		s1.17-0.46,1.87-0.46c0.69,0,1.3,0.15,1.83,0.45c0.53,0.3,0.94,0.71,1.22,1.24s0.43,1.12,0.43,1.78
		C144.46,8.48,144.44,8.72,144.42,8.98z M142.91,6.81c-0.2-0.33-0.48-0.58-0.83-0.75c-0.35-0.17-0.73-0.26-1.16-0.26
		c-0.61,0-1.13,0.19-1.56,0.58c-0.43,0.39-0.67,0.93-0.74,1.62h4.58C143.21,7.54,143.11,7.15,142.91,6.81z"/>
</g>
<g>
	<g>
		<path fill="#2B0D5C" d="M17.39,8c0,0.19-0.01,0.37-0.02,0.56c0,0.05-0.01,0.11-0.01,0.16c-0.04,0.42-0.11,0.84-0.21,1.24
			C16.27,13.43,13.13,16,9.39,16c-4.18,0-7.6-3.2-7.97-7.28h2.91c0.06,0.44,0.18,0.86,0.35,1.27c0.26,0.61,0.63,1.15,1.09,1.62
			c0.47,0.47,1.02,0.84,1.62,1.09c0.63,0.27,1.3,0.4,1.99,0.4s1.36-0.14,1.99-0.4c0.61-0.26,1.15-0.63,1.62-1.09
			c0.47-0.47,0.84-1.02,1.09-1.62c0-0.01,0-0.01,0.01-0.02L12.69,9.6c-0.18,0.36-0.42,0.7-0.71,1c-0.69,0.69-1.61,1.07-2.59,1.07
			c-0.98,0-1.9-0.38-2.59-1.07c-0.52-0.52-0.86-1.17-1-1.87h8.66c0,0,0,0,0,0c0.03-0.21,0.05-0.41,0.05-0.62c0-0.03,0-0.06,0-0.1
			c0-0.24-0.02-0.48-0.05-0.72c-0.06-0.44-0.18-0.86-0.35-1.27C13.84,5.4,13.47,4.86,13,4.39c-0.47-0.47-1.02-0.84-1.62-1.09
			c-0.63-0.27-1.3-0.4-1.99-0.4S8.03,3.03,7.4,3.29C6.79,3.55,6.24,3.92,5.78,4.39C5.31,4.86,4.94,5.4,4.68,6.01
			C4.51,6.42,4.39,6.84,4.33,7.28H1.42C1.78,3.2,5.21,0,9.39,0c4.18,0,7.6,3.2,7.97,7.28C17.38,7.52,17.39,7.76,17.39,8z"/>
		<path fill="#2B0D5C" d="M12.99,7.28h-7.2c0.14-0.71,0.48-1.35,1-1.87c0.69-0.69,1.61-1.07,2.59-1.07c0.98,0,1.9,0.38,2.59,1.07
			C12.5,5.93,12.85,6.57,12.99,7.28z"/>
	</g>
</g>
<g>
	<path fill="#2B0D5C" d="M61.85,7.62c0,0.68-0.55,1.23-1.23,1.23s-1.23-0.55-1.23-1.23c0-0.68,0.55-1.23,1.23-1.23
		S61.85,6.94,61.85,7.62"/>
	<path fill="#4F33B3" d="M60.63,10.02c-1.31,0-2.37-1.06-2.37-2.37s1.06-2.37,2.37-2.37c1.31,0,2.37,1.06,2.37,2.37
		S61.94,10.02,60.63,10.02 M60.63,5.96c-0.93,0-1.69,0.76-1.69,1.69s0.76,1.69,1.69,1.69s1.69-0.76,1.69-1.69
		C62.32,6.72,61.56,5.96,60.63,5.96"/>
	<path fill="#377EED" d="M60.62,11.01c-1.85,0-3.35-1.5-3.35-3.35s1.5-3.35,3.35-3.35s3.35,1.5,3.35,3.35S62.47,11.01,60.62,11.01
		 M60.62,4.82c-1.56,0-2.84,1.27-2.84,2.84s1.27,2.84,2.84,2.84s2.84-1.27,2.84-2.84S62.18,4.82,60.62,4.82"/>
	<path fill="#86D4D3" d="M60.61,12c-2.39,0-4.33-1.94-4.33-4.33s1.94-4.33,4.33-4.33c2.39,0,4.33,1.94,4.33,4.33S63,12,60.61,12
		 M60.61,3.68c-2.2,0-3.99,1.79-3.99,3.99s1.79,3.99,3.99,3.99c2.2,0,3.99-1.79,3.99-3.99S62.81,3.68,60.61,3.68"/>
</g>
</svg>
