<?xml version="1.0" encoding="utf-8"?>
<!-- Generator: Adobe Illustrator 28.1.0, SVG Export Plug-In . SVG Version: 6.00 Build 0)  -->
<svg version="1.1" id="Layer_1" xmlns="http://www.w3.org/2000/svg" xmlns:xlink="http://www.w3.org/1999/xlink" x="0px" y="0px"
	 viewBox="0 0 700 700" enable-background="new 0 0 700 700" xml:space="preserve">
<path fill="#2B0D5C" d="M546.1,418H358c-0.55,0-1-0.45-1-1v-13.06c0-0.55,0.45-1,1-1h184.18c0.44,0,0.83,0.29,0.96,0.71l3.92,13.06
	c0.09,0.3,0.03,0.63-0.16,0.88C546.71,417.85,546.42,418,546.1,418z M359,416h185.76l-3.32-11.06H359V416z"/>
<g>
	<polygon fill="#2B0D5C" points="540.88,403.94 390.66,403.94 416.78,279.84 567,279.84 	"/>
	<path fill="#2B0D5C" d="M540.88,404.94H390.66c-0.3,0-0.59-0.14-0.78-0.37c-0.19-0.23-0.26-0.54-0.2-0.84l26.12-124.1
		c0.1-0.46,0.51-0.79,0.98-0.79H567c0.3,0,0.59,0.14,0.78,0.37c0.19,0.23,0.26,0.54,0.2,0.84l-26.12,124.1
		C541.76,404.61,541.35,404.94,540.88,404.94z M391.89,402.94h148.18l25.7-122.1H417.59L391.89,402.94z"/>
</g>
<g>
	<path fill="#86D4D3" d="M157.34,421.35H46.18L88.4,284.16c14.07-40.1,40.8-55.58,55.58-55.58l0,0c0.77,0,1.53,0.02,2.29,0.05
		c35.23,1.43,59.1,36.65,48.73,70.35L157.34,421.35z"/>
	<g>
		<path fill="#FFFFFF" d="M333.61,388.73c0,0,51.96,3.95,62.12,33.13l-67.94-0.04L333.61,388.73z"/>
		<path fill="#2B0D5C" d="M395.73,422.86C395.73,422.86,395.73,422.86,395.73,422.86l-67.94-0.04c-0.3,0-0.58-0.13-0.77-0.36
			s-0.27-0.52-0.22-0.82l5.82-33.09c0.09-0.51,0.56-0.86,1.06-0.82c2.15,0.16,52.73,4.34,62.99,33.8c0.11,0.31,0.06,0.64-0.13,0.91
			C396.36,422.7,396.05,422.86,395.73,422.86z M328.98,420.82l65.31,0.04c-10.12-25-53.06-30.35-59.85-31.05L328.98,420.82z"/>
	</g>
	<g>
		<circle fill="#FFFFFF" cx="189.51" cy="158.96" r="58.96"/>
		<path fill="#2B0D5C" d="M189.51,218.92c-33.06,0-59.96-26.9-59.96-59.96S156.45,99,189.51,99c33.06,0,59.96,26.9,59.96,59.96
			S222.57,218.92,189.51,218.92z M189.51,101c-31.96,0-57.96,26-57.96,57.96s26,57.96,57.96,57.96s57.96-26,57.96-57.96
			S221.47,101,189.51,101z"/>
	</g>
	<path fill="#2B0D5C" d="M327.79,422.83C327.79,422.83,327.79,422.83,327.79,422.83l-114.61-0.48c-27.51-1.08-50.01-18.96-65.1-51.7
		c-11.34-24.6-14.58-49.22-14.62-49.46l-0.96-6.02c-0.09-0.55,0.29-1.06,0.83-1.14c0.55-0.08,1.06,0.29,1.14,0.83l0.96,6.05
		c0.04,0.27,3.25,24.62,14.47,48.95c10.29,22.31,29.62,49.18,63.31,50.5l113.73,0.48l6.48-36.88h-85.32
		c-5.29,0-10.48-0.81-15.43-2.41c-17.16-5.54-45.88-20.77-45.45-60.5c0.01-0.55,0.44-1.02,1.01-0.99c0.55,0.01,1,0.46,0.99,1.01
		c-0.42,38.45,27.43,53.21,44.07,58.58c4.75,1.53,9.73,2.31,14.81,2.31h86.51c0.3,0,0.58,0.13,0.77,0.36
		c0.19,0.23,0.27,0.52,0.22,0.82L328.77,422C328.69,422.48,328.28,422.83,327.79,422.83z"/>
</g>
<path fill="#2B0D5C" d="M489.35,543.01c-0.46,0-0.88-0.33-0.98-0.8c-0.11-0.54,0.24-1.07,0.78-1.18c0.3-0.06,30.82-6.21,57.43-3.62
	c26.44,2.57,56.16,3.59,56.46,3.61c9.67,0,18.8-3.78,25.66-10.65c6.86-6.87,10.64-15.99,10.64-25.7l-0.02-54.67
	c0-20.03-16.3-36.32-36.33-36.32h-57.27c-0.55,0-1-0.45-1-1s0.45-1,1-1h57.27c21.14,0,38.33,17.19,38.33,38.32l0.02,54.67
	c0,10.24-3.98,19.87-11.22,27.11s-16.87,11.24-27.11,11.24c-0.33-0.01-30.11-1.04-56.62-3.61c-26.31-2.55-56.53,3.53-56.83,3.59
	C489.48,543,489.42,543.01,489.35,543.01z"/>
<g>
	<g>
		<rect x="57" y="498.84" fill="#86D4D3" width="140.76" height="92.34"/>
		<path fill="#2B0D5C" d="M197.76,592.18H57c-0.55,0-1-0.45-1-1v-92.34c0-0.55,0.45-1,1-1h140.76c0.55,0,1,0.45,1,1v92.34
			C198.76,591.73,198.31,592.18,197.76,592.18z M58,590.18h138.76v-90.34H58V590.18z"/>
	</g>
	<g>
		<rect x="57" y="568.54" fill="#2B0D5C" width="140.76" height="22.64"/>
		<path fill="#2B0D5C" d="M197.76,592.18H57c-0.55,0-1-0.45-1-1v-22.64c0-0.55,0.45-1,1-1h140.76c0.55,0,1,0.45,1,1v22.64
			C198.76,591.73,198.31,592.18,197.76,592.18z M58,590.18h138.76v-20.64H58V590.18z"/>
	</g>
	<g>
		<rect x="57" y="498.82" fill="#2B0D5C" width="140.76" height="23.54"/>
		<path fill="#2B0D5C" d="M197.76,523.36H57c-0.55,0-1-0.45-1-1v-23.54c0-0.55,0.45-1,1-1h140.76c0.55,0,1,0.45,1,1v23.54
			C198.76,522.91,198.31,523.36,197.76,523.36z M58,521.36h138.76v-21.54H58V521.36z"/>
	</g>
	<g>
		<rect x="57" y="522.36" fill="#FFFFFF" width="140.76" height="22.64"/>
		<path fill="#2B0D5C" d="M197.76,546H57c-0.55,0-1-0.45-1-1v-22.64c0-0.55,0.45-1,1-1h140.76c0.55,0,1,0.45,1,1V545
			C198.76,545.55,198.31,546,197.76,546z M58,544h138.76v-20.64H58V544z"/>
	</g>
	<path fill="#2B0D5C" d="M240.21,555.02c-22.88,0-40.4-7.93-42.54-8.94H57c-0.55,0-1-0.45-1-1s0.45-1,1-1h140.89
		c0.15,0,0.31,0.04,0.45,0.11c0.33,0.17,33.74,16.49,70.06,4.38c36.97-12.33,71.09-6.85,71.43-6.8c0.63,0.16,53.84,14.11,89.9-3.59
		c0.5-0.24,1.09-0.04,1.34,0.46c0.24,0.5,0.04,1.09-0.46,1.34c-36.74,18.04-90.67,3.89-91.21,3.75c-0.24-0.04-33.9-5.42-70.37,6.74
		C259,553.8,249.19,555.02,240.21,555.02z"/>
</g>
<path fill="#2B0D5C" d="M430.17,530.57c-0.4,0-0.77-0.24-0.93-0.63l-2.49-6.22c-0.21-0.51,0.04-1.09,0.56-1.3
	c0.51-0.2,1.09,0.04,1.3,0.56l2.49,6.22c0.21,0.51-0.04,1.09-0.56,1.3C430.42,530.55,430.29,530.57,430.17,530.57z"/>
<path fill="#2B0D5C" d="M438.86,530.54c-0.11,0-0.22-0.02-0.33-0.06c-0.52-0.18-0.8-0.75-0.61-1.27l3.86-11.04
	c0.18-0.52,0.75-0.79,1.27-0.61c0.52,0.18,0.8,0.75,0.61,1.27l-3.86,11.04C439.66,530.28,439.27,530.54,438.86,530.54z"/>
<path fill="#2B0D5C" d="M443.7,536.94c-0.41,0-0.8-0.26-0.94-0.67c-0.18-0.52,0.09-1.09,0.62-1.27l7.61-2.64
	c0.52-0.18,1.09,0.09,1.27,0.62c0.18,0.52-0.09,1.09-0.62,1.27l-7.61,2.64C443.92,536.92,443.81,536.94,443.7,536.94z"/>
<path fill="#2B0D5C" d="M497.82,557.69c-0.35,0-0.7-0.19-0.88-0.52l-2.85-5.25c-0.26-0.49-0.08-1.09,0.4-1.36
	c0.49-0.26,1.09-0.08,1.36,0.4l2.85,5.25c0.26,0.49,0.08,1.09-0.4,1.36C498.15,557.65,497.98,557.69,497.82,557.69z"/>
<path fill="#2B0D5C" d="M485.37,566.15c-0.03,0-0.07,0-0.1,0c-0.55-0.05-0.95-0.54-0.9-1.09l1.16-11.63
	c0.06-0.55,0.54-0.94,1.09-0.9c0.55,0.05,0.95,0.54,0.9,1.09l-1.16,11.63C486.31,565.77,485.88,566.15,485.37,566.15z"/>
<path fill="#2B0D5C" d="M473.43,552.08c-0.4,0-0.78-0.24-0.93-0.64c-0.2-0.52,0.06-1.09,0.57-1.29l6.89-2.65
	c0.52-0.2,1.09,0.06,1.29,0.57s-0.06,1.09-0.57,1.29l-6.89,2.65C473.67,552.06,473.55,552.08,473.43,552.08z"/>
<g>
	<g>
		<polygon fill="#2B0D5C" points="266.15,53 259.63,90.56 273.61,90.56 283.34,53 		"/>
		<path fill="#2B0D5C" d="M273.61,91.56h-13.98c-0.29,0-0.58-0.13-0.77-0.36c-0.19-0.23-0.27-0.52-0.22-0.81l6.52-37.56
			c0.08-0.48,0.5-0.83,0.99-0.83h17.19c0.31,0,0.6,0.14,0.79,0.39c0.19,0.24,0.25,0.56,0.18,0.86l-9.73,37.56
			C274.46,91.25,274.07,91.56,273.61,91.56z M260.82,89.56h12.02L282.05,54h-15.06L260.82,89.56z"/>
	</g>
	<g>
		<polygon fill="#2B0D5C" points="258.38,99.98 271.14,99.98 269.39,109.82 257.28,109.82 		"/>
		<path fill="#2B0D5C" d="M269.39,110.82h-12.11c-0.28,0-0.56-0.12-0.75-0.33c-0.19-0.21-0.28-0.49-0.25-0.78l1.1-9.84
			c0.06-0.51,0.48-0.89,0.99-0.89h12.76c0.3,0,0.58,0.13,0.77,0.36c0.19,0.23,0.27,0.53,0.22,0.82l-1.75,9.84
			C270.29,110.47,269.88,110.82,269.39,110.82z M258.4,108.82h10.15l1.39-7.84h-10.67L258.4,108.82z"/>
	</g>
</g>
<g>
	<g>
		<circle fill="#FFFFFF" cx="460.24" cy="336.33" r="3.86"/>
		<path fill="#FFFFFF" d="M460.24,341.19c-2.68,0-4.86-2.18-4.86-4.86s2.18-4.86,4.86-4.86s4.86,2.18,4.86,4.86
			S462.92,341.19,460.24,341.19z M460.24,333.47c-1.58,0-2.86,1.28-2.86,2.86s1.28,2.86,2.86,2.86c1.58,0,2.86-1.28,2.86-2.86
			S461.82,333.47,460.24,333.47z"/>
	</g>
	<g>
		<circle fill="#FFFFFF" cx="487.93" cy="336.33" r="3.86"/>
		<path fill="#FFFFFF" d="M487.93,341.19c-2.68,0-4.86-2.18-4.86-4.86s2.18-4.86,4.86-4.86s4.86,2.18,4.86,4.86
			S490.61,341.19,487.93,341.19z M487.93,333.47c-1.58,0-2.86,1.28-2.86,2.86s1.28,2.86,2.86,2.86c1.58,0,2.86-1.28,2.86-2.86
			S489.51,333.47,487.93,333.47z"/>
	</g>
	<path fill="#FFFFFF" d="M491.8,359.62c-0.21,0-0.43-0.07-0.61-0.21c-15.65-12.07-34.06-0.08-34.25,0.04
		c-0.46,0.3-1.08,0.18-1.39-0.28c-0.31-0.46-0.18-1.08,0.28-1.39c0.2-0.13,19.77-12.92,36.58,0.04c0.44,0.34,0.52,0.96,0.18,1.4
		C492.39,359.49,492.1,359.62,491.8,359.62z"/>
</g>
<g>
	<path fill="#FFFFFF" d="M288.9,537.38c0,0-10.78,1.54-10.78,11.3c0,0,0.51,12.32,11.81,12.32h44.39c4.15,0,8.14-1.85,10.63-5.17
		c1.42-1.9,2.49-4.41,2.49-7.66c0,0-2.05-13.35-15.92-9.76c0,0,3.71-15.92-10.73-20.03c0,0-12.89-3.59-19.06,11.3
		c0,0-3.59-4.11-9.24-1.54C286.85,530.7,288.9,537.38,288.9,537.38z"/>
	<path fill="#2B0D5C" d="M334.32,562h-44.39c-12.12,0-12.8-13.15-12.81-13.28c0-8.62,7.69-11.38,10.57-12.1
		c-0.51-2.83-0.1-7.35,4.39-9.39c4.03-1.83,7.4-0.6,9.29,0.79c6.64-14.05,19.55-10.64,19.69-10.6c12.46,3.55,12.2,15.45,11.68,19.7
		c3.88-0.73,7.21-0.2,9.9,1.57c4.79,3.16,5.75,9.08,5.79,9.33c0.01,0.05,0.01,0.1,0.01,0.15c0,3.09-0.9,5.87-2.69,8.26
		C343.13,559.92,338.86,562,334.32,562z M296.16,528.3c-0.97,0-2.06,0.21-3.26,0.75c-4.76,2.16-3.12,7.8-3.05,8.04
		c0.08,0.28,0.04,0.58-0.11,0.83c-0.16,0.25-0.41,0.41-0.7,0.45c-0.41,0.06-9.92,1.55-9.92,10.31c0.02,0.42,0.62,11.32,10.81,11.32
		h44.39c3.92,0,7.59-1.78,9.83-4.77c1.5-2.01,2.27-4.36,2.29-6.98c-0.12-0.63-1.12-5.42-4.91-7.91c-2.53-1.66-5.81-1.99-9.75-0.97
		c-0.34,0.09-0.7-0.01-0.95-0.25c-0.25-0.24-0.35-0.6-0.28-0.94c0.14-0.61,3.31-15.05-10.03-18.84
		c-0.48-0.13-12.12-3.14-17.86,10.72c-0.13,0.32-0.42,0.55-0.76,0.6c-0.34,0.06-0.69-0.07-0.92-0.33
		C300.88,530.23,299.11,528.3,296.16,528.3z"/>
</g>
<path fill="#2B0D5C" d="M98.98,422.35c-0.1,0-0.21-0.02-0.31-0.05c-0.52-0.17-0.81-0.74-0.64-1.26l68.02-207.35
	c0.17-0.52,0.74-0.81,1.26-0.64c0.52,0.17,0.81,0.74,0.64,1.26L99.93,421.66C99.79,422.08,99.4,422.35,98.98,422.35z"/>
</svg>
