<?xml version="1.0" encoding="utf-8"?>
<!-- Generator: Adobe Illustrator 28.1.0, SVG Export Plug-In . SVG Version: 6.00 Build 0)  -->
<svg version="1.1" id="Layer_1" xmlns="http://www.w3.org/2000/svg" xmlns:xlink="http://www.w3.org/1999/xlink" x="0px" y="0px"
	 viewBox="0 0 326 400" height="24" width="24" enable-background="new 0 0 326 400" xml:space="preserve">
<g>
	<path fill="#92919B" d="M55.79,269.01L163,386.46l107.21-117.45l9.06-9.96c22.06-26.34,35.38-60.25,35.38-97.29
		C314.65,78,246.75,10.11,163,10.11S11.35,78,11.35,161.75c0,37.04,13.32,70.95,35.38,97.29L55.79,269.01z M163,190.19
		c-20.94,0-37.91-16.98-37.91-37.91s16.97-37.91,37.91-37.91s37.91,16.98,37.91,37.91S183.94,190.19,163,190.19z"/>
	<path d="M163,397L41.47,263.82C17.4,235.09,4.25,198.92,4.25,161.75C4.25,74.22,75.46,3,163,3s158.75,71.22,158.75,158.75
		c0,37.16-13.15,73.33-37.03,101.85L163,397z M61.05,264.22L163,375.91l111.01-121.65c21.55-25.74,33.52-58.67,33.52-92.5
		c0-79.7-64.84-144.54-144.54-144.54S18.46,82.06,18.46,161.75c0,33.83,11.98,66.76,33.72,92.72L61.05,264.22z M163,197.3
		c-24.82,0-45.02-20.2-45.02-45.02s20.2-45.02,45.02-45.02s45.02,20.2,45.02,45.02S187.82,197.3,163,197.3z M163,121.47
		c-16.98,0-30.8,13.82-30.8,30.8s13.82,30.8,30.8,30.8s30.8-13.82,30.8-30.8S179.98,121.47,163,121.47z"/>
</g>
</svg>
