<?xml version="1.0" encoding="UTF-8"?>
<svg id="Layer_1" data-name="Layer 1" xmlns="http://www.w3.org/2000/svg" viewBox="0 0 30 30">
  <path d="M19.29,14.84c0,2.36-1.91,4.27-4.27,4.27s-4.27-1.91-4.27-4.27,1.91-4.27,4.27-4.27c2.36,0,4.27,1.91,4.27,4.27" fill="#2b0d5c" stroke-width="0"/>
  <path d="M15.06,23.15c-4.53,0-8.21-3.68-8.21-8.21s3.68-8.21,8.21-8.21,8.21,3.68,8.21,8.21-3.68,8.21-8.21,8.21M15.06,9.09c-3.22,0-5.85,2.62-5.85,5.85s2.62,5.85,5.85,5.85,5.85-2.62,5.85-5.85c0-3.22-2.62-5.85-5.85-5.85" fill="#4f33b3" stroke-width="0"/>
  <path d="M15.03,26.58c-6.4,0-11.6-5.21-11.6-11.6S8.63,3.37,15.03,3.37s11.6,5.21,11.6,11.6-5.21,11.6-11.6,11.6M15.03,5.14c-5.42,0-9.83,4.41-9.83,9.83s4.41,9.83,9.83,9.83,9.83-4.41,9.83-9.83c0-5.42-4.41-9.83-9.83-9.83" fill="#377eed" stroke-width="0"/>
  <path d="M15,30C6.73,30,0,23.27,0,15S6.73,0,15,0s15,6.73,15,15-6.73,15-15,15M15,1.18C7.38,1.18,1.18,7.38,1.18,15s6.2,13.82,13.82,13.82,13.82-6.2,13.82-13.82S22.62,1.18,15,1.18" fill="#86d4d3" stroke-width="0"/>
</svg>