<?xml version="1.0" encoding="utf-8"?>
<!-- Generator: Adobe Illustrator 28.1.0, SVG Export Plug-In . SVG Version: 6.00 Build 0)  -->
<svg version="1.1" id="Layer_1" xmlns="http://www.w3.org/2000/svg" xmlns:xlink="http://www.w3.org/1999/xlink" x="0px" y="0px"
	 viewBox="0 0 300 300" enable-background="new 0 0 300 300" xml:space="preserve">
<g>
	<g>
		<g>
			<g>
				<path fill="#DBDBDB" d="M50.36,148.99c2.3,1.1,4.61,0.95,6.84-0.28c0.62-0.34,1.22-0.72,1.97-1.17
					c-0.75,2.67-3.6,4.72-6.11,4.56c-0.73-0.05-1.26-0.31-1.6-1.05c-0.44-0.94-1.24-1.08-2.11-0.52c-0.96,0.62-1.29,1.59-0.89,2.73
					c0.38,1.07,1.08,1.93,1.83,2.74c2.28,2.44,4.88,4.51,7.6,6.42c2.35,1.65,4.98,2.17,7.81,1.65c2.08-0.38,4.09-1.14,5.23-2.94
					c1.42-2.25,2.11-4.81,1.68-7.55c-0.05-0.33-0.33-0.72,0.12-0.97c0.48-0.26,1-0.31,1.5-0.05c0.45,0.24,0.35,0.67,0.27,1.04
					c-0.18,0.79-0.41,1.57-0.6,2.36c-0.46,1.94-0.65,3.9,0.3,5.73c1.53,2.93,1.52,5.88,0.31,8.87c-0.91,2.24-0.61,4.11,1.28,5.69
					c0.69,0.58,0.9,1.34,0.55,2.2c-0.21,0.51-0.34,1.08-0.65,1.52c-1.07,1.52-1.1,3.16-0.66,4.86c0.23,0.88,0.48,1.76,0.79,2.61
					c1.73,4.78,3.66,9.5,5.16,14.37c0.32,1.04,0.74,2,1.27,2.94c0.98,1.74,2.27,3.26,3.39,4.89c1.68,2.45,1.98,5.29,2.43,8.13
					c0.97,6.11,3.18,11.72,7.43,16.37c1.07,1.17,1.86,2.51,2.49,3.95c1.51,3.48,2.44,7.13,3.36,10.79c0.82,3.25,2.39,6.08,5.16,8.04
					c3.21,2.27,7.55,0.74,8.8-2.96c0.25-0.74,0.61-1.45,0.8-2.2c0.34-1.36,1.15-1.97,2.55-2.05c1.23-0.07,2.44-0.37,3.62-0.74
					c0.51-0.16,1.02-0.37,1.07-1c0.05-0.62-0.42-0.9-0.9-1.14c-0.4-0.2-0.86-0.3-1.2-0.7c0.13-0.11,0.24-0.23,0.38-0.3
					c1.71-0.91,2.56-2.26,2.2-4.24c-0.11-0.62,0.21-0.71,0.72-0.69c0.92,0.04,1.76,0.5,2.69,0.46c0.94-0.04,1.36-0.65,1.03-1.51
					c-0.09-0.24-0.21-0.48-0.36-0.69c-0.66-0.96-0.68-1.89-0.07-2.91c0.63-1.04,0.53-1.95-0.39-2.72c-1.08-0.9-1.07-1.91-0.67-3.07
					c0.75-2.17,1.81-4.17,3.06-6.08c1-1.52,1.41-3.13,0.71-4.91c-0.13-0.33-0.18-0.69-0.24-1.05c-0.71-3.93-0.7-7.91-0.83-11.88
					c-0.05-1.6,0.45-3.01,1.24-4.35c0.86-1.46,1.15-1.47,2.16-0.13c0.06,0.08,0.12,0.16,0.18,0.23c0.6,0.64,1.35,0.57,1.76-0.19
					c0.2-0.36,0.29-0.79,0.39-1.2c0.22-0.88,0.32-1.8,0.68-2.64c0.35-0.8,0.86-1.18,1.83-1.04c1.88,0.27,3.71-0.06,5.36-1.05
					c1.25-0.75,1.88-1.83,1.59-3.37c-0.29-1.55,0.04-2.22,1.47-2.92c1.05-0.52,2.15-0.93,3.23-1.37c3.66-1.48,6.46-3.81,7.86-7.65
					c0.83-2.28,2.39-4.1,4.17-5.71c3.97-3.58,8.19-6.85,12.54-9.95c0.74-0.53,1.51-1.03,2.07-1.77c0.68-0.92,0.63-1.81-0.12-2.65
					c-0.89-0.99-1.01-1.56-0.42-2.72c1.14-2.25,3.01-3.81,5.04-5.2c0.33-0.23,0.57-0.23,0.49,0.28c-0.19,1.15,0.58,1.63,1.46,1.86
					c2.02,0.54,4.01,0.39,5.88-0.58c1.49-0.77,2.15-2.16,1.92-3.83c-0.11-0.78-0.31-1.53-0.6-2.26c-1.05-2.61-2.44-5.03-3.98-7.38
					c-0.87-1.33-0.95-2.71-0.3-4.18c0.87-1.95,0.34-3.29-1.6-4.2c-0.73-0.34-1.49-0.64-2.22-1.01c-0.69-0.34-0.94-0.96-0.88-1.71
					c0.16-1.93,1.63-3.04,3.52-2.63c0.32,0.07,0.63,0.17,0.95,0.22c0.48,0.07,0.99,0.15,1.36-0.29c0.4-0.46,0.34-0.99,0.1-1.47
					c-0.86-1.69-1.99-3.08-4.06-3.25c-0.51-0.04-0.78-0.28-0.93-0.72c-0.34-1-0.29-1.99,0.21-2.93c0.32-0.61,0.77-0.84,1.42-0.39
					c1.78,1.22,3.7,2.16,5.71,2.95c1.09,0.43,1.38,1.11,1.1,2.26c-0.6,2.46,0.04,3.24,2.59,3.09c0.29-0.02,0.58-0.05,0.87-0.11
					c2.11-0.39,4.22-0.8,6.33-1.19c1.99-0.36,3.98-0.73,6-0.79c1.68-0.05,2.13,0.54,1.73,2.14c-0.37,1.48-1.19,2.57-2.69,3.09
					c-1.6,0.56-3,1.38-3.92,2.9c-2.09,3.48-1.07,8,2.34,10.26c0.57,0.38,1.2,0.73,1.91,0.35c0.73-0.39,0.67-1.13,0.69-1.81
					c0.01-0.23-0.05-0.45-0.07-0.68c-0.08-1.23-0.36-2.46-0.25-3.7c0.06-0.74,0.19-1.48,1.09-1.62c0.86-0.13,1.52,0.23,1.92,1.02
					c0.33,0.65,0.44,1.36,0.51,2.07c0.13,1.36,0.21,2.73,0.4,4.08c0.2,1.45,0.68,2.8,1.93,3.71c0.92,0.66,1.94,1.18,3.09,0.66
					c1.08-0.5,1.14-1.6,1.22-2.6c0.17-2.19-0.01-4.36-0.28-6.53c-0.22-1.74-0.49-3.48-0.7-5.23c-0.04-0.36-0.24-0.86,0.13-1.07
					c0.32-0.17,0.62,0.25,0.91,0.43c0.49,0.32,0.96,0.68,1.47,0.97c1.55,0.87,2.85,0.46,3.63-1.14c0.22-0.46,0.39-0.97,0.52-1.47
					c0.55-2.08,0.4-4.2,0.25-6.31c-0.05-0.68-0.17-1.36-0.3-2.03c-0.32-1.66,0.5-2.95,1.33-4.24c1.03-1.6,1.37-3.27,0.61-5.1
					c-0.54-1.3-0.44-1.69,0.62-2.65c1.23-1.11,2.49-2.2,3.76-3.27c2.03-1.71,1.8-2.55,4.76-0.54c0.54,0.36,1.13,0.45,1.53-0.18
					c0.41-0.64,0.19-1.18-0.44-1.57c-0.19-0.12-0.38-0.25-0.58-0.36c-0.7-0.42-0.9-0.98-0.48-1.72c0.3-0.54,0.62-1.07,0.86-1.64
					c0.39-0.9,0.15-1.33-0.8-1.55c-1.11-0.25-2.23-0.46-3.28-0.91c-1.56-0.66-2.03-1.44-1.88-3.11c0.17-1.79-0.49-3.26-1.8-4.44
					c-1.14-1.03-2.11-1.13-3.33-0.21c-1.78,1.33-3.74,1.93-5.93,1.83c-0.45-0.02-0.91-0.09-1.36-0.13c-1.33-0.12-1.82,0.21-2,1.51
					c-0.23,1.66-1.01,3-2.19,4.15c-1.03,1.01-2.2,1.84-3.44,2.56c-0.95,0.55-1.74,1.26-2.3,2.2c-0.71,1.18-1.78,1.87-3.07,2.25
					c-0.5,0.15-1.01,0.24-1.51,0.41c-0.41,0.14-0.75,0.39-0.8,0.89c-0.05,0.49,0.21,0.81,0.58,1.05c0.59,0.37,1.28,0.46,1.96,0.55
					c0.3,0.04,0.59,0.03,0.69,0.4c0.29,1.01,0.21,2.04-0.13,2.98c-0.23,0.63-1.07,0.48-1.65,0.59c-4.25,0.83-8.62,0.73-12.87,1.67
					c-1.9,0.42-3.39-0.58-4.36-2.28c-0.85-1.49-1.18-3.08-1.06-4.78c0.06-0.96,0.24-2.04-0.82-2.62c-1.06-0.58-2.01-0.03-2.93,0.5
					c-0.2,0.11-0.37,0.26-0.55,0.4c-2.08,1.64-2.33,3.86-2.01,6.27c0.24,1.85,0.7,3.63,1.4,5.37c0.38,0.93,0.17,1.23-0.84,1.34
					c-0.65,0.07-1.3,0.11-1.95,0.09c-3.49-0.12-6.96-0.43-10.43-0.76c-2.37-0.22-4.79-0.4-6.8-1.85c-3.11-2.24-6.67-3.04-10.36-3.35
					c-3.02-0.26-5.77-1.06-8.34-2.71c-2-1.29-4.22-2.18-6.47-2.94c-1.91-0.64-3.85-1.19-5.77-1.79c-1.94-0.6-2.4-1.19-2.5-3.21
					c-0.15-3.12,1.11-5.66,3.4-7.66c1.91-1.66,1.25-3.41-0.56-4.38c-1.11-0.6-2.28-1.11-3.44-1.61c-2.79-1.22-5.45-2.64-7.7-4.73
					c-1.58-1.47-3.08-3.01-3.97-5.03c-0.53-1.2-0.62-2.39,0.22-3.51c0.13-0.18,0.25-0.44,0.51-0.41c0.26,0.03,0.26,0.33,0.33,0.53
					c0.15,0.39,0.23,0.81,0.39,1.2c0.56,1.4,1.55,1.75,2.88,1.02c2.19-1.19,2.68-3.41,1.22-5.42c-1.27-1.73-2.64-3.4-3.63-5.32
					c-0.78-1.52-0.63-2.18,0.59-3.36c1.5-1.45,3.21-2.65,4.88-3.9c2.58-1.93,2.55-6.06-0.07-7.94c-1.79-1.28-3.84-1.79-6.02-1.29
					c-2.76,0.64-5.39,1.68-8.05,2.64c-2.26,0.81-4.55,0.74-6.79-0.09c-1.22-0.45-2.23-1.29-2.17-2.72c0.18-4.51-4.9-7.87-9.1-7.16
					c-4.09,0.69-7.86,2.28-11.61,3.91c-2.65,1.15-3,3.91-0.93,5.96c0.82,0.81,1.86,1.17,2.91,1.54c1.85,0.64,3.49,1.58,4.78,3.08
					c1.15,1.32,1.05,1.75-0.57,2.27c-0.22,0.07-0.44,0.13-0.65,0.21c-1.81,0.69-2.51,1.77-2.28,3.7c0.24,2.04,0.83,4.01,1.38,5.98
					c0.68,2.43,2.15,4.28,4.23,5.67c1.3,0.87,2.7,1.56,4.18,2.07c0.58,0.2,1.17,0.41,1.95,0.68c-1.31,0.39-2.44,0.57-3.45,1.12
					c-1.66,0.91-2.18,2.24-1.53,4.01c0.22,0.61,0.51,1.2,0.71,1.82c0.35,1.11,0.14,1.8-0.79,2.47c-1.47,1.06-2.41,2.45-2.74,4.23
					c-0.27,1.45-1.08,2.35-2.55,2.56c-2.49,0.35-3.74,2.11-3.7,4.49c0.03,1.7-0.75,2.92-2.07,3.87c-0.26,0.19-0.53,0.38-0.79,0.57
					c-1.51,1.08-2.52,2.45-2.91,4.33c-0.58,2.8-3.18,4.98-5.98,5.23c-1.63,0.14-1.88-0.1-1.84-1.74c0-0.2,0.01-0.39-0.01-0.59
					c-0.14-1.33-0.98-1.87-2.26-1.43c-1.2,0.41-2.24,1.09-3.01,2.09c-1.59,2.11-2.96,4.36-4.02,6.78c-0.62,1.4-0.07,2.42,1.4,2.84
					c0.59,0.17,1.2,0.27,1.8,0.43c0.82,0.22,1.08,0.8,0.89,1.57c-0.17,0.72-0.44,1.42-0.63,2.15c-0.18,0.71,0.11,1.21,0.71,1.65
					c0.56,0.42,1.05,0.05,1.55,0.04c1.15-0.02,1.37,0.17,0.94,1.17c-0.25,0.58-0.23,1.1-0.13,1.69c0.16,0.98,0.64,1.73,1.32,2.42
					c1.25,1.27,1.82,2.84,1.81,4.6c-0.01,1.07-0.29,1.26-1.31,0.95c-2.03-0.61-4-0.71-5.97,0.31c-0.99,0.51-2.1,0.42-3.16,0.13
					c-0.94-0.26-1.83-0.65-2.77-0.89c-1.11-0.29-1.94,0.3-2.13,1.4c-0.31,1.78-0.49,1.94-2.24,1.97c-2.17,0.04-2.9,1.12-1.97,3.11
					C45.32,145.42,47.47,147.61,50.36,148.99z"/>
			</g>
			<g>
				<circle fill="#86D4D3" cx="142.3" cy="163.54" r="11.21"/>
				<path fill="#2B0D5C" d="M142.3,175.75c-6.73,0-12.21-5.48-12.21-12.21s5.48-12.21,12.21-12.21s12.21,5.48,12.21,12.21
					S149.04,175.75,142.3,175.75z M142.3,153.32c-5.63,0-10.21,4.58-10.21,10.21s4.58,10.21,10.21,10.21s10.21-4.58,10.21-10.21
					S147.94,153.32,142.3,153.32z"/>
			</g>
			<path fill="#2B0D5C" d="M142.3,189.09c-14.09,0-25.55-11.46-25.55-25.55c0-14.09,11.46-25.55,25.55-25.55
				c14.09,0,25.55,11.46,25.55,25.55C167.86,177.63,156.39,189.09,142.3,189.09z M142.3,139.49c-13.26,0-24.05,10.79-24.05,24.05
				c0,13.26,10.79,24.05,24.05,24.05c13.26,0,24.05-10.79,24.05-24.05C166.36,150.27,155.57,139.49,142.3,139.49z"/>
			<g>
				<circle fill="#2B0D5C" cx="142.3" cy="163.54" r="3.74"/>
				<path fill="#2B0D5C" d="M142.3,168.28c-2.61,0-4.74-2.13-4.74-4.74s2.13-4.74,4.74-4.74s4.74,2.12,4.74,4.74
					S144.92,168.28,142.3,168.28z M142.3,160.8c-1.51,0-2.74,1.23-2.74,2.74s1.23,2.74,2.74,2.74s2.74-1.23,2.74-2.74
					S143.81,160.8,142.3,160.8z"/>
			</g>
			<g>
				<circle fill="#86D4D3" cx="129.54" cy="109.03" r="15.48"/>
				<path fill="#2B0D5C" d="M129.54,125.51c-9.09,0-16.48-7.4-16.48-16.48s7.4-16.48,16.48-16.48s16.48,7.4,16.48,16.48
					S138.63,125.51,129.54,125.51z M129.54,94.54c-7.99,0-14.48,6.5-14.48,14.48s6.5,14.48,14.48,14.48s14.48-6.5,14.48-14.48
					S137.52,94.54,129.54,94.54z"/>
			</g>
			<path fill="#2B0D5C" d="M129.54,136.42c-15.11,0-27.39-12.29-27.39-27.39s12.29-27.39,27.39-27.39s27.39,12.29,27.39,27.39
				S144.64,136.42,129.54,136.42z M129.54,83.13c-14.28,0-25.89,11.62-25.89,25.89s11.62,25.89,25.89,25.89s25.89-11.62,25.89-25.89
				S143.82,83.13,129.54,83.13z"/>
			<g>
				<g>
					<circle fill="#86D4D3" cx="70.8" cy="141.06" r="12.28"/>
					<path fill="#2B0D5C" d="M70.8,154.34c-7.32,0-13.28-5.96-13.28-13.28s5.96-13.28,13.28-13.28s13.28,5.96,13.28,13.28
						S78.13,154.34,70.8,154.34z M70.8,129.78c-6.22,0-11.28,5.06-11.28,11.28c0,6.22,5.06,11.28,11.28,11.28
						c6.22,0,11.28-5.06,11.28-11.28C82.08,134.84,77.02,129.78,70.8,129.78z"/>
				</g>
				<path fill="#2B0D5C" d="M70.8,161.91c-11.49,0-20.84-9.35-20.84-20.84s9.35-20.84,20.84-20.84s20.84,9.35,20.84,20.84
					S82.3,161.91,70.8,161.91z M70.8,121.72c-10.67,0-19.34,8.68-19.34,19.34s8.68,19.34,19.34,19.34s19.34-8.68,19.34-19.34
					S81.47,121.72,70.8,121.72z"/>
				<g>
					<circle fill="#2B0D5C" cx="70.8" cy="141.06" r="4.81"/>
					<path fill="#2B0D5C" d="M70.8,146.87c-3.2,0-5.81-2.6-5.81-5.81s2.6-5.81,5.81-5.81s5.81,2.6,5.81,5.81S74,146.87,70.8,146.87z
						 M70.8,137.26c-2.1,0-3.81,1.71-3.81,3.81s1.71,3.81,3.81,3.81c2.1,0,3.81-1.71,3.81-3.81S72.9,137.26,70.8,137.26z"/>
				</g>
			</g>
			<g>
				<circle fill="#86D4D3" cx="100.17" cy="230.23" r="14.17"/>
				<path fill="#2B0D5C" d="M100.17,245.41c-8.37,0-15.17-6.81-15.17-15.17s6.81-15.17,15.17-15.17s15.17,6.81,15.17,15.17
					S108.54,245.41,100.17,245.41z M100.17,217.06c-7.26,0-13.17,5.91-13.17,13.17s5.91,13.17,13.17,13.17
					c7.26,0,13.17-5.91,13.17-13.17S107.43,217.06,100.17,217.06z"/>
			</g>
			<path fill="#2B0D5C" d="M100.17,255.35c-13.85,0-25.12-11.27-25.12-25.12c0-13.85,11.27-25.12,25.12-25.12
				s25.12,11.27,25.12,25.12C125.29,244.08,114.02,255.35,100.17,255.35z M100.17,206.62c-13.02,0-23.62,10.59-23.62,23.62
				c0,13.02,10.6,23.62,23.62,23.62s23.62-10.59,23.62-23.62C123.79,217.21,113.19,206.62,100.17,206.62z"/>
			<g>
				<circle fill="#2B0D5C" cx="129.54" cy="109.03" r="4.81"/>
				<path fill="#2B0D5C" d="M129.54,114.83c-3.2,0-5.81-2.6-5.81-5.81s2.6-5.81,5.81-5.81c3.2,0,5.81,2.6,5.81,5.81
					S132.74,114.83,129.54,114.83z M129.54,105.22c-2.1,0-3.81,1.71-3.81,3.81s1.71,3.81,3.81,3.81c2.1,0,3.81-1.71,3.81-3.81
					S131.64,105.22,129.54,105.22z"/>
			</g>
		</g>
		<g>
			<circle fill="#2B0D5C" cx="100.17" cy="230.23" r="7.48"/>
			<path fill="#2B0D5C" d="M100.17,238.71c-4.67,0-8.48-3.8-8.48-8.48s3.8-8.48,8.48-8.48s8.48,3.8,8.48,8.48
				S104.84,238.71,100.17,238.71z M100.17,223.76c-3.57,0-6.48,2.91-6.48,6.48s2.9,6.48,6.48,6.48c3.57,0,6.48-2.91,6.48-6.48
				S103.74,223.76,100.17,223.76z"/>
		</g>
	</g>
	<g>
		<path fill="#2B0D5C" d="M154.13,215.33c-0.27,0-0.53-0.11-0.73-0.32c-0.38-0.4-0.36-1.04,0.05-1.41l20.95-19.64
			c0.12-0.12,0.28-0.2,0.45-0.24l18.55-4.56l36.09-35.79c0.39-0.39,1.03-0.39,1.41,0.01s0.39,1.03-0.01,1.41l-36.29,35.99
			c-0.13,0.13-0.29,0.22-0.47,0.26l-18.56,4.56l-20.76,19.46C154.62,215.24,154.37,215.33,154.13,215.33z"/>
		<g>
			<circle fill="#FFFFFF" cx="141.31" cy="220.43" r="14.09"/>
			<path fill="#2B0D5C" d="M141.31,235.51c-8.32,0-15.09-6.77-15.09-15.09s6.77-15.08,15.09-15.08c8.32,0,15.08,6.77,15.08,15.08
				S149.62,235.51,141.31,235.51z M141.31,207.34c-7.22,0-13.09,5.87-13.09,13.08c0,7.22,5.87,13.09,13.09,13.09
				c7.21,0,13.08-5.87,13.08-13.09C154.39,213.21,148.52,207.34,141.31,207.34z"/>
		</g>
		<g>
			<circle fill="#FFFFFF" cx="241.36" cy="144.66" r="14.09"/>
			<path fill="#2B0D5C" d="M241.36,159.74c-8.32,0-15.08-6.77-15.08-15.08s6.77-15.09,15.08-15.09s15.09,6.77,15.09,15.09
				S249.68,159.74,241.36,159.74z M241.36,131.57c-7.21,0-13.08,5.87-13.08,13.09c0,7.21,5.87,13.08,13.08,13.08
				c7.22,0,13.09-5.87,13.09-13.08C254.45,137.44,248.58,131.57,241.36,131.57z"/>
		</g>
		<path fill="#2B0D5C" d="M230.19,159.74c-0.55,0-1-0.45-1-1v-3.67h-4.73c-0.55,0-1-0.45-1-1s0.45-1,1-1h5.73c0.55,0,1,0.45,1,1
			v4.67C231.19,159.29,230.74,159.74,230.19,159.74z"/>
		<g>
			<path fill="#2B0D5C" d="M134.69,218.33v-0.91h1.82v6.37h-1.01v-5.46H134.69z"/>
			<path fill="#2B0D5C" d="M138.39,218.16c0.34-0.57,0.93-0.85,1.76-0.85c0.83,0,1.42,0.28,1.76,0.85c0.34,0.57,0.51,1.36,0.51,2.36
				c0,1.02-0.17,1.82-0.51,2.39c-0.34,0.57-0.93,0.86-1.76,0.86c-0.83,0-1.42-0.29-1.76-0.86c-0.34-0.57-0.51-1.37-0.51-2.39
				C137.88,219.52,138.05,218.73,138.39,218.16z M141.35,219.33c-0.06-0.33-0.18-0.59-0.37-0.8c-0.19-0.21-0.46-0.31-0.83-0.31
				s-0.64,0.1-0.83,0.31c-0.19,0.21-0.31,0.47-0.37,0.8c-0.06,0.33-0.09,0.73-0.09,1.2c0,0.49,0.03,0.9,0.09,1.23
				c0.06,0.33,0.18,0.6,0.37,0.8s0.47,0.31,0.83,0.31s0.65-0.1,0.83-0.31c0.19-0.2,0.31-0.47,0.37-0.8
				c0.06-0.33,0.09-0.74,0.09-1.23C141.44,220.05,141.41,219.65,141.35,219.33z"/>
			<path fill="#2B0D5C" d="M143.99,218.16c0.34-0.57,0.93-0.85,1.76-0.85s1.42,0.28,1.76,0.85c0.34,0.57,0.51,1.36,0.51,2.36
				c0,1.02-0.17,1.82-0.51,2.39c-0.34,0.57-0.93,0.86-1.76,0.86s-1.42-0.29-1.76-0.86c-0.34-0.57-0.51-1.37-0.51-2.39
				C143.48,219.52,143.65,218.73,143.99,218.16z M146.96,219.33c-0.06-0.33-0.18-0.59-0.37-0.8c-0.19-0.21-0.46-0.31-0.83-0.31
				s-0.64,0.1-0.83,0.31c-0.19,0.21-0.31,0.47-0.37,0.8c-0.06,0.33-0.09,0.73-0.09,1.2c0,0.49,0.03,0.9,0.09,1.23
				c0.06,0.33,0.18,0.6,0.37,0.8s0.47,0.31,0.83,0.31s0.65-0.1,0.83-0.31c0.19-0.2,0.31-0.47,0.37-0.8
				c0.06-0.33,0.09-0.74,0.09-1.23C147.05,220.05,147.02,219.65,146.96,219.33z"/>
		</g>
		<g>
			<path fill="#2B0D5C" d="M233.17,146.66v-0.79l3.07-4.41h1.26v4.29h0.85v0.91h-0.85v1.39h-1.02v-1.39H233.17z M236.52,142.52
				l-2.16,3.23h2.16V142.52z"/>
			<path fill="#2B0D5C" d="M239.75,142.15c0.36-0.59,0.97-0.89,1.84-0.89c0.87,0,1.49,0.3,1.84,0.89c0.36,0.59,0.54,1.42,0.54,2.47
				c0,1.07-0.18,1.9-0.54,2.5c-0.36,0.6-0.97,0.9-1.84,0.9c-0.87,0-1.49-0.3-1.84-0.9c-0.36-0.6-0.54-1.43-0.54-2.5
				C239.21,143.57,239.39,142.75,239.75,142.15z M242.85,143.37c-0.06-0.34-0.19-0.62-0.39-0.84c-0.2-0.22-0.48-0.32-0.87-0.32
				c-0.38,0-0.67,0.11-0.87,0.32c-0.2,0.22-0.32,0.5-0.39,0.84c-0.06,0.34-0.1,0.76-0.1,1.25c0,0.51,0.03,0.94,0.09,1.29
				c0.06,0.35,0.19,0.63,0.39,0.84c0.2,0.21,0.49,0.32,0.87,0.32c0.38,0,0.68-0.11,0.87-0.32c0.2-0.21,0.33-0.49,0.39-0.84
				c0.06-0.35,0.09-0.78,0.09-1.29C242.94,144.13,242.91,143.71,242.85,143.37z"/>
			<path fill="#2B0D5C" d="M245.61,142.15c0.36-0.59,0.97-0.89,1.84-0.89s1.49,0.3,1.84,0.89c0.36,0.59,0.54,1.42,0.54,2.47
				c0,1.07-0.18,1.9-0.54,2.5c-0.36,0.6-0.97,0.9-1.84,0.9s-1.49-0.3-1.84-0.9c-0.36-0.6-0.54-1.43-0.54-2.5
				C245.07,143.57,245.25,142.75,245.61,142.15z M248.71,143.37c-0.06-0.34-0.19-0.62-0.39-0.84c-0.2-0.22-0.48-0.32-0.87-0.32
				s-0.67,0.11-0.87,0.32c-0.2,0.22-0.32,0.5-0.39,0.84c-0.06,0.34-0.1,0.76-0.1,1.25c0,0.51,0.03,0.94,0.09,1.29
				c0.06,0.35,0.19,0.63,0.39,0.84c0.2,0.21,0.49,0.32,0.87,0.32s0.68-0.11,0.87-0.32c0.2-0.21,0.33-0.49,0.39-0.84
				c0.06-0.35,0.09-0.78,0.09-1.29C248.81,144.13,248.77,143.71,248.71,143.37z"/>
		</g>
	</g>
	<g>
		<g>
			<circle fill="#86D4D3" cx="191.74" cy="115.91" r="8.85"/>
			<path fill="#2B0D5C" d="M191.74,125.77c-5.43,0-9.85-4.42-9.85-9.85s4.42-9.85,9.85-9.85c5.43,0,9.85,4.42,9.85,9.85
				S197.17,125.77,191.74,125.77z M191.74,108.06c-4.33,0-7.85,3.52-7.85,7.85s3.52,7.85,7.85,7.85s7.85-3.52,7.85-7.85
				S196.07,108.06,191.74,108.06z"/>
		</g>
		<path fill="#2B0D5C" d="M191.74,131.15c-8.4,0-15.23-6.83-15.23-15.23s6.83-15.23,15.23-15.23c8.4,0,15.23,6.83,15.23,15.23
			S200.14,131.15,191.74,131.15z M191.74,102.18c-7.57,0-13.73,6.16-13.73,13.73s6.16,13.73,13.73,13.73
			c7.57,0,13.73-6.16,13.73-13.73S199.31,102.18,191.74,102.18z"/>
		<g>
			<circle fill="#2B0D5C" cx="191.74" cy="115.91" r="3.46"/>
			<path fill="#2B0D5C" d="M191.74,120.38c-2.46,0-4.46-2-4.46-4.46s2-4.46,4.46-4.46c2.46,0,4.46,2,4.46,4.46
				S194.2,120.38,191.74,120.38z M191.74,113.45c-1.36,0-2.46,1.11-2.46,2.46c0,1.36,1.11,2.46,2.46,2.46
				c1.36,0,2.46-1.11,2.46-2.46C194.2,114.55,193.1,113.45,191.74,113.45z"/>
		</g>
	</g>
	<g>
		<g>
			<circle fill="#86D4D3" cx="85.85" cy="75.11" r="8.85"/>
			<path fill="#2B0D5C" d="M85.85,84.97c-5.43,0-9.85-4.42-9.85-9.85s4.42-9.85,9.85-9.85s9.85,4.42,9.85,9.85
				S91.29,84.97,85.85,84.97z M85.85,67.26c-4.33,0-7.85,3.52-7.85,7.85s3.52,7.85,7.85,7.85s7.85-3.52,7.85-7.85
				S90.18,67.26,85.85,67.26z"/>
		</g>
		<path fill="#2B0D5C" d="M85.85,90.35c-8.4,0-15.23-6.83-15.23-15.23s6.83-15.23,15.23-15.23s15.23,6.83,15.23,15.23
			S94.25,90.35,85.85,90.35z M85.85,61.38c-7.57,0-13.73,6.16-13.73,13.73s6.16,13.73,13.73,13.73s13.73-6.16,13.73-13.73
			S93.43,61.38,85.85,61.38z"/>
		<g>
			<circle fill="#2B0D5C" cx="85.85" cy="75.11" r="3.46"/>
			<path fill="#2B0D5C" d="M85.85,79.58c-2.46,0-4.46-2-4.46-4.46s2-4.46,4.46-4.46s4.46,2,4.46,4.46S88.31,79.58,85.85,79.58z
				 M85.85,72.65c-1.36,0-2.46,1.11-2.46,2.46c0,1.36,1.11,2.46,2.46,2.46s2.46-1.11,2.46-2.46C88.32,73.76,87.21,72.65,85.85,72.65
				z"/>
		</g>
	</g>
	<g>
		<g>
			<circle fill="#86D4D3" cx="81.97" cy="175.17" r="7.18"/>
			<path fill="#2B0D5C" d="M81.97,183.35c-4.51,0-8.18-3.67-8.18-8.18c0-4.51,3.67-8.18,8.18-8.18c4.51,0,8.18,3.67,8.18,8.18
				C90.15,179.68,86.48,183.35,81.97,183.35z M81.97,168.99c-3.41,0-6.18,2.77-6.18,6.18c0,3.41,2.77,6.18,6.18,6.18
				s6.18-2.77,6.18-6.18C88.15,171.76,85.37,168.99,81.97,168.99z"/>
		</g>
		<path fill="#2B0D5C" d="M81.97,187.66c-6.89,0-12.49-5.6-12.49-12.49s5.6-12.49,12.49-12.49s12.49,5.6,12.49,12.49
			S88.86,187.66,81.97,187.66z M81.97,164.17c-6.06,0-10.99,4.93-10.99,10.99s4.93,10.99,10.99,10.99s10.99-4.93,10.99-10.99
			S88.03,164.17,81.97,164.17z"/>
		<g>
			<circle fill="#2B0D5C" cx="81.97" cy="175.17" r="2.81"/>
			<path fill="#2B0D5C" d="M81.97,178.98c-2.1,0-3.81-1.71-3.81-3.81c0-2.1,1.71-3.81,3.81-3.81s3.81,1.71,3.81,3.81
				C85.78,177.27,84.07,178.98,81.97,178.98z M81.97,173.36c-1,0-1.81,0.81-1.81,1.81c0,1,0.81,1.81,1.81,1.81
				c1,0,1.81-0.81,1.81-1.81C83.78,174.17,82.97,173.36,81.97,173.36z"/>
		</g>
	</g>
</g>
</svg>
