<?xml version="1.0" encoding="utf-8"?>
<!-- Generator: Adobe Illustrator 28.1.0, SVG Export Plug-In . SVG Version: 6.00 Build 0)  -->
<svg version="1.1" id="Layer_1" xmlns="http://www.w3.org/2000/svg" xmlns:xlink="http://www.w3.org/1999/xlink" x="0px" y="0px"
	 viewBox="0 0 300 300" enable-background="new 0 0 300 300" xml:space="preserve">
<g>
	<rect x="43.35" y="43" fill="#86D4D3" width="125.78" height="146.9"/>
	<g>
		<rect x="52.54" y="59.53" fill="#FFFFFF" width="105.58" height="80.79"/>
		<path fill="#2B0D5C" d="M158.12,141.32H52.54c-0.55,0-1-0.45-1-1V59.53c0-0.55,0.45-1,1-1h105.58c0.55,0,1,0.45,1,1v80.79
			C159.12,140.87,158.67,141.32,158.12,141.32z M53.54,139.32h103.58V60.53H53.54V139.32z"/>
	</g>
	<path fill="#2B0D5C" d="M158.12,68.91H52.54c-0.55,0-1-0.45-1-1s0.45-1,1-1h105.58c0.55,0,1,0.45,1,1S158.67,68.91,158.12,68.91z"
		/>
	<path fill="#2B0D5C" d="M158.12,77.97H52.54c-0.55,0-1-0.45-1-1s0.45-1,1-1h105.58c0.55,0,1,0.45,1,1S158.67,77.97,158.12,77.97z"
		/>
	<path fill="#2B0D5C" d="M158.12,87.03H52.54c-0.55,0-1-0.45-1-1s0.45-1,1-1h105.58c0.55,0,1,0.45,1,1S158.67,87.03,158.12,87.03z"
		/>
	<path fill="#2B0D5C" d="M158.12,96.08H52.54c-0.55,0-1-0.45-1-1s0.45-1,1-1h105.58c0.55,0,1,0.45,1,1S158.67,96.08,158.12,96.08z"
		/>
	<path fill="#2B0D5C" d="M158.12,105.14H52.54c-0.55,0-1-0.45-1-1s0.45-1,1-1h105.58c0.55,0,1,0.45,1,1S158.67,105.14,158.12,105.14
		z"/>
	<path fill="#2B0D5C" d="M158.12,114.2H52.54c-0.55,0-1-0.45-1-1s0.45-1,1-1h105.58c0.55,0,1,0.45,1,1S158.67,114.2,158.12,114.2z"
		/>
	<path fill="#2B0D5C" d="M158.12,123.26H52.54c-0.55,0-1-0.45-1-1s0.45-1,1-1h105.58c0.55,0,1,0.45,1,1S158.67,123.26,158.12,123.26
		z"/>
	<path fill="#2B0D5C" d="M158.12,132.31H52.54c-0.55,0-1-0.45-1-1s0.45-1,1-1h105.58c0.55,0,1,0.45,1,1S158.67,132.31,158.12,132.31
		z"/>
	<path fill="#2B0D5C" d="M121.39,141.32c-0.55,0-1-0.45-1-1V68.71c0-0.55,0.45-1,1-1s1,0.45,1,1v71.61
		C122.39,140.87,121.94,141.32,121.39,141.32z"/>
	<path fill="#2B0D5C" d="M86.5,141.32c-0.55,0-1-0.45-1-1V68.71c0-0.55,0.45-1,1-1s1,0.45,1,1v71.61
		C87.5,140.87,87.06,141.32,86.5,141.32z"/>
	<path fill="#2B0D5C" d="M121.39,155.36H52.54c-0.55,0-1-0.45-1-1s0.45-1,1-1h68.86c0.55,0,1,0.45,1,1S121.94,155.36,121.39,155.36z
		"/>
	<path fill="#2B0D5C" d="M97.18,169.42H51.75c-0.55,0-1-0.45-1-1s0.45-1,1-1h45.42c0.55,0,1,0.45,1,1S97.73,169.42,97.18,169.42z"/>
	<g>
		<g>
			<rect x="171.79" y="193.36" fill="#FFFFFF" width="84.86" height="63.64"/>
			<path fill="#2B0D5C" d="M256.65,258h-84.86c-0.55,0-1-0.45-1-1v-63.64c0-0.55,0.45-1,1-1h84.86c0.55,0,1,0.45,1,1V257
				C257.65,257.55,257.2,258,256.65,258z M172.79,256h82.86v-61.64h-82.86V256z"/>
		</g>
		<g>
			<g>
				<path fill="#2B0D5C" d="M240.45,199.92c-0.55,0-1-0.45-1-1v-11.56c0-0.55,0.45-1,1-1s1,0.45,1,1v11.56
					C241.45,199.48,241,199.92,240.45,199.92z"/>
			</g>
			<g>
				<path fill="#2B0D5C" d="M213.93,199.92c-0.55,0-1-0.45-1-1v-11.56c0-0.55,0.45-1,1-1s1,0.45,1,1v11.56
					C214.93,199.48,214.48,199.92,213.93,199.92z"/>
			</g>
			<g>
				<path fill="#2B0D5C" d="M187.41,199.92c-0.55,0-1-0.45-1-1v-11.56c0-0.55,0.45-1,1-1s1,0.45,1,1v11.56
					C188.41,199.48,187.96,199.92,187.41,199.92z"/>
			</g>
		</g>
		<g>
			<circle fill="#FFFFFF" cx="156.22" cy="186.87" r="26.75"/>
			<path fill="#2B0D5C" d="M156.22,214.61c-15.3,0-27.75-12.45-27.75-27.75c0-15.3,12.45-27.75,27.75-27.75
				c15.3,0,27.75,12.45,27.75,27.75C183.97,202.17,171.52,214.61,156.22,214.61z M156.22,161.12c-14.2,0-25.75,11.55-25.75,25.75
				c0,14.2,11.55,25.75,25.75,25.75c14.2,0,25.75-11.55,25.75-25.75C181.97,172.67,170.42,161.12,156.22,161.12z"/>
		</g>
		<g>
			<path fill="#2B0D5C" d="M256.65,210.53h-84.86c-0.55,0-1-0.45-1-1s0.45-1,1-1h84.86c0.55,0,1,0.45,1,1
				S257.2,210.53,256.65,210.53z"/>
		</g>
		<g>
			<path fill="#FFFFFF" d="M171.33,189.84c-1.36,6.97-7.5,12.24-14.87,12.24c-6.8,0-12.55-4.48-14.47-10.65"/>
			<path fill="#2B0D5C" d="M156.46,203.08c-7.11,0-13.31-4.56-15.42-11.35c-0.16-0.53,0.13-1.09,0.66-1.25
				c0.53-0.16,1.09,0.13,1.25,0.66c1.85,5.95,7.28,9.94,13.51,9.94c6.76,0,12.6-4.81,13.89-11.43c0.1-0.54,0.63-0.9,1.17-0.79
				c0.54,0.11,0.9,0.63,0.79,1.17C170.84,197.59,164.17,203.08,156.46,203.08z"/>
		</g>
		<g>
			<path fill="#FFFFFF" d="M141.5,184.51c1.16-7.22,7.41-12.73,14.96-12.73c6.76,0,12.49,4.43,14.44,10.55"/>
			<path fill="#2B0D5C" d="M141.5,185.51c-0.05,0-0.11,0-0.16-0.01c-0.55-0.09-0.92-0.6-0.83-1.15c1.26-7.87,7.97-13.57,15.95-13.57
				c7.06,0,13.25,4.52,15.39,11.25c0.17,0.53-0.12,1.09-0.65,1.26c-0.53,0.17-1.09-0.12-1.26-0.65c-1.88-5.89-7.3-9.85-13.49-9.85
				c-6.99,0-12.87,5-13.97,11.89C142.41,185.16,141.98,185.51,141.5,185.51z"/>
		</g>
		<path fill="#2B0D5C" d="M171.2,184.44c-0.13,0-0.26-0.03-0.38-0.08l-5.27-2.19c-0.51-0.21-0.75-0.8-0.54-1.31
			c0.21-0.51,0.8-0.75,1.31-0.54l4.32,1.79l1.94-5.02c0.2-0.52,0.78-0.77,1.29-0.57c0.52,0.2,0.77,0.78,0.57,1.29l-2.3,5.98
			c-0.1,0.25-0.29,0.45-0.54,0.56C171.46,184.41,171.33,184.44,171.2,184.44z"/>
		<path fill="#2B0D5C" d="M139.41,197.69c-0.12,0-0.24-0.02-0.36-0.07c-0.52-0.2-0.77-0.78-0.57-1.29l2.3-5.98
			c0.1-0.25,0.29-0.45,0.54-0.56c0.25-0.11,0.53-0.11,0.78,0l5.27,2.19c0.51,0.21,0.75,0.8,0.54,1.31c-0.21,0.51-0.8,0.75-1.31,0.54
			l-4.32-1.79l-1.93,5.02C140.19,197.45,139.81,197.69,139.41,197.69z"/>
		<g>
			<g>
				<rect x="182.02" y="216.28" fill="#FFFFFF" width="7.58" height="7.58"/>
				<path fill="#2B0D5C" d="M189.6,224.86h-7.58c-0.55,0-1-0.45-1-1v-7.58c0-0.55,0.45-1,1-1h7.58c0.55,0,1,0.45,1,1v7.58
					C190.6,224.41,190.15,224.86,189.6,224.86z M183.02,222.86h5.58v-5.58h-5.58V222.86z"/>
			</g>
			<g>
				<rect x="196.23" y="216.28" fill="#FFFFFF" width="7.58" height="7.58"/>
				<path fill="#2B0D5C" d="M203.8,224.86h-7.58c-0.55,0-1-0.45-1-1v-7.58c0-0.55,0.45-1,1-1h7.58c0.55,0,1,0.45,1,1v7.58
					C204.8,224.41,204.35,224.86,203.8,224.86z M197.23,222.86h5.58v-5.58h-5.58V222.86z"/>
			</g>
			<g>
				<rect x="210.43" y="216.28" fill="#FFFFFF" width="7.58" height="7.58"/>
				<path fill="#2B0D5C" d="M218,224.86h-7.58c-0.55,0-1-0.45-1-1v-7.58c0-0.55,0.45-1,1-1H218c0.55,0,1,0.45,1,1v7.58
					C219,224.41,218.56,224.86,218,224.86z M211.43,222.86H217v-5.58h-5.58V222.86z"/>
			</g>
			<g>
				<rect x="224.63" y="216.28" fill="#FFFFFF" width="7.58" height="7.58"/>
				<path fill="#2B0D5C" d="M232.21,224.86h-7.58c-0.55,0-1-0.45-1-1v-7.58c0-0.55,0.45-1,1-1h7.58c0.55,0,1,0.45,1,1v7.58
					C233.21,224.41,232.76,224.86,232.21,224.86z M225.63,222.86h5.58v-5.58h-5.58V222.86z"/>
			</g>
			<g>
				<rect x="238.84" y="216.28" fill="#FFFFFF" width="7.58" height="7.58"/>
				<path fill="#2B0D5C" d="M246.41,224.86h-7.58c-0.55,0-1-0.45-1-1v-7.58c0-0.55,0.45-1,1-1h7.58c0.55,0,1,0.45,1,1v7.58
					C247.41,224.41,246.96,224.86,246.41,224.86z M239.84,222.86h5.58v-5.58h-5.58V222.86z"/>
			</g>
			<g>
				<rect x="182.02" y="229.54" fill="#FFFFFF" width="7.58" height="7.58"/>
				<path fill="#2B0D5C" d="M189.6,238.12h-7.58c-0.55,0-1-0.45-1-1v-7.58c0-0.55,0.45-1,1-1h7.58c0.55,0,1,0.45,1,1v7.58
					C190.6,237.67,190.15,238.12,189.6,238.12z M183.02,236.12h5.58v-5.58h-5.58V236.12z"/>
			</g>
			<g>
				<rect x="196.23" y="229.54" fill="#FFFFFF" width="7.58" height="7.58"/>
				<path fill="#2B0D5C" d="M203.8,238.12h-7.58c-0.55,0-1-0.45-1-1v-7.58c0-0.55,0.45-1,1-1h7.58c0.55,0,1,0.45,1,1v7.58
					C204.8,237.67,204.35,238.12,203.8,238.12z M197.23,236.12h5.58v-5.58h-5.58V236.12z"/>
			</g>
			<g>
				<rect x="210.43" y="229.54" fill="#FFFFFF" width="7.58" height="7.58"/>
				<path fill="#2B0D5C" d="M218,238.12h-7.58c-0.55,0-1-0.45-1-1v-7.58c0-0.55,0.45-1,1-1H218c0.55,0,1,0.45,1,1v7.58
					C219,237.67,218.56,238.12,218,238.12z M211.43,236.12H217v-5.58h-5.58V236.12z"/>
			</g>
			<g>
				<rect x="224.63" y="229.54" fill="#FFFFFF" width="7.58" height="7.58"/>
				<path fill="#2B0D5C" d="M232.21,238.12h-7.58c-0.55,0-1-0.45-1-1v-7.58c0-0.55,0.45-1,1-1h7.58c0.55,0,1,0.45,1,1v7.58
					C233.21,237.67,232.76,238.12,232.21,238.12z M225.63,236.12h5.58v-5.58h-5.58V236.12z"/>
			</g>
			<g>
				<rect x="238.84" y="229.54" fill="#FFFFFF" width="7.58" height="7.58"/>
				<path fill="#2B0D5C" d="M246.41,238.12h-7.58c-0.55,0-1-0.45-1-1v-7.58c0-0.55,0.45-1,1-1h7.58c0.55,0,1,0.45,1,1v7.58
					C247.41,237.67,246.96,238.12,246.41,238.12z M239.84,236.12h5.58v-5.58h-5.58V236.12z"/>
			</g>
			<g>
				<rect x="182.02" y="242.8" fill="#FFFFFF" width="7.58" height="7.58"/>
				<path fill="#2B0D5C" d="M189.6,251.37h-7.58c-0.55,0-1-0.45-1-1v-7.58c0-0.55,0.45-1,1-1h7.58c0.55,0,1,0.45,1,1v7.58
					C190.6,250.92,190.15,251.37,189.6,251.37z M183.02,249.37h5.58v-5.58h-5.58V249.37z"/>
			</g>
			<g>
				<rect x="196.23" y="242.8" fill="#FFFFFF" width="7.58" height="7.58"/>
				<path fill="#2B0D5C" d="M203.8,251.37h-7.58c-0.55,0-1-0.45-1-1v-7.58c0-0.55,0.45-1,1-1h7.58c0.55,0,1,0.45,1,1v7.58
					C204.8,250.92,204.35,251.37,203.8,251.37z M197.23,249.37h5.58v-5.58h-5.58V249.37z"/>
			</g>
			<g>
				<rect x="210.43" y="242.8" fill="#FFFFFF" width="7.58" height="7.58"/>
				<path fill="#2B0D5C" d="M218,251.37h-7.58c-0.55,0-1-0.45-1-1v-7.58c0-0.55,0.45-1,1-1H218c0.55,0,1,0.45,1,1v7.58
					C219,250.92,218.56,251.37,218,251.37z M211.43,249.37H217v-5.58h-5.58V249.37z"/>
			</g>
			<g>
				<rect x="224.63" y="242.8" fill="#FFFFFF" width="7.58" height="7.58"/>
				<path fill="#2B0D5C" d="M232.21,251.37h-7.58c-0.55,0-1-0.45-1-1v-7.58c0-0.55,0.45-1,1-1h7.58c0.55,0,1,0.45,1,1v7.58
					C233.21,250.92,232.76,251.37,232.21,251.37z M225.63,249.37h5.58v-5.58h-5.58V249.37z"/>
			</g>
			<g>
				<rect x="238.84" y="242.8" fill="#FFFFFF" width="7.58" height="7.58"/>
				<path fill="#2B0D5C" d="M246.41,251.37h-7.58c-0.55,0-1-0.45-1-1v-7.58c0-0.55,0.45-1,1-1h7.58c0.55,0,1,0.45,1,1v7.58
					C247.41,250.92,246.96,251.37,246.41,251.37z M239.84,249.37h5.58v-5.58h-5.58V249.37z"/>
			</g>
		</g>
	</g>
</g>
</svg>
