<?xml version="1.0" encoding="utf-8"?>
<!-- Generator: Adobe Illustrator 28.1.0, SVG Export Plug-In . SVG Version: 6.00 Build 0)  -->
<svg version="1.1" id="Layer_1" xmlns="http://www.w3.org/2000/svg" xmlns:xlink="http://www.w3.org/1999/xlink" x="0px" y="0px"
	 viewBox="0 0 300 300" enable-background="new 0 0 300 300" xml:space="preserve">
<g>
	<rect x="60.41" y="47.5" fill="#86D4D3" width="151.12" height="176.49"/>
	<g>
		<rect x="71.44" y="67.36" fill="#FFFFFF" width="126.86" height="97.07"/>
		<path fill="#2B0D5C" d="M198.29,165.43H71.44c-0.55,0-1-0.45-1-1V67.36c0-0.55,0.45-1,1-1h126.86c0.55,0,1,0.45,1,1v97.07
			C199.29,164.98,198.85,165.43,198.29,165.43z M72.44,163.43h124.86V68.36H72.44V163.43z"/>
	</g>
	<path fill="#2B0D5C" d="M198.29,78.43H71.44c-0.55,0-1-0.45-1-1s0.45-1,1-1h126.86c0.55,0,1,0.45,1,1S198.85,78.43,198.29,78.43z"
		/>
	<path fill="#2B0D5C" d="M198.29,89.31H71.44c-0.55,0-1-0.45-1-1s0.45-1,1-1h126.86c0.55,0,1,0.45,1,1S198.85,89.31,198.29,89.31z"
		/>
	<path fill="#2B0D5C" d="M198.29,100.2H71.44c-0.55,0-1-0.45-1-1s0.45-1,1-1h126.86c0.55,0,1,0.45,1,1S198.85,100.2,198.29,100.2z"
		/>
	<path fill="#2B0D5C" d="M198.29,111.08H71.44c-0.55,0-1-0.45-1-1s0.45-1,1-1h126.86c0.55,0,1,0.45,1,1S198.85,111.08,198.29,111.08
		z"/>
	<path fill="#2B0D5C" d="M198.29,121.96H71.44c-0.55,0-1-0.45-1-1s0.45-1,1-1h126.86c0.55,0,1,0.45,1,1S198.85,121.96,198.29,121.96
		z"/>
	<path fill="#2B0D5C" d="M198.29,132.84H71.44c-0.55,0-1-0.45-1-1s0.45-1,1-1h126.86c0.55,0,1,0.45,1,1S198.85,132.84,198.29,132.84
		z"/>
	<path fill="#2B0D5C" d="M198.29,143.73H71.44c-0.55,0-1-0.45-1-1s0.45-1,1-1h126.86c0.55,0,1,0.45,1,1S198.85,143.73,198.29,143.73
		z"/>
	<path fill="#2B0D5C" d="M198.29,154.61H71.44c-0.55,0-1-0.45-1-1s0.45-1,1-1h126.86c0.55,0,1,0.45,1,1S198.85,154.61,198.29,154.61
		z"/>
	<path fill="#2B0D5C" d="M154.17,165.43c-0.55,0-1-0.45-1-1V78.39c0-0.55,0.45-1,1-1s1,0.45,1,1v86.04
		C155.17,164.98,154.72,165.43,154.17,165.43z"/>
	<path fill="#2B0D5C" d="M112.25,165.43c-0.55,0-1-0.45-1-1V78.39c0-0.55,0.45-1,1-1s1,0.45,1,1v86.04
		C113.25,164.98,112.8,165.43,112.25,165.43z"/>
	<g>
		<circle fill="#FFFFFF" cx="211.09" cy="223.99" r="27.51"/>
		<path fill="#2B0D5C" d="M211.09,252.5c-15.72,0-28.5-12.79-28.5-28.5s12.79-28.51,28.5-28.51s28.5,12.79,28.5,28.51
			S226.81,252.5,211.09,252.5z M211.09,197.49c-14.62,0-26.5,11.89-26.5,26.51s11.89,26.5,26.5,26.5s26.5-11.89,26.5-26.5
			S225.7,197.49,211.09,197.49z"/>
	</g>
	<g>
		<g>
			<path fill="#2B0D5C" d="M211.09,231.46c-0.55,0-1-0.45-1-1v-16.17c0-0.55,0.45-1,1-1s1,0.45,1,1v16.17
				C212.09,231.01,211.64,231.46,211.09,231.46z"/>
		</g>
		<path fill="#2B0D5C" d="M211.09,231.47L211.09,231.47c-0.29,0-0.56-0.13-0.75-0.34l-6.33-7.27c-0.36-0.42-0.32-1.05,0.1-1.41
			c0.42-0.36,1.05-0.32,1.41,0.1l5.57,6.41l5.58-6.38c0.37-0.42,1-0.46,1.41-0.09c0.42,0.36,0.46,1,0.09,1.41l-6.33,7.24
			C211.65,231.34,211.37,231.47,211.09,231.47z"/>
	</g>
	<path fill="#2B0D5C" d="M222.25,236.68h-22.32c-1.71,0-3.11-1.39-3.11-3.11v-2.3c0-0.55,0.45-1,1-1s1,0.45,1,1v2.3
		c0,0.61,0.5,1.11,1.11,1.11h22.32c0.61,0,1.11-0.5,1.11-1.11v-2.3c0-0.55,0.45-1,1-1s1,0.45,1,1v2.3
		C225.36,235.29,223.96,236.68,222.25,236.68z"/>
	<path fill="#2B0D5C" d="M154.17,182.3H71.44c-0.55,0-1-0.45-1-1s0.45-1,1-1h82.73c0.55,0,1,0.45,1,1S154.72,182.3,154.17,182.3z"/>
	<path fill="#2B0D5C" d="M125.07,199.19H70.5c-0.55,0-1-0.45-1-1s0.45-1,1-1h54.57c0.55,0,1,0.45,1,1S125.62,199.19,125.07,199.19z"
		/>
</g>
</svg>
