<?xml version="1.0" encoding="utf-8"?>
<!-- Generator: Adobe Illustrator 28.1.0, SVG Export Plug-In . SVG Version: 6.00 Build 0)  -->
<svg version="1.1" id="Layer_1" xmlns="http://www.w3.org/2000/svg" xmlns:xlink="http://www.w3.org/1999/xlink" x="0px" y="0px"
	 viewBox="0 0 300 300" enable-background="new 0 0 300 300" xml:space="preserve">
<g>
	<g>
		<rect x="88.02" y="69.69" fill="#86D4D3" width="151.12" height="176.49"/>
		<g>
			<rect x="99.06" y="89.55" fill="#FFFFFF" width="126.86" height="97.07"/>
			<path fill="#2B0D5C" d="M225.91,187.62H99.06c-0.55,0-1-0.45-1-1V89.55c0-0.55,0.45-1,1-1h126.86c0.55,0,1,0.45,1,1v97.07
				C226.91,187.17,226.46,187.62,225.91,187.62z M100.06,185.62h124.86V90.55H100.06V185.62z"/>
		</g>
		<path fill="#2B0D5C" d="M225.91,100.63H99.06c-0.55,0-1-0.45-1-1s0.45-1,1-1h126.86c0.55,0,1,0.45,1,1
			S226.46,100.63,225.91,100.63z"/>
		<path fill="#2B0D5C" d="M225.91,111.51H99.06c-0.55,0-1-0.45-1-1s0.45-1,1-1h126.86c0.55,0,1,0.45,1,1
			S226.46,111.51,225.91,111.51z"/>
		<path fill="#2B0D5C" d="M225.91,122.39H99.06c-0.55,0-1-0.45-1-1s0.45-1,1-1h126.86c0.55,0,1,0.45,1,1
			S226.46,122.39,225.91,122.39z"/>
		<path fill="#2B0D5C" d="M225.91,133.27H99.06c-0.55,0-1-0.45-1-1s0.45-1,1-1h126.86c0.55,0,1,0.45,1,1
			S226.46,133.27,225.91,133.27z"/>
		<path fill="#2B0D5C" d="M225.91,144.15H99.06c-0.55,0-1-0.45-1-1s0.45-1,1-1h126.86c0.55,0,1,0.45,1,1
			S226.46,144.15,225.91,144.15z"/>
		<path fill="#2B0D5C" d="M225.91,155.04H99.06c-0.55,0-1-0.45-1-1s0.45-1,1-1h126.86c0.55,0,1,0.45,1,1
			S226.46,155.04,225.91,155.04z"/>
		<path fill="#2B0D5C" d="M225.91,165.92H99.06c-0.55,0-1-0.45-1-1s0.45-1,1-1h126.86c0.55,0,1,0.45,1,1
			S226.46,165.92,225.91,165.92z"/>
		<path fill="#2B0D5C" d="M225.91,176.8H99.06c-0.55,0-1-0.45-1-1s0.45-1,1-1h126.86c0.55,0,1,0.45,1,1S226.46,176.8,225.91,176.8z"
			/>
		<path fill="#2B0D5C" d="M181.79,187.62c-0.55,0-1-0.45-1-1v-86.04c0-0.55,0.45-1,1-1s1,0.45,1,1v86.04
			C182.79,187.17,182.34,187.62,181.79,187.62z"/>
		<path fill="#2B0D5C" d="M139.87,187.62c-0.55,0-1-0.45-1-1v-86.04c0-0.55,0.45-1,1-1s1,0.45,1,1v86.04
			C140.87,187.17,140.42,187.62,139.87,187.62z"/>
		<path fill="#2B0D5C" d="M181.79,204.49H99.06c-0.55,0-1-0.45-1-1s0.45-1,1-1h82.73c0.55,0,1,0.45,1,1S182.34,204.49,181.79,204.49
			z"/>
		<path fill="#2B0D5C" d="M152.69,221.39H98.12c-0.55,0-1-0.45-1-1s0.45-1,1-1h54.57c0.55,0,1,0.45,1,1S153.24,221.39,152.69,221.39
			z"/>
	</g>
	<g>
		<g>
			<circle fill="#FFFFFF" cx="88.48" cy="79.44" r="27.62"/>
			<path fill="#2B0D5C" d="M88.48,108.06c-15.78,0-28.62-12.84-28.62-28.62s12.84-28.62,28.62-28.62s28.62,12.84,28.62,28.62
				S104.26,108.06,88.48,108.06z M88.48,52.81c-14.68,0-26.62,11.94-26.62,26.62s11.94,26.62,26.62,26.62
				c14.68,0,26.62-11.94,26.62-26.62S103.16,52.81,88.48,52.81z"/>
		</g>
		<g>
			<g>
				<path fill="#2B0D5C" d="M88.48,85.77c-0.55,0-1-0.45-1-1V68.52c0-0.55,0.45-1,1-1s1,0.45,1,1v16.24
					C89.48,85.32,89.03,85.77,88.48,85.77z"/>
			</g>
			<path fill="#2B0D5C" d="M94.83,76.82c-0.28,0-0.56-0.12-0.75-0.34l-5.6-6.44l-5.6,6.41c-0.36,0.42-1,0.46-1.41,0.09
				s-0.46-1-0.09-1.41l6.36-7.27c0.19-0.22,0.46-0.34,0.75-0.34c0,0,0,0,0,0c0.29,0,0.56,0.13,0.75,0.34l6.35,7.3
				c0.36,0.42,0.32,1.05-0.1,1.41C95.3,76.74,95.06,76.82,94.83,76.82z"/>
		</g>
		<path fill="#2B0D5C" d="M99.69,90.8H77.27c-1.72,0-3.12-1.4-3.12-3.12v-2.31c0-0.55,0.45-1,1-1s1,0.45,1,1v2.31
			c0,0.62,0.5,1.12,1.12,1.12h22.42c0.62,0,1.12-0.5,1.12-1.12v-2.31c0-0.55,0.45-1,1-1s1,0.45,1,1v2.31
			C102.8,89.4,101.4,90.8,99.69,90.8z"/>
	</g>
</g>
</svg>
