<?xml version="1.0" encoding="utf-8"?>
<!-- Generator: Adobe Illustrator 28.1.0, SVG Export Plug-In . SVG Version: 6.00 Build 0)  -->
<svg version="1.1" id="Layer_1" xmlns="http://www.w3.org/2000/svg" xmlns:xlink="http://www.w3.org/1999/xlink" x="0px" y="0px"
	 viewBox="0 0 300 300" enable-background="new 0 0 300 300" xml:space="preserve">
<g>
	<path fill="#2B0D5C" d="M253.88,118.08H46.12c-0.55,0-1-0.45-1-1V65.8c0-0.55,0.45-1,1-1h207.75c0.55,0,1,0.45,1,1v51.28
		C254.88,117.64,254.43,118.08,253.88,118.08z M47.12,116.08h205.75V66.8H47.12V116.08z"/>
	<g>
		<rect x="46.12" y="124.56" fill="#86D4D3" width="207.75" height="51.28"/>
		<path fill="#2B0D5C" d="M253.88,176.84H46.12c-0.55,0-1-0.45-1-1v-51.28c0-0.55,0.45-1,1-1h207.75c0.55,0,1,0.45,1,1v51.28
			C254.88,176.39,254.43,176.84,253.88,176.84z M47.12,174.84h205.75v-49.28H47.12V174.84z"/>
	</g>
	<path fill="#2B0D5C" d="M253.88,235.2H46.12c-0.55,0-1-0.45-1-1v-51.28c0-0.55,0.45-1,1-1h207.75c0.55,0,1,0.45,1,1v51.28
		C254.88,234.75,254.43,235.2,253.88,235.2z M47.12,233.2h205.75v-49.28H47.12V233.2z"/>
	<path fill="#2B0D5C" d="M201.88,90.44h-3.76v-3.76c0-0.55-0.45-1-1-1s-1,0.45-1,1v3.76h-3.76c-0.55,0-1,0.45-1,1s0.45,1,1,1h3.76
		v3.76c0,0.55,0.45,1,1,1s1-0.45,1-1v-3.76h3.76c0.55,0,1-0.45,1-1S202.43,90.44,201.88,90.44z"/>
	<path fill="#2B0D5C" d="M226.47,95.13c-2.03,0-3.68-1.65-3.68-3.68c0-2.03,1.65-3.68,3.68-3.68s3.68,1.65,3.68,3.68
		C230.15,93.47,228.5,95.13,226.47,95.13z M226.47,89.76c-0.93,0-1.68,0.76-1.68,1.68s0.75,1.68,1.68,1.68s1.68-0.76,1.68-1.68
		S227.4,89.76,226.47,89.76z"/>
	<path fill="#2B0D5C" d="M226.86,98.2c-0.12,0-0.24,0-0.36-0.01c-6.75-0.2-11.38-5.88-11.57-6.13c-0.31-0.38-0.29-0.93,0.04-1.29
		c3.75-4.16,7.77-6.2,12.02-6.08c6.75,0.2,11.38,5.88,11.57,6.12c0.31,0.38,0.29,0.93-0.04,1.3
		C234.87,96.15,230.95,98.2,226.86,98.2z M217.06,91.45c1.35,1.4,4.94,4.61,9.51,4.74c3.41,0.1,6.69-1.51,9.84-4.76
		c-1.35-1.4-4.94-4.61-9.51-4.74C223.57,86.61,220.22,88.2,217.06,91.45z"/>
	<path fill="#2B0D5C" d="M201.88,150.44h-3.76v-3.76c0-0.55-0.45-1-1-1s-1,0.45-1,1v3.76h-3.76c-0.55,0-1,0.45-1,1
		c0,0.55,0.45,1,1,1h3.76v3.76c0,0.55,0.45,1,1,1s1-0.45,1-1v-3.76h3.76c0.55,0,1-0.45,1-1
		C202.88,150.89,202.43,150.44,201.88,150.44z"/>
	<path fill="#2B0D5C" d="M226.47,155.13c-2.03,0-3.68-1.65-3.68-3.68c0-2.03,1.65-3.68,3.68-3.68s3.68,1.65,3.68,3.68
		C230.15,153.47,228.5,155.13,226.47,155.13z M226.47,149.76c-0.93,0-1.68,0.76-1.68,1.68s0.75,1.68,1.68,1.68s1.68-0.75,1.68-1.68
		S227.4,149.76,226.47,149.76z"/>
	<path fill="#2B0D5C" d="M226.86,158.2c-0.12,0-0.24,0-0.36-0.01c-6.75-0.2-11.38-5.88-11.57-6.12c-0.31-0.38-0.29-0.93,0.04-1.29
		c3.75-4.16,7.77-6.21,12.02-6.08c6.75,0.2,11.38,5.88,11.57,6.13c0.31,0.38,0.29,0.93-0.04,1.3
		C234.87,156.15,230.95,158.2,226.86,158.2z M217.06,151.46c1.35,1.4,4.94,4.61,9.51,4.74c3.38,0.06,6.69-1.51,9.84-4.76
		c-1.35-1.4-4.94-4.61-9.51-4.74C223.57,146.58,220.22,148.2,217.06,151.46z"/>
	<path fill="#B5B5B5" d="M202.88,207.44h-3.76v-3.76c0-0.55-0.45-1-1-1s-1,0.45-1,1v3.76h-3.76c-0.55,0-1,0.45-1,1s0.45,1,1,1h3.76
		v3.76c0,0.55,0.45,1,1,1s1-0.45,1-1v-3.76h3.76c0.55,0,1-0.45,1-1S203.43,207.44,202.88,207.44z"/>
	<path fill="#2B0D5C" d="M178.88,92.44h-60.68c-0.55,0-1-0.45-1-1s0.45-1,1-1h60.68c0.55,0,1,0.45,1,1S179.43,92.44,178.88,92.44z"
		/>
	<path fill="#2B0D5C" d="M178.88,152.44h-60.68c-0.55,0-1-0.45-1-1c0-0.55,0.45-1,1-1h60.68c0.55,0,1,0.45,1,1
		C179.88,152,179.43,152.44,178.88,152.44z"/>
	<path fill="#B5B5B5" d="M178.88,209.44h-60.68c-0.55,0-1-0.45-1-1s0.45-1,1-1h60.68c0.55,0,1,0.45,1,1S179.43,209.44,178.88,209.44
		z"/>
	<g>
		<circle fill="#2B0D5C" cx="78.62" cy="91.2" r="8.12"/>
		<path fill="#2B0D5C" d="M78.62,79.36c0.55,0,1-0.45,1-1v-4.28c0-0.55-0.45-1-1-1s-1,0.45-1,1v4.28
			C77.62,78.91,78.07,79.36,78.62,79.36z"/>
		<path fill="#2B0D5C" d="M78.62,103.04c-0.55,0-1,0.45-1,1v4.28c0,0.55,0.45,1,1,1s1-0.45,1-1v-4.28
			C79.62,103.49,79.18,103.04,78.62,103.04z"/>
		<path fill="#2B0D5C" d="M95.74,90.2h-4.28c-0.55,0-1,0.45-1,1s0.45,1,1,1h4.28c0.55,0,1-0.45,1-1S96.3,90.2,95.74,90.2z"/>
		<path fill="#2B0D5C" d="M66.79,91.2c0-0.55-0.45-1-1-1h-4.28c-0.55,0-1,0.45-1,1s0.45,1,1,1h4.28
			C66.34,92.2,66.79,91.75,66.79,91.2z"/>
		<path fill="#2B0D5C" d="M88.41,99.57c-0.39-0.39-1.02-0.39-1.41,0s-0.39,1.02,0,1.41l3.03,3.03c0.2,0.2,0.45,0.29,0.71,0.29
			s0.51-0.1,0.71-0.29c0.39-0.39,0.39-1.02,0-1.41L88.41,99.57z"/>
		<path fill="#2B0D5C" d="M68.84,82.83c0.2,0.2,0.45,0.29,0.71,0.29s0.51-0.1,0.71-0.29c0.39-0.39,0.39-1.02,0-1.41l-3.03-3.03
			c-0.39-0.39-1.02-0.39-1.41,0s-0.39,1.02,0,1.41L68.84,82.83z"/>
		<path fill="#2B0D5C" d="M68.84,99.57l-3.03,3.03c-0.39,0.39-0.39,1.02,0,1.41c0.2,0.2,0.45,0.29,0.71,0.29s0.51-0.1,0.71-0.29
			l3.03-3.03c0.39-0.39,0.39-1.02,0-1.41S69.23,99.18,68.84,99.57z"/>
		<path fill="#2B0D5C" d="M87.7,83.12c0.26,0,0.51-0.1,0.71-0.29l3.03-3.03c0.39-0.39,0.39-1.02,0-1.41s-1.02-0.39-1.41,0L87,81.41
			c-0.39,0.39-0.39,1.02,0,1.41C87.19,83.02,87.45,83.12,87.7,83.12z"/>
	</g>
	<g>
		<path fill="#2B0D5C" d="M94.4,153.51H71.29c-1.35,0-2.44-1.1-2.44-2.44v-4.78c0-1.35,1.1-2.44,2.44-2.44h17.45
			c1.31,2.75,3.01,4.82,3.14,4.97c0.19,0.23,0.47,0.36,0.77,0.36h0.1c0.29,0,0.57-0.13,0.76-0.35c0.19-0.22,4.65-5.48,4.65-10.58
			c0-0.89-0.16-1.76-0.46-2.56c-0.84-2.22-2.94-3.57-5.36-3.47c-2.34,0.11-4.23,1.61-4.83,3.82c-0.52,1.9-0.21,3.93,0.43,5.81H71.29
			c-2.45,0-4.44,1.99-4.44,4.44v4.78c0,2.45,1.99,4.44,4.44,4.44H94.4c1.35,0,2.44,1.1,2.44,2.44v3.16c0,1.35-1.1,2.44-2.44,2.44
			H64.64c-0.36-1.13-1.41-1.96-2.66-1.96c-1.55,0-2.8,1.26-2.8,2.8s1.26,2.8,2.8,2.8c1.13,0,2.1-0.68,2.54-1.64H94.4
			c2.45,0,4.44-1.99,4.44-4.44v-3.16C98.85,155.5,96.85,153.51,94.4,153.51z M89.42,136.55c0.45-1.65,1.84-2.29,3-2.35
			c0.05,0,0.11,0,0.16,0c1.15,0,2.62,0.56,3.23,2.18c0.22,0.58,0.33,1.21,0.33,1.86c0,3.22-2.26,6.73-3.45,8.35
			C91.31,144.67,88.46,140.12,89.42,136.55z"/>
		<path fill="#2B0D5C" d="M94.44,138.25c0-1-0.81-1.8-1.8-1.8c-1,0-1.8,0.81-1.8,1.8c0,1,0.81,1.8,1.8,1.8
			C93.63,140.05,94.44,139.24,94.44,138.25z"/>
	</g>
	<path fill="#B5B5B5" d="M108.52,218.58l-8.99-11.5c-0.31-0.4-0.87-0.5-1.3-0.24l-3.73,2.23l-7.6-9.5c-0.17-0.22-0.43-0.35-0.7-0.37
		c-0.28-0.02-0.55,0.07-0.75,0.26l-11.57,10.61l-5.55-1.8c-0.34-0.11-0.72-0.03-0.98,0.21l-10.89,9.98
		c-0.41,0.37-0.44,1.01-0.06,1.41c0.2,0.21,0.47,0.32,0.74,0.32c0.24,0,0.48-0.09,0.67-0.26l10.46-9.58l5.55,1.8
		c0.34,0.11,0.72,0.03,0.98-0.21l11.21-10.28l6.76,8.45l-13.78,8.24c-0.47,0.28-0.63,0.9-0.35,1.37c0.19,0.31,0.52,0.49,0.86,0.49
		c0.17,0,0.35-0.05,0.51-0.14l18.48-11.05l8.44,10.8c0.34,0.44,0.97,0.51,1.4,0.17C108.78,219.65,108.86,219.02,108.52,218.58z"/>
	<g>
		<path fill="#B5B5B5" d="M239.55,207.82c-0.18-0.23-4.54-5.58-10.95-6.09c-0.56-0.04-1.03,0.37-1.08,0.92
			c-0.04,0.55,0.37,1.03,0.92,1.08c4.31,0.35,7.68,3.37,8.97,4.71c-0.7,0.72-1.4,1.36-2.1,1.91c-0.43,0.34-0.51,0.97-0.17,1.4
			c0.2,0.25,0.49,0.38,0.79,0.38c0.22,0,0.43-0.07,0.62-0.21c1-0.79,2-1.73,2.97-2.8C239.84,208.75,239.86,208.2,239.55,207.82z"/>
		<path fill="#B5B5B5" d="M225.1,202.55c0-0.01-0.01-0.01-0.01-0.02l-4.19-4.98c-0.35-0.42-0.99-0.48-1.41-0.12
			c-0.42,0.36-0.48,0.99-0.12,1.41l3.28,3.9c-2.31,0.99-4.55,2.67-6.68,5.03c-0.33,0.36-0.34,0.91-0.04,1.29
			c0.06,0.08,5,6.12,11.97,6.12c1.42,0,2.93-0.27,4.49-0.88l2.97,3.53c0.2,0.23,0.48,0.36,0.77,0.36c0.23,0,0.46-0.08,0.64-0.24
			c0.42-0.36,0.48-0.99,0.12-1.41L225.1,202.55z M226.37,207.17l2.17,2.58c-0.3,0.25-0.67,0.38-1.07,0.38
			c-0.93,0-1.68-0.75-1.68-1.68C225.79,207.95,226.01,207.48,226.37,207.17z M218.06,208.46c1.93-1.99,3.92-3.36,5.94-4.11
			l1.08,1.29c-0.81,0.69-1.3,1.71-1.3,2.8c0,2.03,1.65,3.68,3.68,3.68c0.88,0,1.7-0.31,2.36-0.85l1.2,1.42
			C224.74,214.71,219.71,210.21,218.06,208.46z"/>
	</g>
</g>
</svg>
