<?xml version="1.0" encoding="utf-8"?>
<!-- Generator: Adobe Illustrator 28.1.0, SVG Export Plug-In . SVG Version: 6.00 Build 0)  -->
<svg version="1.1" id="Layer_1" xmlns="http://www.w3.org/2000/svg" xmlns:xlink="http://www.w3.org/1999/xlink" x="0px" y="0px"
	 viewBox="0 0 271 148" enable-background="new 0 0 271 148" xml:space="preserve">
<g>
	<g>
		<g>
			<polygon fill="#86D4D3" points="208.55,107.12 208.01,107.12 208.01,52.17 161.11,52.17 161.11,51.63 208.55,51.63 			"/>
			<g>
				<g>
					<rect x="217.41" y="114.14" fill="#FFFFFF" width="26.08" height="25.89"/>
					<path fill="#86D4D3" d="M243.76,140.29h-26.62v-26.42h26.62V140.29z M217.68,139.75h25.54V114.4h-25.54V139.75z"/>
				</g>
				<g>
					<rect x="174.96" y="114.14" fill="#FFFFFF" width="26.08" height="25.89"/>
					<path fill="#86D4D3" d="M201.31,140.29h-26.62v-26.42h26.62V140.29z M175.23,139.75h25.54V114.4h-25.54V139.75z"/>
				</g>
			</g>
			<path d="M230.58,133.75c-4.17,0-7.57-3.39-7.57-7.57c0-4.17,3.39-7.57,7.57-7.57c4.17,0,7.57,3.39,7.57,7.57
				C238.14,130.35,234.75,133.75,230.58,133.75z M230.58,118.88c-4.02,0-7.3,3.27-7.3,7.3c0,4.02,3.27,7.3,7.3,7.3s7.3-3.27,7.3-7.3
				C237.88,122.16,234.6,118.88,230.58,118.88z"/>
			<circle fill="#86D4D3" cx="230.58" cy="126.18" r="4.87"/>
			<path d="M230.58,128.37c-1.2,0-2.19-0.98-2.19-2.18c0-1.2,0.98-2.19,2.19-2.19c1.2,0,2.18,0.98,2.18,2.19
				C232.76,127.39,231.78,128.37,230.58,128.37z M230.58,124.27c-1.06,0-1.92,0.86-1.92,1.92c0,1.06,0.86,1.92,1.92,1.92
				s1.92-0.86,1.92-1.92C232.49,125.12,231.63,124.27,230.58,124.27z"/>
			<polygon fill="#86D4D3" points="231.66,114.14 231.12,114.14 231.12,107.49 188.29,107.49 188.29,114.14 187.75,114.14 
				187.75,106.95 231.66,106.95 			"/>
			<g>
				<polyline fill="#FFFFFF" points="177.8,121.64 177.8,133.61 198.27,133.61 				"/>
				<path fill="#4F33B3" d="M198.27,133.88H177.8c-0.15,0-0.27-0.12-0.27-0.27v-11.97c0-0.15,0.12-0.27,0.27-0.27
					s0.27,0.12,0.27,0.27v11.7h20.19c0.15,0,0.27,0.12,0.27,0.27C198.54,133.76,198.42,133.88,198.27,133.88z"/>
			</g>
			<path fill="#2B0D5C" d="M180.63,130.93c-0.08,0-0.15-0.03-0.21-0.1c-0.1-0.11-0.08-0.28,0.03-0.38l4.25-3.59
				c0.08-0.07,0.2-0.08,0.3-0.03l1.55,0.83l8.3-4.04c0.13-0.06,0.3-0.01,0.36,0.12c0.06,0.13,0.01,0.29-0.12,0.36l-8.42,4.1
				c-0.08,0.04-0.17,0.04-0.24,0l-1.51-0.81l-4.11,3.47C180.75,130.91,180.69,130.93,180.63,130.93z"/>
			<g>
				<path fill="#4F33B3" d="M180.43,134.61c-0.15,0-0.27-0.12-0.27-0.27v-0.72c0-0.15,0.12-0.27,0.27-0.27
					c0.15,0,0.27,0.12,0.27,0.27v0.72C180.7,134.49,180.58,134.61,180.43,134.61z"/>
			</g>
			<g>
				<path fill="#4F33B3" d="M183.66,134.61c-0.15,0-0.27-0.12-0.27-0.27v-0.72c0-0.15,0.12-0.27,0.27-0.27s0.27,0.12,0.27,0.27v0.72
					C183.93,134.49,183.81,134.61,183.66,134.61z"/>
			</g>
			<g>
				<path fill="#4F33B3" d="M186.9,134.61c-0.15,0-0.27-0.12-0.27-0.27v-0.72c0-0.15,0.12-0.27,0.27-0.27
					c0.15,0,0.27,0.12,0.27,0.27v0.72C187.17,134.49,187.04,134.61,186.9,134.61z"/>
			</g>
			<g>
				<path fill="#4F33B3" d="M190.13,134.61c-0.15,0-0.27-0.12-0.27-0.27v-0.72c0-0.15,0.12-0.27,0.27-0.27s0.27,0.12,0.27,0.27v0.72
					C190.4,134.49,190.28,134.61,190.13,134.61z"/>
			</g>
			<g>
				<path fill="#4F33B3" d="M193.36,134.61c-0.15,0-0.27-0.12-0.27-0.27v-0.72c0-0.15,0.12-0.27,0.27-0.27
					c0.15,0,0.27,0.12,0.27,0.27v0.72C193.63,134.49,193.51,134.61,193.36,134.61z"/>
			</g>
			<g>
				<path fill="#4F33B3" d="M196.59,134.61c-0.15,0-0.27-0.12-0.27-0.27v-0.72c0-0.15,0.12-0.27,0.27-0.27s0.27,0.12,0.27,0.27v0.72
					C196.86,134.49,196.74,134.61,196.59,134.61z"/>
			</g>
			<g>
				<path fill="#4F33B3" d="M177.67,131.6h-0.72c-0.15,0-0.27-0.12-0.27-0.27s0.12-0.27,0.27-0.27h0.72c0.15,0,0.27,0.12,0.27,0.27
					S177.82,131.6,177.67,131.6z"/>
			</g>
			<g>
				<path fill="#4F33B3" d="M177.67,128.91h-0.72c-0.15,0-0.27-0.12-0.27-0.27s0.12-0.27,0.27-0.27h0.72c0.15,0,0.27,0.12,0.27,0.27
					S177.82,128.91,177.67,128.91z"/>
			</g>
			<g>
				<path fill="#4F33B3" d="M177.67,126.21h-0.72c-0.15,0-0.27-0.12-0.27-0.27c0-0.15,0.12-0.27,0.27-0.27h0.72
					c0.15,0,0.27,0.12,0.27,0.27C177.94,126.09,177.82,126.21,177.67,126.21z"/>
			</g>
			<g>
				<path fill="#4F33B3" d="M177.67,123.52h-0.72c-0.15,0-0.27-0.12-0.27-0.27c0-0.15,0.12-0.27,0.27-0.27h0.72
					c0.15,0,0.27,0.12,0.27,0.27C177.94,123.4,177.82,123.52,177.67,123.52z"/>
			</g>
		</g>
		<g>
			<g>
				<rect x="57.57" y="28.06" fill="#FFFFFF" width="104.02" height="76.37"/>
				<path fill="#4F33B3" d="M161.59,104.7H57.57c-0.15,0-0.27-0.12-0.27-0.27V28.06c0-0.15,0.12-0.27,0.27-0.27h104.02
					c0.15,0,0.27,0.12,0.27,0.27v76.37C161.86,104.58,161.74,104.7,161.59,104.7z M57.84,104.17h103.48V28.33H57.84V104.17z"/>
			</g>
			<path fill="#86D4D3" d="M145.42,92.76H69.45c-0.15,0-0.27-0.12-0.27-0.27V40.01c0-0.15,0.12-0.27,0.27-0.27
				c0.15,0,0.27,0.12,0.27,0.27v52.21h75.71c0.15,0,0.27,0.12,0.27,0.27C145.69,92.64,145.57,92.76,145.42,92.76z"/>
			<g>
				<rect x="74.67" y="62.5" fill="#2B0D5C" width="10.31" height="29.99"/>
				<path fill="#2B0D5C" d="M85.11,92.62H74.54V62.37h10.58V92.62z M74.81,92.35h10.04V62.63H74.81V92.35z"/>
			</g>
			<g>
				<rect x="92.94" y="54.53" fill="#2B0D5C" width="10.31" height="37.95"/>
				<path fill="#2B0D5C" d="M103.39,92.62H92.81V54.4h10.58V92.62z M93.08,92.35h10.04V54.67H93.08V92.35z"/>
			</g>
			<g>
				<rect x="110.75" y="47.51" fill="#2B0D5C" width="10.31" height="44.98"/>
				<path fill="#2B0D5C" d="M121.19,92.62h-10.58V47.37h10.58V92.62z M110.88,92.35h10.04V47.64h-10.04V92.35z"/>
			</g>
			<g>
				<rect x="128.55" y="43.76" fill="#2B0D5C" width="10.31" height="48.73"/>
				<path fill="#2B0D5C" d="M139,92.62h-10.58v-49H139V92.62z M128.69,92.35h10.04V43.89h-10.04V92.35z"/>
			</g>
		</g>
		<g>
			<circle fill="#86D4D3" cx="53.12" cy="27.94" r="22.44"/>
			<path fill="#4F33B3" d="M65.44,38.78H43.76V11.91h21.68V38.78z M44.3,38.24h20.6v-25.8H44.3V38.24z"/>
			<rect x="40.88" y="15.7" fill="#FFFFFF" width="21.14" height="26.34"/>
			<g>
				<path fill="#4F33B3" d="M41.81,40.08c-1.64,0-3.27-0.71-4.39-2.08c-0.95-1.17-1.39-2.64-1.24-4.14c0.15-1.5,0.88-2.85,2.06-3.8
					c1.17-0.95,2.64-1.39,4.14-1.24c1.5,0.15,2.85,0.88,3.8,2.06l0,0c1.96,2.42,1.6,5.98-0.82,7.95
					C44.32,39.66,43.06,40.08,41.81,40.08z M41.8,29.32c-1.17,0-2.29,0.4-3.21,1.15c-1.06,0.86-1.72,2.08-1.86,3.44
					c-0.14,1.36,0.26,2.69,1.12,3.75c1.78,2.19,5,2.52,7.19,0.74c2.19-1.78,2.52-5,0.74-7.19l0,0c-0.86-1.06-2.08-1.72-3.44-1.86
					C42.15,29.33,41.97,29.32,41.8,29.32z"/>
				<g>
					<circle fill="#FFFFFF" cx="41.81" cy="34.43" r="3.89"/>
					<path fill="#4F33B3" d="M41.81,38.6c-0.14,0-0.29-0.01-0.44-0.02c-1.11-0.11-2.1-0.65-2.8-1.52c-1.45-1.78-1.18-4.41,0.6-5.86
						c1.78-1.45,4.41-1.18,5.86,0.6c1.45,1.78,1.18,4.41-0.6,5.86C43.68,38.27,42.77,38.6,41.81,38.6z M41.8,30.81
						c-0.8,0-1.61,0.27-2.28,0.81c-1.55,1.26-1.79,3.55-0.53,5.1c0.61,0.75,1.48,1.22,2.44,1.32c0.96,0.1,1.91-0.18,2.66-0.79
						c1.55-1.26,1.79-3.55,0.53-5.1C43.9,31.27,42.86,30.81,41.8,30.81z"/>
				</g>
				<path fill="#4F33B3" d="M50.18,46.13c-0.03,0-0.06,0-0.09,0c-0.22-0.02-0.43-0.13-0.57-0.31l-5.42-6.67l1.86-1.51l5.42,6.67
					c0.14,0.17,0.21,0.39,0.18,0.62c-0.02,0.22-0.13,0.43-0.31,0.57l-0.55,0.45C50.56,46.07,50.37,46.13,50.18,46.13z M44.86,39.23
					l5.08,6.25c0.05,0.06,0.12,0.1,0.2,0.11c0.08,0.01,0.16-0.02,0.22-0.07l0.55-0.45c0.06-0.05,0.1-0.12,0.11-0.2
					c0.01-0.08-0.02-0.16-0.07-0.22l-5.08-6.25L44.86,39.23z"/>
			</g>
			<g>
				<rect x="44.96" y="21.81" fill="#4F33B3" width="12.82" height="0.54"/>
			</g>
			<g>
				<rect x="44.96" y="24.78" fill="#4F33B3" width="12.82" height="0.54"/>
			</g>
			<g>
				<rect x="44.96" y="27.75" fill="#4F33B3" width="12.82" height="0.54"/>
			</g>
			<g>
				<rect x="49.78" y="30.72" fill="#4F33B3" width="8" height="0.54"/>
			</g>
			<g>
				<rect x="53.49" y="34.05" fill="#4F33B3" width="4.29" height="0.54"/>
			</g>
		</g>
		<g>
			<path fill="#FFFFFF" d="M105.35,57.45c0,0-1.42,17-10.39,25.51c0,0,10.86,4.72,21.73,2.36c0,0,7.09-8.5,8.97-25.98
				C125.66,59.34,115.27,59.81,105.35,57.45z"/>
			<path fill="#2B0D5C" d="M110.3,86.25c-8.34,0-15.36-3-15.45-3.04c-0.08-0.04-0.14-0.11-0.16-0.2c-0.02-0.09,0.01-0.18,0.08-0.24
				c8.8-8.34,10.29-25.16,10.31-25.33c0.01-0.08,0.05-0.15,0.11-0.2c0.06-0.05,0.14-0.06,0.22-0.04c9.77,2.33,20.13,1.89,20.24,1.88
				c0.08-0.01,0.15,0.03,0.21,0.08c0.05,0.06,0.08,0.14,0.07,0.21c-1.88,17.36-8.96,26.04-9.04,26.12
				c-0.04,0.05-0.09,0.08-0.15,0.09C114.57,86.06,112.4,86.25,110.3,86.25z M95.44,82.87c2,0.79,11.59,4.24,21.09,2.21
				c0.67-0.85,7.01-9.3,8.82-25.46c-1.8,0.05-10.98,0.2-19.77-1.84C105.34,60.12,103.47,74.95,95.44,82.87z"/>
		</g>
		<g>
			<path fill="#FFFFFF" d="M126.4,24.14c0,0,3.29,18.65,1.46,25.24c0,0,12.8-1.46,19.39-5.49c0,0,2.19-13.17-0.73-24.51L126.4,24.14
				z"/>
			<path fill="#2B0D5C" d="M127.87,49.64c-0.08,0-0.15-0.03-0.2-0.09c-0.06-0.07-0.08-0.16-0.05-0.25
				c1.79-6.45-1.44-24.93-1.47-25.12c-0.02-0.14,0.06-0.28,0.2-0.31l20.12-4.76c0.14-0.03,0.29,0.05,0.32,0.19
				c2.91,11.26,0.76,24.49,0.74,24.62c-0.01,0.08-0.06,0.14-0.13,0.19c-6.56,4.01-19.37,5.51-19.5,5.52
				C127.89,49.64,127.88,49.64,127.87,49.64z M126.71,24.34c0.39,2.29,3.03,18.22,1.51,24.72c2.18-0.28,12.94-1.83,18.78-5.34
				c0.21-1.34,1.96-13.5-0.68-24.02L126.71,24.34z"/>
		</g>
		<g>
			<polygon fill="#86D4D3" points="165.03,45.11 145.04,33.18 145.31,32.72 164.82,44.36 180.91,14.15 203.58,23.45 203.37,23.94 
				181.15,14.83 			"/>
			<circle fill="#2B0D5C" cx="203.55" cy="23.86" r="2.14"/>
			<circle fill="#2B0D5C" cx="181.2" cy="14.66" r="2.14"/>
			<circle fill="#2B0D5C" cx="165.09" cy="44.24" r="2.14"/>
			<circle fill="#2B0D5C" cx="145.03" cy="32.74" r="2.14"/>
		</g>
		<g>
			<g>
				<path fill="#86D4D3" d="M50.38,139.74H27.24l9.4-31.24c2.93-8.35,8.49-11.57,11.57-11.57h0c0.16,0,0.32,0,0.48,0.01
					c7.33,0.3,12.3,7.63,10.14,14.64L50.38,139.74z"/>
				<g>
					<path fill="#FFFFFF" d="M87.68,130.26c0,0,10.82,0.82,12.93,6.9l-14.14-0.01L87.68,130.26z"/>
					<path fill="#2B0D5C" d="M100.61,137.46L100.61,137.46l-14.14-0.01c-0.09,0-0.18-0.04-0.23-0.11c-0.06-0.07-0.08-0.16-0.07-0.25
						l1.21-6.89c0.03-0.15,0.17-0.26,0.32-0.25c0.45,0.03,11.04,0.91,13.2,7.1c0.03,0.09,0.02,0.2-0.04,0.28
						C100.8,137.41,100.71,137.46,100.61,137.46z M86.83,136.85l13.33,0.01c-2.14-4.94-10.6-6.08-12.23-6.26L86.83,136.85z"/>
				</g>
				<g>
					<circle fill="#FFFFFF" cx="57.68" cy="82.43" r="12.27"/>
					<path fill="#2B0D5C" d="M57.68,95.01c-6.94,0-12.58-5.64-12.58-12.58s5.64-12.58,12.58-12.58c6.94,0,12.58,5.64,12.58,12.58
						S64.62,95.01,57.68,95.01z M57.68,70.46c-6.6,0-11.97,5.37-11.97,11.97c0,6.6,5.37,11.97,11.97,11.97s11.97-5.37,11.97-11.97
						C69.65,75.83,64.28,70.46,57.68,70.46z"/>
				</g>
				<path fill="#2B0D5C" d="M86.47,137.46C86.47,137.46,86.47,137.46,86.47,137.46l-23.86-0.1c-5.77-0.23-10.48-3.97-13.64-10.82
					c-2.37-5.13-3.04-10.27-3.05-10.32l-0.2-1.25c-0.03-0.17,0.09-0.32,0.25-0.35c0.17-0.03,0.32,0.09,0.35,0.25l0.2,1.26
					c0.03,0.21,2.73,20.09,16.1,20.62l23.59,0.1l1.31-7.48H69.88c-1.11,0-2.2-0.17-3.24-0.51c-3.6-1.16-9.62-4.35-9.53-12.69
					c0-0.17,0.14-0.3,0.31-0.3c0,0,0,0,0,0c0.17,0,0.3,0.14,0.3,0.31c-0.09,7.94,5.67,10.99,9.1,12.1c0.98,0.32,2.01,0.48,3.05,0.48
					h18.01c0.09,0,0.18,0.04,0.23,0.11c0.06,0.07,0.08,0.16,0.07,0.25l-1.42,8.09C86.75,137.35,86.62,137.46,86.47,137.46z"/>
			</g>
			<path fill="#2B0D5C" d="M38,140.04c-0.03,0-0.06,0-0.09-0.02c-0.16-0.05-0.25-0.22-0.2-0.38l15-45.85
				c0.05-0.16,0.22-0.25,0.39-0.2c0.16,0.05,0.25,0.22,0.2,0.38l-15,45.85C38.25,139.96,38.13,140.04,38,140.04z"/>
			<g>
				<polygon fill="#FFFFFF" points="128.92,139.9 78.53,139.9 77.44,137.16 128.92,137.16 				"/>
				<path fill="#2B0D5C" d="M128.92,140.2H78.53c-0.12,0-0.24-0.08-0.28-0.19l-1.1-2.74c-0.04-0.09-0.03-0.2,0.03-0.28
					s0.15-0.13,0.25-0.13h51.48c0.17,0,0.31,0.14,0.31,0.31v2.74C129.23,140.07,129.09,140.2,128.92,140.2z M78.74,139.59h49.88
					v-2.13H77.89L78.74,139.59z"/>
			</g>
			<g>
				<polygon fill="#FFFFFF" points="94.42,137.16 102.08,111.97 136.88,111.97 128.9,137.16 				"/>
				<path fill="#2B0D5C" d="M128.9,137.46H94.42c-0.1,0-0.19-0.05-0.25-0.12c-0.06-0.08-0.07-0.18-0.05-0.27l7.67-25.19
					c0.04-0.13,0.16-0.22,0.29-0.22h34.8c0.1,0,0.19,0.05,0.25,0.12c0.06,0.08,0.07,0.18,0.04,0.27l-7.98,25.19
					C129.16,137.38,129.04,137.46,128.9,137.46z M94.83,136.85h33.85l7.78-24.58h-34.15L94.83,136.85z"/>
			</g>
		</g>
	</g>
</g>
<g>
	<g>
		<circle fill="#FFFFFF" cx="207.82" cy="78.87" r="16.69"/>
		<g>
			<g>
				<circle fill="#D3D3D3" cx="199.59" cy="64.52" r="0.42"/>
				<circle fill="#D3D3D3" cx="200.99" cy="64.52" r="0.42"/>
				<circle fill="#D3D3D3" cx="202.38" cy="64.52" r="0.42"/>
				<circle fill="#D3D3D3" cx="198.19" cy="65.93" r="0.42"/>
				<circle fill="#D3D3D3" cx="199.59" cy="65.93" r="0.42"/>
				<circle fill="#D3D3D3" cx="200.99" cy="65.93" r="0.42"/>
				<circle fill="#D3D3D3" cx="202.38" cy="65.93" r="0.42"/>
				<circle fill="#D3D3D3" cx="203.74" cy="64.52" r="0.42"/>
				<circle fill="#D3D3D3" cx="203.74" cy="65.93" r="0.42"/>
				<circle fill="#D3D3D3" cx="205.07" cy="65.93" r="0.42"/>
				<circle fill="#D3D3D3" cx="207.86" cy="67.33" r="0.42"/>
				<circle fill="#D3D3D3" cx="210.65" cy="67.33" r="0.42"/>
				<circle fill="#D3D3D3" cx="212.06" cy="67.33" r="0.42"/>
				<circle fill="#D3D3D3" cx="213.42" cy="67.33" r="0.42"/>
				<circle fill="#D3D3D3" cx="214.74" cy="67.33" r="0.42"/>
				<circle fill="#D3D3D3" cx="216.14" cy="67.33" r="0.42"/>
				<circle fill="#D3D3D3" cx="217.54" cy="67.33" r="0.42"/>
				<circle fill="#D3D3D3" cx="218.93" cy="67.33" r="0.42"/>
				<circle fill="#D3D3D3" cx="194.11" cy="70.14" r="0.42"/>
				<circle fill="#D3D3D3" cx="195.47" cy="70.14" r="0.42"/>
				<circle fill="#D3D3D3" cx="196.8" cy="70.14" r="0.42"/>
				<circle fill="#D3D3D3" cx="198.19" cy="70.14" r="0.42"/>
				<circle fill="#D3D3D3" cx="199.59" cy="70.14" r="0.42"/>
				<circle fill="#D3D3D3" cx="200.99" cy="70.14" r="0.42"/>
				<circle fill="#D3D3D3" cx="202.38" cy="70.14" r="0.42"/>
				<circle fill="#D3D3D3" cx="203.74" cy="70.14" r="0.42"/>
				<circle fill="#D3D3D3" cx="205.07" cy="70.14" r="0.42"/>
				<circle fill="#D3D3D3" cx="206.46" cy="70.14" r="0.42"/>
				<circle fill="#D3D3D3" cx="207.86" cy="70.14" r="0.42"/>
				<circle fill="#D3D3D3" cx="209.26" cy="70.14" r="0.42"/>
				<circle fill="#D3D3D3" cx="210.65" cy="70.14" r="0.42"/>
				<circle fill="#D3D3D3" cx="212.06" cy="70.14" r="0.42"/>
				<circle fill="#D3D3D3" cx="213.42" cy="70.14" r="0.42"/>
				<circle fill="#D3D3D3" cx="214.74" cy="70.14" r="0.42"/>
				<circle fill="#D3D3D3" cx="216.14" cy="70.14" r="0.42"/>
				<circle fill="#D3D3D3" cx="217.54" cy="70.14" r="0.42"/>
				<circle fill="#D3D3D3" cx="218.93" cy="70.14" r="0.42"/>
				<circle fill="#D3D3D3" cx="220.33" cy="70.14" r="0.42"/>
				<circle fill="#D3D3D3" cx="221.69" cy="70.14" r="0.42"/>
				<circle fill="#D3D3D3" cx="194.11" cy="71.54" r="0.42"/>
				<circle fill="#D3D3D3" cx="195.47" cy="71.54" r="0.42"/>
				<circle fill="#D3D3D3" cx="196.8" cy="71.54" r="0.42"/>
				<circle fill="#D3D3D3" cx="198.19" cy="71.54" r="0.42"/>
				<circle fill="#D3D3D3" cx="199.59" cy="71.54" r="0.42"/>
				<circle fill="#D3D3D3" cx="200.99" cy="71.54" r="0.42"/>
				<circle fill="#D3D3D3" cx="202.38" cy="71.54" r="0.42"/>
				<circle fill="#D3D3D3" cx="207.86" cy="68.74" r="0.42"/>
				<circle fill="#D3D3D3" cx="209.26" cy="68.74" r="0.42"/>
				<circle fill="#D3D3D3" cx="210.65" cy="68.74" r="0.42"/>
				<circle fill="#D3D3D3" cx="203.74" cy="71.54" r="0.42"/>
				<circle fill="#D3D3D3" cx="205.07" cy="71.54" r="0.42"/>
				<circle fill="#D3D3D3" cx="206.46" cy="71.54" r="0.42"/>
				<circle fill="#D3D3D3" cx="207.86" cy="71.54" r="0.42"/>
				<circle fill="#D3D3D3" cx="209.26" cy="71.54" r="0.42"/>
				<circle fill="#D3D3D3" cx="210.65" cy="71.54" r="0.42"/>
				<circle fill="#D3D3D3" cx="212.06" cy="68.74" r="0.42"/>
				<circle fill="#D3D3D3" cx="212.06" cy="71.54" r="0.42"/>
				<circle fill="#D3D3D3" cx="213.42" cy="68.74" r="0.42"/>
				<circle fill="#D3D3D3" cx="214.74" cy="68.74" r="0.42"/>
				<circle fill="#D3D3D3" cx="216.14" cy="68.74" r="0.42"/>
				<circle fill="#D3D3D3" cx="217.54" cy="68.74" r="0.42"/>
				<circle fill="#D3D3D3" cx="218.93" cy="68.74" r="0.42"/>
				<circle fill="#D3D3D3" cx="220.33" cy="68.74" r="0.42"/>
				<circle fill="#D3D3D3" cx="213.42" cy="71.54" r="0.42"/>
				<circle fill="#D3D3D3" cx="214.74" cy="71.54" r="0.42"/>
				<circle fill="#D3D3D3" cx="216.14" cy="71.54" r="0.42"/>
				<circle fill="#D3D3D3" cx="217.54" cy="71.54" r="0.42"/>
				<circle fill="#D3D3D3" cx="218.93" cy="71.54" r="0.42"/>
				<circle fill="#D3D3D3" cx="220.33" cy="71.54" r="0.42"/>
				<circle fill="#D3D3D3" cx="221.69" cy="71.54" r="0.42"/>
				<circle fill="#D3D3D3" cx="196.8" cy="67.33" r="0.42"/>
				<circle fill="#D3D3D3" cx="198.19" cy="67.33" r="0.42"/>
				<circle fill="#D3D3D3" cx="199.59" cy="67.33" r="0.42"/>
				<circle fill="#D3D3D3" cx="200.99" cy="67.33" r="0.42"/>
				<circle fill="#D3D3D3" cx="202.38" cy="67.33" r="0.42"/>
				<circle fill="#D3D3D3" cx="195.47" cy="68.74" r="0.42"/>
				<circle fill="#D3D3D3" cx="196.8" cy="68.74" r="0.42"/>
				<circle fill="#D3D3D3" cx="198.19" cy="68.74" r="0.42"/>
				<circle fill="#D3D3D3" cx="199.59" cy="68.74" r="0.42"/>
				<circle fill="#D3D3D3" cx="200.99" cy="68.74" r="0.42"/>
				<circle fill="#D3D3D3" cx="202.38" cy="68.74" r="0.42"/>
				<circle fill="#D3D3D3" cx="203.74" cy="67.33" r="0.42"/>
				<circle fill="#D3D3D3" cx="205.07" cy="67.33" r="0.42"/>
				<circle fill="#D3D3D3" cx="206.46" cy="67.33" r="0.42"/>
				<circle fill="#D3D3D3" cx="203.74" cy="68.74" r="0.42"/>
				<circle fill="#D3D3D3" cx="205.07" cy="68.74" r="0.42"/>
				<circle fill="#D3D3D3" cx="206.46" cy="68.74" r="0.42"/>
				<circle fill="#D3D3D3" cx="192.72" cy="72.95" r="0.42"/>
				<circle fill="#D3D3D3" cx="194.11" cy="72.95" r="0.42"/>
				<circle fill="#D3D3D3" cx="192.72" cy="74.35" r="0.42"/>
				<circle fill="#D3D3D3" cx="194.12" cy="74.35" r="0.42"/>
				<circle fill="#D3D3D3" cx="192.72" cy="75.76" r="0.42"/>
				<circle fill="#D3D3D3" cx="194.12" cy="75.76" r="0.42"/>
				<circle fill="#D3D3D3" cx="195.47" cy="72.95" r="0.42"/>
				<circle fill="#D3D3D3" cx="196.8" cy="72.95" r="0.42"/>
				<circle fill="#D3D3D3" cx="198.19" cy="72.95" r="0.42"/>
				<circle fill="#D3D3D3" cx="195.47" cy="74.35" r="0.42"/>
				<circle fill="#D3D3D3" cx="196.8" cy="74.35" r="0.42"/>
				<circle fill="#D3D3D3" cx="198.19" cy="74.35" r="0.42"/>
				<circle fill="#D3D3D3" cx="195.47" cy="75.76" r="0.42"/>
				<circle fill="#D3D3D3" cx="192.72" cy="77.16" r="0.42"/>
				<circle fill="#D3D3D3" cx="194.11" cy="77.16" r="0.42"/>
				<circle fill="#D3D3D3" cx="195.47" cy="77.16" r="0.42"/>
				<circle fill="#D3D3D3" cx="203.74" cy="63.12" r="0.42"/>
				<circle fill="#D3D3D3" cx="205.07" cy="63.12" r="0.42"/>
				<circle fill="#D3D3D3" cx="206.46" cy="63.12" r="0.42"/>
				<circle fill="#D3D3D3" cx="207.86" cy="63.12" r="0.42"/>
				<circle fill="#D3D3D3" cx="209.26" cy="63.12" r="0.42"/>
				<circle fill="#D3D3D3" cx="210.65" cy="63.12" r="0.42"/>
				<circle fill="#D3D3D3" cx="205.07" cy="64.52" r="0.42"/>
				<circle fill="#D3D3D3" cx="206.46" cy="64.52" r="0.42"/>
				<circle fill="#D3D3D3" cx="207.86" cy="64.52" r="0.42"/>
				<circle fill="#D3D3D3" cx="209.26" cy="64.52" r="0.42"/>
				<circle fill="#D3D3D3" cx="210.65" cy="64.52" r="0.42"/>
				<circle fill="#D3D3D3" cx="206.46" cy="65.93" r="0.42"/>
				<circle fill="#D3D3D3" cx="207.86" cy="65.93" r="0.42"/>
				<circle fill="#D3D3D3" cx="209.26" cy="65.93" r="0.42"/>
				<circle fill="#D3D3D3" cx="210.65" cy="65.93" r="0.42"/>
				<circle fill="#D3D3D3" cx="209.26" cy="67.33" r="0.42"/>
				<circle fill="#D3D3D3" cx="212.06" cy="63.12" r="0.42"/>
				<circle fill="#D3D3D3" cx="212.06" cy="64.52" r="0.42"/>
				<circle fill="#D3D3D3" cx="212.06" cy="65.93" r="0.42"/>
				<circle fill="#D3D3D3" cx="213.42" cy="64.52" r="0.42"/>
				<circle fill="#D3D3D3" cx="214.74" cy="64.52" r="0.42"/>
				<circle fill="#D3D3D3" cx="213.42" cy="65.93" r="0.42"/>
				<circle fill="#D3D3D3" cx="214.74" cy="65.93" r="0.42"/>
				<circle fill="#D3D3D3" cx="216.14" cy="65.93" r="0.42"/>
				<circle fill="#D3D3D3" cx="217.54" cy="65.93" r="0.42"/>
			</g>
			<g>
				<g>
					<g>
						<g>
							<path fill="#D8D8D8" d="M195.59,83.26c-0.06-0.1-0.04-0.1-0.1-0.15s-0.35-0.2-0.49-0.27c-0.14-0.08-0.25-0.09-0.55-0.2
								c-0.3-0.11-0.28-0.28-0.28-0.35c0-0.07-0.16-0.31-0.29-0.33s-0.49,0.29-0.49,0.29l-0.3,0.17l-0.31,0.03c0,0-0.33,0-0.87,0.15
								c0,0,0,0,0,0c0.01,0.19,0.02,0.37,0.03,0.56c0,0.05,0.01,0.1,0.02,0.16c0,0.01,0,0.02,0,0.03c0.06,0.32,0.12,0.64,0.21,0.96
								c0.17,0.66,0.4,1.29,0.65,1.92c0.03,0.06,0.05,0.12,0.08,0.17c0.24-0.06,0.46-0.12,0.46-0.12l0.05-0.06l0.13-0.18l0.1-0.06
								c0,0,0.12-0.06,0.24-0.13c0.12-0.07,0.21-0.17,0.21-0.17l0.29-0.34l0.21-0.28l0.09-0.2l0.16-0.21c0,0,0.24-0.29,0.31-0.36
								s0.22-0.14,0.22-0.14l0.3-0.37C195.67,83.77,195.65,83.36,195.59,83.26z"/>
						</g>
						<g>
							<path fill="#D8D8D8" d="M223.1,72.16c-0.23-0.31-0.44-0.63-0.62-0.96c-0.32,0.11-0.67,0.12-1.02,0.1
								c-0.63-0.04-1.26-0.13-1.89-0.15c-1.2-0.04-2.38,0.15-3.57,0c-1.23-0.16-2.4-0.58-3.5-1.14c-0.71-0.36-1.38-0.81-2.07-1.19
								c-1.59-0.88-3.32-1.77-5.14-2.05c-0.37-0.06-0.76-0.08-1.14-0.03c-0.12,0.02-0.27,0.08-0.4,0.11
								c0.01,0.06,0.01,0.16,0.01,0.18c0.04,0.27,0.13,0.6-0.17,0.74c-0.21,0.1-0.45,0.11-0.67,0.16c-0.17,0.04-0.31,0.14-0.49,0.17
								c-0.92,0.19-1.86-0.13-2.78-0.06c-0.4,0.03-0.85,0.2-1.08,0.55c-0.2,0.31-0.22,0.74-0.27,1.1v0.01c0,0,0,0,0,0c0,0,0,0,0,0
								c-0.01,0.44-0.01,0.88-0.03,1.32c-0.01,0.17,0,0.39-0.05,0.56c0.05,0.16,0.11,0.32,0.15,0.47c0.04,0,0.08,0,0.11,0
								c0,0-0.3,1.39-0.52,3.06c-0.21,1.67-1.67,0.21-1.61,1.26c0.06,1.05-1,0.83-2.42,0.36c-1.41-0.47-1.9-0.46-1.9-0.46
								c-0.16-0.02-0.32-0.01-0.47,0.01c-0.16,0.69-0.35,1.37-0.5,2.08c-0.02,0.08-0.07,0.38-0.07,0.39
								c-0.03,0.22-0.06,0.44-0.09,0.66c0,0.01-0.02,0.15-0.03,0.25c0.06,0.09,0.11,0.17,0.19,0.27c0.36,0.45,0.83,0.37,0.83,0.37
								l0.4,0.38c0,0,0.44,0.22,1.05,0.17c0.61-0.05,0.77-0.23,0.83-0.14c0.06,0.09,0.05,0.46,0.05,0.46l0.71,0.36
								c0,0,0.8,0.2,2.41,0.24c1.62,0.04,2.42,0.58,2.42,0.58l0.18,0.2l0.21,0.1l0.11,0.14l0.63,0.27c0,0,0.45-0.06,0.46,0.09
								c0.01,0.14-0.24,0.21-0.24,0.21l-0.39,0.2c0,0,0.08,0.22,0.21,0.31s0.8,0.59,0.8,0.59l0.38-0.37c0,0,0.01-0.64,0.25-0.62
								c0.24,0.02,0.16,0.44,0.16,0.44s0.03,1.53,0.17,1.99c0.14,0.46,0.68,1.26,0.68,1.26s0.87,2.98,0.92,3.15
								c0.05,0.17,0.55,0.97,0.73,1.26c0.17,0.29,0.21,0,0.22-0.07c0.02-0.07,0.1-0.27,0.19-0.46c0.09-0.19,0.27-0.29,0.52-0.48
								c0.25-0.19,0.11-0.49,0.3-0.54c0.19-0.05,0.24-1.94,0.28-2.16c0.05-0.22,0-0.6,0-0.6s0.55-0.2,0.76-0.31s0.46-0.48,0.59-0.68
								s0.71-0.54,0.71-0.54s0.49-0.46,0.6-0.6c0.11-0.14,0.24-0.19,0.54-0.31c0.3-0.12,0.5-0.9,0.51-0.94
								c0.02-0.04,0.44-0.31,0.55-0.35c0.11-0.04,0.33-0.46,0.33-0.46s-0.06,0.51,0.09,0.54c0.16,0.03,1.08-0.31,1.08-0.31l0.6,0.58
								c0,0,0.22,0.65,0.97,1.31c0.74,0.66,0.1,0.92,0.22,1.29c0.13,0.37,0.89,0,1.01,0.14c0.13,0.14,0.67,0.03,0.67,0.03
								s0.43,1.26,0.44,1.38s0.3,0.54,0.3,0.54l-0.33,2.5c0,0,0.57,0.88,0.79,1.26c0.03,0.05,0.06,0.13,0.09,0.21
								c0.19-0.15,0.38-0.31,0.58-0.45c-0.19-0.17-0.36-0.33-0.43-0.45c-0.24-0.39-0.46-0.69-0.46-0.69l-0.12-0.66l0.11-0.93
								c0,0,0.08-0.23,0.15-0.19c0.07,0.04,0.17-0.17,0.27-0.3c0.1-0.13,0.01-0.35,0.01-0.35l0.18-0.06c0,0,0.12,0.11,0.17,0.24
								c0.05,0.13,0.32,0.05,0.53,0.13c0.21,0.08,0.24,0.01,0.4,0.16c0.16,0.15,0.11,0.18,0.26,0.57c0.15,0.4,0.2,0.3,0.46,0.47
								c0.26,0.17,0.24,0.06,0.24,0.06s0.27,0,0.34,0.05c0.07,0.05-0.12,0.32-0.12,0.32s0.01,0.06,0.02,0.13
								c0.23-0.24,0.47-0.48,0.72-0.7c0.45-0.74,0.9-1.48,1.36-2.22c-0.03-0.07-0.04-0.07-0.04-0.07L221.16,87
								c0,0-0.67-1.14-0.92-1.36c-0.26-0.22,0.04-0.75,0.04-0.75s0.63-0.61,0.74-0.63c0.11-0.02-0.35-0.24-0.4-0.27
								c-0.05-0.03,0.35-0.2,0.35-0.2l1.35,0.02c0,0,0.61-0.17,1.16-0.35c0.09-0.39,0.21-0.78,0.36-1.15
								c0.05-0.19,0.14-0.35,0.24-0.51c0.06-1.78,0.14-3.56,0.3-5.34c-0.13-0.7-0.29-1.39-0.47-2.09
								C223.55,73.65,223.27,72.93,223.1,72.16z"/>
						</g>
					</g>
				</g>
			</g>
			<g>
				<path fill="#2B0D5C" d="M201.26,83.97c0.17,0.08,0.33,0.07,0.49-0.02c0.04-0.02,0.09-0.05,0.14-0.08
					c-0.05,0.19-0.26,0.34-0.44,0.33c-0.05,0-0.09-0.02-0.12-0.08c-0.03-0.07-0.09-0.08-0.15-0.04c-0.07,0.04-0.09,0.11-0.06,0.2
					c0.03,0.08,0.08,0.14,0.13,0.2c0.16,0.18,0.35,0.32,0.55,0.46c0.17,0.12,0.36,0.16,0.56,0.12c0.15-0.03,0.29-0.08,0.38-0.21
					c0.1-0.16,0.15-0.35,0.12-0.54c0-0.02-0.02-0.05,0.01-0.07c0.03-0.02,0.07-0.02,0.11,0c0.03,0.02,0.03,0.05,0.02,0.07
					c-0.01,0.06-0.03,0.11-0.04,0.17c-0.03,0.14-0.05,0.28,0.02,0.41c0.11,0.21,0.11,0.42,0.02,0.64c-0.07,0.16-0.04,0.3,0.09,0.41
					c0.05,0.04,0.06,0.1,0.04,0.16c-0.01,0.04-0.02,0.08-0.05,0.11c-0.08,0.11-0.08,0.23-0.05,0.35c0.02,0.06,0.03,0.13,0.06,0.19
					c0.12,0.34,0.26,0.68,0.37,1.03c0.02,0.07,0.05,0.14,0.09,0.21c0.07,0.12,0.16,0.23,0.24,0.35c0.12,0.18,0.14,0.38,0.18,0.59
					c0.07,0.44,0.23,0.84,0.53,1.18c0.08,0.08,0.13,0.18,0.18,0.28c0.11,0.25,0.18,0.51,0.24,0.78c0.06,0.23,0.17,0.44,0.37,0.58
					c0.23,0.16,0.54,0.05,0.63-0.21c0.02-0.05,0.04-0.1,0.06-0.16c0.02-0.1,0.08-0.14,0.18-0.15c0.09,0,0.18-0.03,0.26-0.05
					c0.04-0.01,0.07-0.03,0.08-0.07c0-0.04-0.03-0.06-0.06-0.08c-0.03-0.01-0.06-0.02-0.09-0.05c0.01-0.01,0.02-0.02,0.03-0.02
					c0.12-0.07,0.18-0.16,0.16-0.31c-0.01-0.04,0.01-0.05,0.05-0.05c0.07,0,0.13,0.04,0.19,0.03c0.07,0,0.1-0.05,0.07-0.11
					c-0.01-0.02-0.02-0.03-0.03-0.05c-0.05-0.07-0.05-0.14-0.01-0.21c0.05-0.08,0.04-0.14-0.03-0.2c-0.08-0.06-0.08-0.14-0.05-0.22
					c0.05-0.16,0.13-0.3,0.22-0.44c0.07-0.11,0.1-0.23,0.05-0.35c-0.01-0.02-0.01-0.05-0.02-0.08c-0.05-0.28-0.05-0.57-0.06-0.85
					c0-0.11,0.03-0.22,0.09-0.31c0.06-0.11,0.08-0.11,0.16-0.01c0,0.01,0.01,0.01,0.01,0.02c0.04,0.05,0.1,0.04,0.13-0.01
					c0.01-0.03,0.02-0.06,0.03-0.09c0.02-0.06,0.02-0.13,0.05-0.19c0.03-0.06,0.06-0.09,0.13-0.08c0.14,0.02,0.27,0,0.39-0.08
					c0.09-0.05,0.13-0.13,0.11-0.24c-0.02-0.11,0-0.16,0.11-0.21c0.08-0.04,0.15-0.07,0.23-0.1c0.26-0.11,0.46-0.27,0.57-0.55
					c0.06-0.16,0.17-0.3,0.3-0.41c0.29-0.26,0.59-0.49,0.9-0.72c0.05-0.04,0.11-0.07,0.15-0.13c0.05-0.07,0.05-0.13-0.01-0.19
					c-0.06-0.07-0.07-0.11-0.03-0.2c0.08-0.16,0.22-0.27,0.36-0.37c0.02-0.02,0.04-0.02,0.03,0.02c-0.01,0.08,0.04,0.12,0.1,0.13
					c0.15,0.04,0.29,0.03,0.42-0.04c0.11-0.06,0.16-0.16,0.14-0.28c-0.01-0.06-0.02-0.11-0.04-0.16c-0.08-0.19-0.18-0.36-0.29-0.53
					c-0.06-0.1-0.07-0.19-0.02-0.3c0.06-0.14,0.02-0.24-0.12-0.3c-0.05-0.02-0.11-0.05-0.16-0.07c-0.05-0.02-0.07-0.07-0.06-0.12
					c0.01-0.14,0.12-0.22,0.25-0.19c0.02,0,0.05,0.01,0.07,0.02c0.03,0.01,0.07,0.01,0.1-0.02c0.03-0.03,0.02-0.07,0.01-0.11
					c-0.06-0.12-0.14-0.22-0.29-0.23c-0.04,0-0.06-0.02-0.07-0.05c-0.02-0.07-0.02-0.14,0.01-0.21c0.02-0.04,0.06-0.06,0.1-0.03
					c0.13,0.09,0.27,0.16,0.41,0.21c0.08,0.03,0.1,0.08,0.08,0.16c-0.04,0.18,0,0.23,0.19,0.22c0.02,0,0.04,0,0.06-0.01
					c0.15-0.03,0.3-0.06,0.46-0.09c0.14-0.03,0.29-0.05,0.43-0.06c0.12,0,0.15,0.04,0.12,0.15c-0.03,0.11-0.09,0.18-0.19,0.22
					c-0.11,0.04-0.22,0.1-0.28,0.21c-0.15,0.25-0.08,0.58,0.17,0.74c0.04,0.03,0.09,0.05,0.14,0.03c0.05-0.03,0.05-0.08,0.05-0.13
					c0-0.02,0-0.03,0-0.05c-0.01-0.09-0.03-0.18-0.02-0.27c0-0.05,0.01-0.11,0.08-0.12c0.06-0.01,0.11,0.02,0.14,0.07
					c0.02,0.05,0.03,0.1,0.04,0.15c0.01,0.1,0.02,0.2,0.03,0.29c0.01,0.1,0.05,0.2,0.14,0.27c0.07,0.05,0.14,0.09,0.22,0.05
					c0.08-0.04,0.08-0.11,0.09-0.19c0.01-0.16,0-0.31-0.02-0.47c-0.02-0.13-0.04-0.25-0.05-0.38c0-0.03-0.02-0.06,0.01-0.08
					c0.02-0.01,0.04,0.02,0.07,0.03c0.04,0.02,0.07,0.05,0.11,0.07c0.11,0.06,0.21,0.03,0.26-0.08c0.02-0.03,0.03-0.07,0.04-0.11
					c0.04-0.15,0.03-0.3,0.02-0.45c0-0.05-0.01-0.1-0.02-0.15c-0.02-0.12,0.04-0.21,0.1-0.31c0.07-0.12,0.1-0.24,0.04-0.37
					c-0.04-0.09-0.03-0.12,0.04-0.19c0.09-0.08,0.18-0.16,0.27-0.24c0.15-0.12,0.13-0.18,0.34-0.04c0.04,0.03,0.08,0.03,0.11-0.01
					c0.03-0.05,0.01-0.08-0.03-0.11c-0.01-0.01-0.03-0.02-0.04-0.03c-0.05-0.03-0.06-0.07-0.03-0.12c0.02-0.04,0.04-0.08,0.06-0.12
					c0.03-0.06,0.01-0.1-0.06-0.11c-0.08-0.02-0.16-0.03-0.24-0.07c-0.11-0.05-0.15-0.1-0.14-0.22c0.01-0.13-0.03-0.23-0.13-0.32
					c-0.08-0.07-0.15-0.08-0.24-0.02c-0.13,0.1-0.27,0.14-0.43,0.13c-0.03,0-0.07-0.01-0.1-0.01c-0.1-0.01-0.13,0.01-0.14,0.11
					c-0.02,0.12-0.07,0.22-0.16,0.3c-0.07,0.07-0.16,0.13-0.25,0.18c-0.07,0.04-0.12,0.09-0.17,0.16c-0.05,0.09-0.13,0.13-0.22,0.16
					c-0.04,0.01-0.07,0.02-0.11,0.03c-0.03,0.01-0.05,0.03-0.06,0.06c0,0.04,0.02,0.06,0.04,0.08c0.04,0.03,0.09,0.03,0.14,0.04
					c0.02,0,0.04,0,0.05,0.03c0.02,0.07,0.02,0.15-0.01,0.21c-0.02,0.05-0.08,0.03-0.12,0.04c-0.31,0.06-0.62,0.05-0.93,0.12
					c-0.14,0.03-0.24-0.04-0.31-0.16c-0.06-0.11-0.08-0.22-0.08-0.34c0-0.07,0.02-0.15-0.06-0.19c-0.08-0.04-0.14,0-0.21,0.04
					c-0.01,0.01-0.03,0.02-0.04,0.03c-0.15,0.12-0.17,0.28-0.14,0.45c0.02,0.13,0.05,0.26,0.1,0.39c0.03,0.07,0.01,0.09-0.06,0.1
					c-0.05,0-0.09,0.01-0.14,0.01c-0.25-0.01-0.5-0.03-0.75-0.05c-0.17-0.02-0.34-0.03-0.49-0.13c-0.22-0.16-0.48-0.22-0.75-0.24
					c-0.22-0.02-0.42-0.08-0.6-0.19c-0.14-0.09-0.3-0.16-0.47-0.21c-0.14-0.05-0.28-0.09-0.42-0.13c-0.14-0.04-0.17-0.09-0.18-0.23
					c-0.01-0.22,0.08-0.41,0.24-0.55c0.14-0.12,0.09-0.25-0.04-0.31c-0.08-0.04-0.16-0.08-0.25-0.12c-0.2-0.09-0.39-0.19-0.55-0.34
					c-0.11-0.11-0.22-0.22-0.29-0.36c-0.04-0.09-0.04-0.17,0.02-0.25c0.01-0.01,0.02-0.03,0.04-0.03c0.02,0,0.02,0.02,0.02,0.04
					c0.01,0.03,0.02,0.06,0.03,0.09c0.04,0.1,0.11,0.13,0.21,0.07c0.16-0.09,0.19-0.25,0.09-0.39c-0.09-0.12-0.19-0.24-0.26-0.38
					c-0.06-0.11-0.05-0.16,0.04-0.24c0.11-0.1,0.23-0.19,0.35-0.28c0.19-0.14,0.18-0.44,0-0.57c-0.13-0.09-0.28-0.13-0.43-0.09
					c-0.2,0.05-0.39,0.12-0.58,0.19c-0.16,0.06-0.33,0.05-0.49-0.01c-0.09-0.03-0.16-0.09-0.16-0.2c0.01-0.32-0.35-0.57-0.65-0.52
					c-0.29,0.05-0.57,0.16-0.84,0.28c-0.19,0.08-0.22,0.28-0.07,0.43c0.06,0.06,0.13,0.08,0.21,0.11c0.13,0.05,0.25,0.11,0.34,0.22
					c0.08,0.1,0.08,0.13-0.04,0.16c-0.02,0.01-0.03,0.01-0.05,0.02c-0.13,0.05-0.18,0.13-0.16,0.27c0.02,0.15,0.06,0.29,0.1,0.43
					c0.05,0.17,0.15,0.31,0.3,0.41c0.09,0.06,0.19,0.11,0.3,0.15c0.04,0.01,0.08,0.03,0.14,0.05c-0.09,0.03-0.18,0.04-0.25,0.08
					c-0.12,0.07-0.16,0.16-0.11,0.29c0.02,0.04,0.04,0.09,0.05,0.13c0.03,0.08,0.01,0.13-0.06,0.18c-0.11,0.08-0.17,0.18-0.2,0.3
					c-0.02,0.1-0.08,0.17-0.18,0.18c-0.18,0.03-0.27,0.15-0.27,0.32c0,0.12-0.05,0.21-0.15,0.28c-0.02,0.01-0.04,0.03-0.06,0.04
					c-0.11,0.08-0.18,0.18-0.21,0.31c-0.04,0.2-0.23,0.36-0.43,0.38c-0.12,0.01-0.14-0.01-0.13-0.13c0-0.01,0-0.03,0-0.04
					c-0.01-0.1-0.07-0.13-0.16-0.1c-0.09,0.03-0.16,0.08-0.22,0.15c-0.11,0.15-0.21,0.31-0.29,0.49c-0.04,0.1-0.01,0.17,0.1,0.2
					c0.04,0.01,0.09,0.02,0.13,0.03c0.06,0.02,0.08,0.06,0.06,0.11c-0.01,0.05-0.03,0.1-0.05,0.15c-0.01,0.05,0.01,0.09,0.05,0.12
					c0.04,0.03,0.08,0,0.11,0c0.08,0,0.1,0.01,0.07,0.08c-0.02,0.04-0.02,0.08-0.01,0.12c0.01,0.07,0.05,0.12,0.09,0.17
					c0.09,0.09,0.13,0.2,0.13,0.33c0,0.08-0.02,0.09-0.09,0.07c-0.15-0.04-0.29-0.05-0.43,0.02c-0.07,0.04-0.15,0.03-0.23,0.01
					c-0.07-0.02-0.13-0.05-0.2-0.06c-0.08-0.02-0.14,0.02-0.15,0.1c-0.02,0.13-0.04,0.14-0.16,0.14c-0.16,0-0.21,0.08-0.14,0.22
					C200.9,83.71,201.05,83.87,201.26,83.97z"/>
			</g>
		</g>
	</g>
	<path fill="#2B0D5C" d="M207.82,95.84c-9.36,0-16.97-7.61-16.97-16.97c0-9.36,7.61-16.97,16.97-16.97
		c9.36,0,16.97,7.61,16.97,16.97C224.79,88.22,217.18,95.84,207.82,95.84z M207.82,62.46c-9.05,0-16.4,7.36-16.4,16.4
		c0,9.05,7.36,16.4,16.4,16.4c9.05,0,16.4-7.36,16.4-16.4C224.22,69.82,216.87,62.46,207.82,62.46z"/>
</g>
</svg>
