<?xml version="1.0" encoding="utf-8"?>
<!-- Generator: Adobe Illustrator 28.0.0, SVG Export Plug-In . SVG Version: 6.00 Build 0)  -->
<svg version="1.1" id="Layer_1" xmlns="http://www.w3.org/2000/svg" xmlns:xlink="http://www.w3.org/1999/xlink" x="0px" y="0px"
	 viewBox="0 0 419 311.2" style="enable-background:new 0 0 419 311.2;" xml:space="preserve">
<style type="text/css">
	.st0{fill:#FFFFFF;}
	.st1{fill:#108041;}
</style>
<g id="undraw_connected_world_wuay" transform="translate(0 0)">
	<path id="Path_44172" class="st0" d="M386,75.7c-47.6-66.2-148-93-246.8-64.1C87,26.8,36.6,57.5,11.6,116.8
		C-33,222.8,60.7,256.6,122,267.4c28.7,5,56.6,13.7,83,25.9c45.9,21.5,127,40.5,188.3-48.9C437.6,179.6,417.7,119.7,386,75.7z"/>
	<path id="Path_44173" class="st1" d="M110.6,88.5c-0.1-1.1-0.4-2.1-0.8-3.1c-0.1-0.4-0.4-0.7-0.7-0.9c-0.2-0.1-0.5-0.1-0.7,0
		l-3.6,0.6c-0.3,0-0.6,0.1-0.8,0.3c-0.5,0.5,0,1.3,0,2c-0.1,0.8-0.7,1.4-1.4,1.6c-0.8,0.2-1.5,0.1-2.3,0l-5-0.8
		c1.5-0.5,2.8-1.4,3.8-2.5c0.7-0.8,1-2.2,0.1-2.6c-0.3-0.1-0.6-0.1-0.9-0.1c-2.3,0-4.1-1.9-6.2-2.7c-2.8-1-5.9-0.1-7.7,2.3l2.7,0.1
		c0.3,0,0.5,0.1,0.7,0.2c0.6,0.5-0.1,1.4-0.1,2.2c0.1,1,1.4,1.2,2.4,1.3s2.2,0.9,1.8,1.8c-4.9,1.7-10-3.3-15.2-2.7
		c-1.3,0.3-2.6,0.6-3.8,1c-7.8,2-15.9-3.3-23.9-2.2c-1.8,0.3-3.5,0.8-5.2,1.4c-1.1,0.3-2.2,0.8-3,1.6c-0.9,0.8-1,2.1-0.3,3.1
		c-2.1,0.2-4.1,0-6.1-0.6c1.1,0.6,1.8,1.8,1.8,3c-3.2,0.5-6.4,1.5-9.3,2.8c0.6,0.9,1.2,1.8,1.9,2.6l-4.1,2.6
		c1.2,0.4,1.9,1.7,1.5,2.9c-0.1,0.2-0.1,0.3-0.2,0.5c1.4-0.6,2.3-2.3,3.8-2.6c1-0.1,2.1,0.1,3,0.6c0.9,0.5,2,0.6,3,0.5
		c1-0.3,1.7-1.6,1.1-2.4c4.2-1.2,8.6-1.9,12.9-2c0.3,0,0.7,0,1,0.2c0.6,0.4,0.4,1.3,0.4,1.9s0.5,1.6,1.1,1.3
		c-0.7,0.6-0.1,1.8,0.6,2.5s1.5,1.6,1.1,2.4c-0.1,0.2-0.3,0.4-0.4,0.6c-0.3,0.7,0.2,1.5,0.8,1.9c0.7,0.4,1.2,0.8,1.7,1.4
		c0.4,0.6,0.2,1.7-0.5,1.8l-2.1-2.7c-0.7,0.7-1.2,1.7-1.4,2.7c2.2,2,2.5,5.4,0.7,7.7c-1.1,1-2.2,1.9-3.5,2.7
		c-1.3,0.8-2.1,2.1-2.3,3.6c0,2.5-0.2,4.9,0.7,7.3c1.8,4.3,3.8,8.6,6.1,12.7c0.6,1.1,1.4,2.2,2.6,2.4c-1.5-3.7-2.9-7.5-4.1-11.4
		c0.8-0.1,1.6,0.1,2.2,0.7c0.3,0.6,0.4,1.3,0.4,1.9c0.2,0.6,0.4,1.2,0.8,1.8l7.3,13.1c0.5,1.2,1.4,2.1,2.5,2.7
		c0.8,0.1,1.5,0.4,2.3,0.6c0.5,0.3,0.9,0.9,1.4,1.2c1.5,0.8,3.7-0.8,5.1,0.2c0.4,0.3,0.7,0.7,1.1,1.1c1.3,1.2,3.5,0.4,5.1,1.2
		c0.9,0.7,1.6,1.6,2,2.7c1.3,2.5,3.5,5,6.3,5.2c0.9,0,1.8,0,2.7,0.1c0.9,0.2,1.7,1,1.6,1.8c-0.2,1.5,0.5,3.2,0.3,4.7
		c-0.4,2.8-4.3,4-4.6,6.8c0,0.6,0,1.2-0.1,1.8c-0.2,0.7-0.7,1.3-0.9,2c-0.4,1.4,0.6,2.7,1.7,3.7s2.4,1.7,3,3c0.6,1.4,0.3,3,0.5,4.4
		c0.4,3.2,3.2,5.7,6.1,7.2c0.9,0.4,1.7,1,2.4,1.8c0.7,1.1,0.7,2.5,0.9,3.8c0.6,3.1,3.2,5.7,3.3,8.9c0.1,2.3-1.2,4.3-2,6.5
		c-1.4,4.2-1,8.7,1.2,12.5c0.6,0.9,1.2,1.9,1.6,2.9c0.7,1.8,0.5,3.9,1.1,5.8c0.9,2.5,3.2,4.5,3,7.1c1.1,2.2,3.5,3.4,5.9,4l4.3,1.2
		c0.8,0.3,1.7,0.4,2.5,0.3c0.9-0.1,1.5-0.8,1.6-1.7c-2.1-0.3-4.2-1.1-6-2.3c-1.7-1.3-2.9-3.6-2.3-5.6c0.3-1,1-2.1,0.3-2.8
		c-0.4-0.5-1-0.6-1.4-1c-0.5-0.8-0.5-1.8,0-2.5c0.5-0.7,1-1.5,1.3-2.3c0.2-1-0.3-2-1.1-2.5c0.8-0.3,1.5-0.8,2.1-1.4
		c0.6-0.6,0.8-1.6,0.4-2.4c1.3,0.2,2.9,0.2,3.7-0.8c0.6-0.9,0.7-2,0.4-3c-0.4-1-0.6-2-0.7-3.1c3,0.1,6,0,9.1-0.3
		c-0.4-1.5-1.4-2.7-2.8-3.4c1.4-0.2,2.6-1.9,3-3.2c0.4-1.3,0.4-2.7,0.1-4.1c-0.1-0.3-0.1-0.7,0-1.1c0.2-0.5,0.6-0.8,1.1-1l6.8-3.9
		c0.4-0.2,0.8-0.5,1.1-0.8c0.6-0.9,0.7-2.1,0.2-3.1c-0.5-1-0.8-2-1.1-3.1c-0.4-3.2,3-5.6,4.2-8.6c0.4-1.2,0.6-2.5,0.6-3.8
		c0.1-1.4,0.1-3-1-3.9c-1-0.8-2.6-0.7-3.6-1.4c-1-0.7-1.3-2.1-2.4-2.7c-1-0.5-2.2-0.2-3.2-0.4c-1.9-0.4-3.1-2.6-5-2.8
		c-1.1-0.1-2.3,0.4-3.2-0.2c-0.8-0.6-0.8-1.7-1-2.6c-0.5-3-2.9-5.4-5.9-5.9c-1.1,0-2.3-0.3-3.3-0.7c-1-0.6-1.4-1.8-2.2-2.6
		c-1.2-1.4-3.1-1.9-4.9-2.3l-7.3-1.7c-1.3-0.3-3-0.5-3.7,0.7c-0.2,0.4-0.4,0.9-0.4,1.4c-0.5,1.8-2.1,3-4,3c-0.6-1-1.6-1.8-2.8-2.1
		c-0.8-0.1-1.5-0.3-2.2-0.5c-1.6-0.8-2.2-2.7-1.5-4.2c0-0.1,0.1-0.1,0.1-0.2c0.9-1.5,0.6-3.5-0.7-4.7c-1.3-1-3-1.5-4.7-1.3
		c-0.4-1,0.3-2,1.1-2.7s1.7-1.4,1.9-2.4c0.3-1.6-1.8-2.9-3.4-2.4s-2.6,2-3.2,3.5c-0.3,0.9-0.8,1.7-1.3,2.5c-0.6,0.8-1.5,1.2-2.5,1
		c-1.3-0.3-1.8-1.9-2.1-3.2c-0.5-1.7-0.7-3.5-0.7-5.3c0-1.8,0.7-3.6,2-4.9c2.2-2,5.5-1.8,8.4-1.5c-0.6-0.9-0.6-2.1,0.2-2.8
		c0.8-0.7,1.9-1,2.9-0.7c0.9,0.2,1.7,0.7,2.2,1.3c0.8,1,1.1,2.4,1.7,3.5s2,2.1,3.2,1.5c1-0.5,1.2-1.9,0.9-3
		c-0.4-1.1-0.6-2.2-0.7-3.3c0.2-2.1,2.4-3.4,4.4-4.3s4.2-2.1,4.5-4.2c0-0.4,0.1-0.8,0.2-1.2c0.2-0.3,0.5-0.6,0.9-0.8
		c5.7-3.8,11.5-7.6,18.1-9.7c0.3-0.1,0.4,0,0.7-0.1c0.5-0.3,0.2-1.1-0.3-1.4s-1.1-0.6-1.2-1.1c-0.1-0.4,0.2-0.8,0.2-1.2
		c0.1-0.8-0.6-1.5-1.4-1.6c-0.2,0-0.4,0-0.6,0.1c-0.5-0.7,0.5-1.5,1.4-1.7c2.5-0.7,5.1-1.1,7.7-1.3c0.3,0,0.6,0,0.9,0.1
		c0.4,0.4,0.4,1,0.1,1.4c-0.4,0.4-0.8,0.8-1.2,1.1c-0.9,0.8-1.2,2.1-0.8,3.2c1.3,0.8,2.8,1.2,4.4,1.2c1.5-0.2,2.9-1.9,2.1-3.3
		c-0.7-1.3-2.7-1.5-3-2.9c-0.4-1.6,1.9-3.1,1.4-4.7c-0.2-0.7-0.9-1.1-1.5-1.6c-1.3-1.3-1.7-3.2-1-4.8c-1.8,0.3-3.6-0.3-4.8-1.5
		c-1.2-1.2-2.1-3-3.7-3c-1.5,0-2.8,1.8-4.2,1.3c-0.3-0.1-0.7-0.4-1-0.2c-0.2,0.1-0.4,0.4-0.4,0.6c-0.4,1.7,0.3,3.7-0.7,5.1
		c-1,1.6-3.4,1.8-4.6,3.3c-0.7,0.8-0.9,1.8-1.5,2.7s-1.9,1.4-2.7,0.6c0.7-1.5,0.3-3.4-1-4.4c-0.7-0.4-1.4-0.8-2.2-1.1
		c-0.9-0.4-1.7-0.8-2.4-1.4c-0.4-0.2-0.7-0.6-0.9-1c-0.2-0.5-0.1-1,0.1-1.5c0.8-2.2,2.7-3.8,4.9-4.1c1-0.1,2.1-0.1,2.8-0.8
		c0.3-0.4,0.5-1,1-1.2c0.3-0.1,0.6,0,0.9,0.1l3.7,1.3c0.4,0.2,0.9,0.3,1.3,0.2c0.5-0.1,0.8-0.5,0.8-0.9c-0.1-0.6-1.1-0.9-1-1.5
		c0-0.2,0.2-0.4,0.3-0.5c2.7-2.8,6.5-4.3,10.4-4.1c0.5,0.8-0.3,1.7-0.9,2.3s-1.1,1.8-0.4,2.3c0.3,0.2,0.6,0.2,1,0.2
		c0.9,0.1,1.8,0.4,2.6,0.8c1.3,0.6,2.5,1.2,3.7,1.8c-0.2-0.8-0.1-1.6,0.1-2.4c0.3-0.8,1.1-1.2,1.9-1c0.7,0.3,1.1,1.2,1.9,1.3
		c1,0.1,1.4-1.4,1-2.4s-1.3-1.7-1.4-2.8c0-0.7,0.2-1.6-0.3-2c-0.2-0.1-0.4-0.2-0.7-0.2l-14-2.6c-0.8-0.2-2,0-2.1,0.8
		c0,0.5,0.4,0.9,0.2,1.4c-0.2,0.5-0.9,0.4-1.3,0.6c-0.7,0.3-1.1,1.1-1,1.9c0.1,0.8,0.4,1.5,0.9,2.1C112.8,89,111.5,88.9,110.6,88.5z
		"/>
	<path id="Path_44174" class="st1" d="M99.2,76.9c-1.8-0.6-3.8,0-5,1.5c-0.3,0.3-0.4,0.7-0.2,1c0.3,0.5,1,0.3,1.5,0.1
		c0.8-0.3,1.6-0.3,2.4-0.1c0.5,0.2,0.9,0.5,1.4,0.6c0.5,0.2,1,0.1,1.4-0.2c0.3-0.4,0.4-0.9,0.4-1.4c0-0.3-0.1-0.7-0.3-0.9
		c-0.2-0.1-0.4-0.2-0.6-0.2c-0.5-0.1-1-0.4-1.3-0.8"/>
	<path id="Path_44175" class="st1" d="M104.2,75.5c-0.6,0-1.2,0.5-1.2,1.1c0,0.2,0,0.4,0.1,0.5c0.6,0.2,1.2,0.2,1.9,0.1
		c0.6-0.1,1.1-0.6,1.3-1.2c-0.7,0.1-1.5,0-2.1-0.4"/>
	<path id="Path_44176" class="st1" d="M121,73.2c-1.6,0.3-3.2,0.9-4.8,1.6c1.5,0.6,2.4,2,2.3,3.6c-0.1,0.3-0.1,0.6,0,0.9
		c0.2,0.4,0.7,0.6,1.1,0.7c0.8,0.2,1.6,0.4,2.5,0.3c0.8,0,1.6-0.5,2-1.3c0.1-0.3,0.3-0.7,0.4-1c1.1-1.6,4.2,0.3,5.4-1.2
		c0.4-0.6,0.4-1.4,0.9-1.8c0.3-0.2,0.6-0.3,0.9-0.4c2.3-0.5,4.6-0.8,7-1c1.1-0.1,2.6-0.5,2.6-1.6c-4.2-0.8-8.5-0.2-12.3,1.7
		c-1.4,0.7-3.2,2.1-4.5,1.2c-0.5-0.3-0.5-1.3-1.2-1.6C122.7,73,121.8,72.9,121,73.2z"/>
	<path id="Path_44177" class="st1" d="M134.7,75.7l2,0.4c-1.4-0.1-2.6,1-2.7,2.4c0,0.1,0,0.2,0,0.3c1.8,0.6,3.8,0,5.8,0.1
		s4.2,1.5,3.9,3.4c-0.1,0.6-0.4,1.2-0.3,1.7c0.2,0.4,0.4,0.7,0.7,1c0.3,0.8,0.2,1.7-0.4,2.4c-0.5,0.7-1.2,1.2-1.7,2
		c-1.1,1.8-0.5,4.1,0.2,6.2c0.2,0.8,0.5,1.5,1,2.1c1,1.1,2.6,1.1,4,1.2c1.1,0,2.3,0,2.9-0.9c0.9-1.1,0.3-2.7,0.8-4
		c0.5-1.1,1.8-1.6,3-2c2.2-0.5,4.4-1.3,6.5-2.1c2.6-1.2,5-3,7.8-3.2c0.8,0,1.6,0,2.4-0.2c0.8-0.2,1.4-0.9,1.4-1.7
		c0-0.7-0.6-1.2-1.1-1.7s-0.8-1.3-0.4-1.8l7.4-1.4c-0.5-1.4-0.9-3.3,0.3-4.3c0.4-0.3,1-0.5,1.4-0.9c0.6-0.8,0.4-1.9-0.4-2.5
		c-0.8-0.5-1.7-0.8-2.7-0.8c-3.3-0.2-6.5-0.2-9.8,0.1l-19.1,1c-1.3-0.1-2.7,0.1-3.9,0.4c-0.9,0.5-1.9,0.9-2.8,1.3
		C138.9,74.9,136.6,74.6,134.7,75.7z"/>
	<path id="Path_44178" class="st1" d="M169.8,91.2c-0.2,0-0.4,0-0.6,0.1c-0.1,0.1-0.2,0.3-0.2,0.4c-0.1,0.7,0,1.5,0.4,2.1
		c0.4,0.6,1.1,1,1.9,0.9c0.9-0.1,1.5-0.9,2.3-1.2c1.3-0.6,6.6-1.4,2.9-3.4c-1.3-0.7-2.1-0.1-3.1,0.4C172.3,91.1,171,91.3,169.8,91.2
		z"/>
	<path id="Path_44179" class="st1" d="M201.9,74.6c-0.4,0.2-0.8,0.5-1,0.9c-0.2,0.4-0.1,0.9,0.3,1.2c0.2,0.1,0.3,0.1,0.5,0.1
		l1.7,0.1c0.7,0,1.7,0.2,1.9,0.9c0.1,0.5-0.2,1.2,0.2,1.6c0.2,0.1,0.4,0.2,0.6,0.2c0.6,0.1,1.2,0.2,1.8,0.1c1.3-0.3,0.6-1.1,1-1.8
		c0.6-1.1,0.5-0.4,1.6-1c0.8-0.4,1.8-1.3,1.2-2.4C210.5,72.4,203.6,73.8,201.9,74.6z"/>
	<path id="Path_44180" class="st1" d="M236.3,73.6l-1,0.1c-2.3,0.2-4.6,0.7-6.8,1.3c1,0.4,2,0.6,3,0.7c0.6,0,1.1,0.1,1.7,0.2
		c1,0.3,2,1,2.9,0.7c0.6-0.2,0.8-0.8,1.3-1.2c0.3-0.2,1.6-0.6,1.7-0.8C240.2,72.9,237.2,73.5,236.3,73.6z"/>
	<path id="Path_44181" class="st1" d="M240.7,78.2c-1.4,0.8-2.6,1.7-3.7,2.7c-0.5,0.4-0.9,1-0.9,1.7c0.1,0.9,1,1.4,1.8,1.7l3.2,1.4
		c0.4-0.6,0-1.3-0.4-1.9s-0.9-1.2-0.7-1.8c0.2-0.7,1.1-1,1.9-1.1c1.2-0.2,4.6-0.2,4.2-2.2C245.6,76.3,242,77.5,240.7,78.2z"/>
	<path id="Path_44182" class="st1" d="M240.1,211.8c-0.4,0.9-0.3,1.9,0.2,2.7c0.7,0.9,1.8,1.2,2.8,1c1-0.3,2-0.9,2.6-1.7
		c0.6-0.7,1.1-1.5,1.5-2.3c0.5-1.3,0.9-2.7,1.1-4.1l1-5.3c0.2-1.2,0.2-4.8-2-3.6c-0.6,0.3-2,2.9-2.6,3.6c-1.1,1.3-1.3,2.6-1.9,4.1
		C242.2,208.2,240.7,209.9,240.1,211.8z"/>
	<path id="Path_44183" class="st1" d="M354.3,238.8c-0.7-0.3-1.4-0.6-2.1-1c-0.7,1.8-1,3.8-1,5.7l4.9-2.8c0.7-0.4,1.6-1,1.5-1.8
		c0-0.2-0.1-0.4-0.3-0.5c-0.1,0-0.2-0.1-0.3,0c-0.7,0.1-1.4,0.4-2.1,0.7c-0.7,0.3-1.4,0.3-2.1,0"/>
	<path id="Path_44184" class="st1" d="M379.9,240.4c-0.5,0.1-1.1,0.3-1.6,0.6c-1,0.7-2,1.5-2.9,2.4c-1,0.7-2.1,1.2-3.3,1.5
		c-0.3,0.3-0.2,0.8,0.1,1.1c0,0,0,0,0.1,0.1c0.4,0.2,0.8,0.3,1.3,0.3c1.2,0.1,2.4-0.1,3.5-0.5c0.6-0.4,1.1-0.8,1.6-1.3
		c1.3-1,2.6-1.7,4.1-2.3c0.5-0.2,1-0.5,1.4-0.9c0.9-0.9,1-2.3-0.3-2.6C382.9,238.5,380.9,240.1,379.9,240.4z"/>
	<path id="Path_44185" class="st1" d="M391.3,233c0.1-1.2-0.3-2.5-1.2-3.3c0.1,1.2-0.2,2.5-0.7,3.5c-0.5,0.7-1.3,1.2-1.8,1.9
		c-0.6,0.7-0.7,1.7-0.1,2.4c0.4,0.3,0.9,0.5,1.4,0.5c1.3,0.1,2.7,0.2,3.6-0.7c0.5-0.5,0.7-1.2,1.3-1.6c0.2-0.1,0.4-0.2,0.6-0.4
		c0.2-0.4-0.1-0.9-0.6-1s-0.9-0.1-1.3-0.2s-0.8-0.6-0.6-1"/>
	<path id="Path_44186" class="st1" d="M371.1,188.3c-0.7,0.2-1.3,0.2-2,0.1c-1.1-0.3-2.1-0.9-2.9-1.7c-2.1-1.6-4.7-2.5-7.4-2.6
		c-2.5,0-4.9,0.6-7.3,0.2c0.2,0.9,0.9,1.6,1.7,1.9c0.8,0.4,1.7,0.6,2.5,1c1.3,0.6,2.3,1.7,2.9,3c0.2,0.6,0.5,1.2,0.8,1.8
		c0.9,1,2.3,1.4,3.7,1.2c1.7-0.1,3.6-0.6,5.2,0c1.2,0.6,2.2,1.5,3.2,2.4c1,0.8,2.5,1.5,3.7,0.9c-2.5-0.8-4.2-3.2-4.2-5.9
		c1.2,0.1,4.5,0.1,4.3-1.9C375,187,372.1,188.1,371.1,188.3z"/>
	<path id="Path_44187" class="st1" d="M355.9,201.9c0.2-1.1,1.3-2.1,1-3.2c-0.3-0.7-1.1-1.2-1.9-1.2c-0.8,0-1.6,0.2-2.4,0.2
		c-0.5,0-1,0-1.6,0c-1.6,0.3-2.6,1.9-4.1,2.5c-0.9,0.2-1.9,0.4-2.9,0.5c-2.1,0.6-3.5,2.6-5,4.2c-2.4,2.6-5.6,4.5-9.1,5.3
		c-1.2,0.1-2.4,0.6-3.5,1.3c-1.3,1-1.6,2.8-1.9,4.5c-0.8,4.5-2,8.9-3.6,13.2l5.1,0.7c1,0.2,2,0.2,2.9,0c0.7-0.3,1.3-0.6,1.9-1
		c2.3-1.4,4.8-2.3,7.5-2.7c1.3-0.2,2.7-0.2,4,0.3c1.3,0.5,2.2,1.6,2.4,3c1.1-0.3,2.3-0.1,3.1,0.8c0.8,0.8,1.3,1.9,1.5,3
		c0.1,0.7,0.3,1.5,0.9,1.8c0.5,0.2,1.1,0,1.7-0.1c2-0.2,3.6,2.1,5.5,1.7c2.1-0.4,2.6-3.5,4.6-4.1c1.2-0.4,2.8,0.1,3.3-1
		c0.5-0.9-0.5-2-0.4-3.1c0.1-1.3,1.7-1.9,2.9-2.4c4.2-2.2,6-7.2,4.1-11.5c-1.2-2.4-3.5-4.3-3.9-7c-0.3-2,0.5-4.4-0.8-6
		c-0.7-0.8-1.8-1.3-2.2-2.2c-0.2-0.6-0.2-1.3-0.3-2c-0.1-0.6-0.7-1.3-1.3-1.2c-1.9,0.5-2.4,6.2-3.4,7.6c-0.7,1.1-2.1,1.4-3.2,0.7
		C356,203.9,355.6,202.9,355.9,201.9z"/>
	<path id="Path_44188" class="st1" d="M321.7,190.5c-0.6-0.2-1.3-0.3-1.9-0.1c-0.6,0.3-1,1.1-0.5,1.6c3.8-0.3,7.6-0.2,11.4,0.2
		c4.4,0.6,8.7,2.1,13,1.6c-2.5-0.7-5-1.3-7.6-1.8l-4.3-0.8c-1.1-0.2-2.3-0.4-3.5-0.5C326,190.5,324.2,191.1,321.7,190.5z"/>
	<path id="Path_44189" class="st1" d="M325.6,177.2c-0.3,0-0.7,0-0.9,0.2s0,0.6-0.1,0.9c-0.1,0.4-0.6,0.5-1,0.4
		c-0.4-0.1-0.8-0.1-1.2,0c-0.4,0.3-0.5,0.7-0.4,1.2c0.1,0.4,0.4,0.8,0.7,1.1c0.5,0.7,1.2,1.3,1.8,1.8c1.3,1,3.1,1.4,3.9,2.8
		c0.1,0.3,0.3,0.5,0.5,0.7c0.4,0.2,0.9,0.1,1.3-0.1l1.5-0.7c0.3-0.1,0.5-0.3,0.7-0.5c0.3-0.5,0.2-1.2-0.2-1.6
		c-0.4-0.5-0.6-1-0.6-1.6c0.1-1,1.4-1.4,2-2.3s0.2-2,0.3-3c0.1-1.2,0.8-2.8-0.4-3.7c-1-0.8-2-0.1-2.8,0.8
		C329.2,175.5,328.5,177.4,325.6,177.2z"/>
	<path id="Path_44190" class="st1" d="M334.6,159.2c0.5,1,1.6,1.6,2.1,2.5c0.6,1,0.5,2.4,1.2,3.4c0.7,1,2,1.6,2.4,2.7
		c0.4,1.3-0.5,2.8,0.2,3.9c0.6,0.7,1.6,0.9,2.3,0.3c0,0,0.1-0.1,0.1-0.1c0.7-0.7,0.6-1.8-0.1-2.5c-0.4-0.4-1.1-0.6-1.4-1
		c-0.2-0.3-0.3-0.6-0.4-0.9c-0.2-0.9-0.2-1.9,0.1-2.9c0.1-0.2,0.1-0.5,0.1-0.7c-0.2-0.5-0.8-0.5-1.3-0.7c-1-0.5-1-2-0.8-3.1
		c-0.1,0.8-2.8-0.5-3.1-1c-0.6-0.9-0.3-2.5-0.4-3.5C334.5,156.4,334,157.9,334.6,159.2z"/>
	<path id="Path_44191" class="st1" d="M307.4,174.2c-0.5-0.6-1.3-1.1-1.9-0.8c-0.5,0.3-0.7,1-0.5,1.5c0.2,0.5,0.6,1,1.1,1.3
		c1.5,1.1,2.8,2.3,4.1,3.5c2.2,2.4,3.3,5.6,5.7,7.8c0.5,0.5,1.1,0.9,1.8,1c0.7,0.1,1.4-0.4,1.5-1.1c0-0.6-0.3-1.1-0.7-1.5
		c-0.9-1-1.9-1.9-2.8-3c-0.4-0.4-0.7-0.9-0.7-1.5c0-0.6,0.5-1.2,1.1-1c-0.7-0.2-1.2-1.3-2.1-1.5c-0.8-0.2-1,0.3-2-0.1
		C310.2,178.1,308.7,175.6,307.4,174.2z"/>
	<path id="Path_44192" class="st1" d="M350.6,119.8c-0.5-0.2-1.1-0.3-1.6-0.6c-1.4-0.4-3.2,0.6-3,2c0.1,0.9,1,1.6,1.5,2.4
		c0.6,1.3,0.7,2.8,0.2,4.1c-0.1,0.4-0.3,0.8-0.5,1.2c-0.3,0.4-0.8,0.7-1.2,0.9c-1.9,1-3.5,2.4-4.8,4.1c-0.1,0.2-0.2,0.3-0.3,0.5
		c-0.1,0.5,0.4,0.8,0.7,1.2c0.6,0.9,0.2,2.1,0.2,3.2c0,0.3,0.1,0.6,0.4,0.8c0.4,0.2,0.8-0.1,1-0.5c0.7-1.2,0.2-3.1,1.4-3.7
		c0.2-0.1,0.5-0.2,0.7-0.4c0.2-0.3,0-0.8,0.1-1.2c0.2-0.6,1-0.6,1.6-0.6c1.1,0,2.1-0.1,3.1-0.4c0.4-0.1,0.8-0.3,1-0.6
		c0.3-0.5,0.4-1.1,0.3-1.7c-0.4-2.9-1.3-5.7-2.7-8.3c1.1,0.3,2.2,0.1,3.2-0.3c0.5-0.3,1.2-1.3,0.9-1.9
		C352.3,119.1,351.5,120,350.6,119.8z"/>
	<path id="Path_44193" class="st1" d="M212.3,135.7c0.2,0.7,0.2,1.4,0,2.1c-0.2,0.7-0.9,1.1-1.6,1c-0.5-0.2-0.8-0.7-1.2-1.1
		c-2.1-2.2-6.8-0.9-8-3.7c-0.5-1.1-0.2-2.5-0.5-3.7c-0.5-1.4-1.8-2.3-3.3-2.3c-0.7,0.1-1.3,0.3-1.9,0.6c-4,1.6-8.3,2.7-12.6,3.2
		c-0.8,0.1-1.6,0.2-2.4,0.4c-1.7,0.8-3.1,2.2-3.9,4c-0.7,1.7-1.6,3.4-2.7,5c-1.3,1.5-2.8,2.8-4.5,3.9c-0.6,0.4-1.1,0.9-1.5,1.6
		c-0.3,0.7-0.4,1.5-0.3,2.3l0.3,9.6c0,1.2,0.2,2.5,0.6,3.6c0.7,1.4,2,2.3,3,3.5c1,1.3,1.5,2.8,1.4,4.4c0,0.6-0.1,1.4,0.4,1.8
		c0.3,0.2,0.7,0.3,1,0.3l13,1.1c2.3,0.2,4.8,0.5,6.3,2.2c0.7,0.8,1.3,2,2.3,2.1c0.5,0,0.9-0.1,1.4-0.2c1.2,0,2.3,0.7,2.8,1.8
		c1,1.5,1.4,3.3,1.3,5c-0.1,1.1-0.5,2.2-0.5,3.3c-0.3,4.2,3.3,7.9,3.4,12.2c0,2.5-1.1,4.8-2.3,7c1.9,2.8,0.3,6.6,1.1,9.9
		c0.7,3.1,3.3,5.6,4,8.7c0.3,1.4,0.3,3.2,1.6,4c0.6,0.3,1.2,0.4,1.8,0.4c3.7,0,7.4-0.8,10.8-2.5c1.6-0.8,3.2-1.9,3.5-3.7
		c0.2-1.4-0.5-3,0.2-4.2c0.8-1.4,3-1.3,4.3-2.4c2-1.8,0.4-5.2,1.3-7.8c0.7-2.3,3.3-3.5,4.5-5.6c0.5-0.9,0.9-1.9,1.1-2.9
		c0.6-2.4,0.9-4.8,1.1-7.3c0-1.5,0.1-3,0.3-4.5c1.4-8.4,9.7-14.1,12.4-22.2c0.3-0.8,0.4-1.8-0.3-2.2c-0.4-0.2-0.9-0.2-1.3-0.1
		l-6,0.8c-0.7,0.2-1.5,0.1-2.2-0.1c-0.7-0.3-1.1-1.1-0.8-1.8c1-1.8-1.1-4.2-2-6c-2.5-5.1-5.5-9.9-8.9-14.4c-0.2-0.2-0.4-0.5-0.4-0.8
		l1.7,0.1c-0.6-2.1-1.5-4.3-3.5-5.1c-1.2-0.3-2.4-0.4-3.6-0.2C219.3,136.6,215.8,136.3,212.3,135.7z"/>
	<path id="Path_44194" class="st1" d="M222.4,89.6c0.8,1.1,1.9,1.8,3.2,2.1c2.3,0.3,4-2.1,5-4.1c0.1,1.1,1,1.9,2.1,1.9
		c0.6-0.1,1.1-0.3,1.6-0.6c4.6-2.5,9.7-3.8,14.8-3.8c-0.1-0.8,0.4-1.6,1.2-1.8c1.1-0.2,2,0.7,2.5,1.6c0.4,1,0.9,1.9,1.6,2.8
		c0.8,0.7,2.4,0.7,2.7-0.3c0.3-1-0.7-1.8-1.6-2.4s-1.8-1.7-1.2-2.5c4.3-1.1,8.8-1.8,13.2-2.1c0.8,0,1.5-0.1,2.2-0.4
		c0.7-0.3,1.1-1.1,1-1.8c-2,0.5-4.1-0.3-5.3-2c6.2-0.5,12.8-0.9,18.3,2c0.7,1.4-2.7,2.6-1.8,3.9c0.4,0.4,0.9,0.5,1.4,0.5
		c3.8,0.2,7.6,0,11.4-0.4c1.4-0.3,2.8-0.4,4.2-0.3c2.3,0.3,4.3,1.8,6.5,2.3c0.9,0.3,1.9,0.2,2.7-0.3c0.8-0.5,1-1.6,0.5-2.4
		c0,0,0,0,0-0.1c2.1-2.1,5.7-1.6,8.5-0.6s5.5,2.6,8.5,2.8c2.1,0.2,4.3-0.4,6.4,0c1.3,0.3,2.6,0.7,3.9,1.2c2.5,0.5,5,0.7,7.6,0.6
		c6.5,0.1,12.9,1.4,19,3.8c0.8,0.3,1.5,0.7,2.1,1.2c0.6,0.6,0.8,1.5,0.5,2.3l-6.2-0.9c0.6,1.2,2.1,1.4,3.3,1.8s2.5,1.8,1.8,2.8
		c-1.3-0.4-2.5,0.9-3.2,2.1s-1.5,2.7-2.9,2.8c-1.3,0.1-2.8-1-3.6,0c1.1,1.4,2.1,3,2.9,4.6c0.8,1.7,1.4,3.8,0.3,5.3
		c-0.2,0.3-0.4,0.5-0.7,0.6c-0.9,0.2-1.5-0.9-2.1-1.5c-0.9-0.7-2-1.2-3.1-1.5c-1.1-0.4-2.2-1.2-2.3-2.3c0-0.7,0.2-1.4,0.6-2.1
		c0.5-1.1,0.7-2.3,0.6-3.5c0-1-0.4-1.9-1-2.7c-0.7-0.7-1.8-0.8-2.7-0.3c-0.4,0.3-0.6,0.8-1.1,0.8c-0.8,0-1.4-1.4-2.1-0.9
		c0.1,0.5,0,1-0.3,1.5c-1.9,1.7-4.9,1-7.4,1.6c-1.2,0.3-2.3,0.8-3.4,1.5c-0.4,0.2-0.7,0.5-1,0.8c-0.2,0.7,0,1.4,0.6,1.8
		c0.6,0.4,1.2,0.6,1.9,0.7c3.1,0.4,6,1.6,8.5,3.4c2.4,2,4,5.2,3.2,8.2l-6-5.7c0.2,2.4,0.4,4.8,0.4,7.2c0,0.5,0,0.9-0.2,1.4
		c-0.4,0.9-1.6,1.3-2.6,1.5c-1.1,0.2-1.8,1.3-1.6,2.4c0,0.1,0,0.2,0.1,0.2c0.5,1.1,1.2,2.2,2.1,3c0.9,0.8,1.5,2,1.7,3.2
		c0.1,1.2-0.8,2.6-2,2.5c-0.9-0.2-1.7-0.8-2-1.7c-0.3-0.9-0.7-1.7-1.2-2.5c-1.8-2.2-5.9-1.2-7.5-3.6c-0.8,1-1.1,2.3-0.8,3.5
		c0.8-0.4,1.8-0.1,2.3,0.7c0.5,0.7,0.9,1.5,1.3,2.3c0.6,1,1.6,2,1.6,3.1c0,0.5,0,0.9,0,1.4c0.3,0.7,0.7,1.3,1.2,1.8
		c0.9,1.5,1,3.3,0.3,4.9c-0.7,1.6-1.7,3-2.9,4.2c-1.9,2.3-4,4.4-6.3,6.4c-0.7,0.5-1.3,1.1-1.8,1.8c-0.5,0.7-0.4,1.7,0.2,2.4
		c-0.5,0-1.3,0.2-1.7,0.3c-0.2-1.8-0.2-3.7-0.1-5.5c-1.8-0.9-3.8,1.5-3.5,3.4s1.7,3.6,2.7,5.3c0.8,1.2,1.2,2.7,1.1,4.2
		c-0.2,1.5-1.5,2.6-3,2.6c-2.3-0.2-3.3-3.5-5.6-3.9c-0.2,0-0.4,0-0.6,0.1c-0.3,0.2-0.4,0.6-0.4,1c-0.2,1.9,0,3.8,0.6,5.7
		c1.1,2.6,3.9,4.7,3.3,7.5c-3.2-1.5-4.8-5-5.6-8.5s-0.9-7-2.2-10.3c-1,1.3-3.2,0.2-4.1-1.1c-0.9-1.3-1.4-2.8-2.3-4.1
		c-0.8-1.4-2.2-2.4-3.8-2.6c-1.7-0.1-3.1,1.1-4.3,2.1c-1.1,0.8-2,1.8-2.7,3c-0.9,1.8-0.7,3.9-0.7,5.8c0.1,2.2-0.6,4.3-2,6
		c-1.5,1.6-4.1,2.1-5.8,0.7c-0.8-0.8-1.3-1.8-1.6-2.9c-1.7-5.1-3.2-10.3-4.4-15.5c-0.3,1.2-1.3,2.7-2.3,2c-0.2-0.2-0.4-0.4-0.5-0.7
		c-1.9-3.2-5.4-5.1-8.9-6.2s-7.2-1.7-10.7-2.9c-1.9-0.7-3.8-1.6-5.5-2.8c-0.9,1.3-1,3-0.3,4.5c0.8,1.4,2.4,2.1,4,1.7
		c0.8-0.2,1.4-0.8,2.2-1c0.8-0.3,1.7-0.1,2.1,0.6c0.3,0.7-0.2,1.6,0.1,2.3c0.4,1.1,2.1,1.2,2.7,2.2c0.4,0.8,0.1,1.8-0.6,2.4
		c-0.7,0.6-1.4,1-2.2,1.4c-2.5,1.4-4.3,3.7-6.4,5.6s-5.2,3.2-7.8,2c0.6-3.1-3.1-5.4-3.8-8.5c-0.2-1-0.1-2.1-0.4-3.1
		c-0.5-1.4-1.8-2.4-2.8-3.5c-2.6-2.7-4-6.4-3.8-10.1c0.2-1.3,0.2-2.6,0-3.9c-0.2-1.3-1.3-2.3-2.6-2.4c-2.9,0.1-6.6,0.3-8.2-2.2
		c-0.6-0.9-0.8-2.2,0-2.9c0.6-0.4,1.4-0.5,2.1-0.4l6.6,0.7c1.5,0.2,3.2,0.3,4.6-0.5s1.9-3,0.7-3.9c-0.9-0.7-2.5-0.7-2.8-1.8
		c-0.2-0.9,0.8-2,0.3-2.7c-0.4-0.6-1.3-0.4-1.8,0c-0.5,0.5-1,0.9-1.5,1.3c-1.1,0.5-2.3,0-3.5-0.3s-2.7-0.4-3.2,0.7
		c-0.6,1.2,0.5,2.7-0.1,3.9c-0.8,1.6-3.6,0.7-4.7,2c-1.3,1.5,0.9,3.9,0.4,5.8c-1.1,0.6-2.5,0.5-3.6-0.2c-1.1-0.7-1.6-2-1.5-3.2
		c0.1-0.9,0.6-1.8,0.3-2.6c-0.3-0.6-0.9-1.2-1.6-1.4l-6.4-3.6c-0.6,1.1,0.2,2.5,1.1,3.3s2.1,1.5,2.8,2.6c0.8,1.6,0.3,3.5-1.3,4.4
		c-0.2,0.1-0.4,0.2-0.6,0.1c-0.2-0.1-0.4-0.3-0.4-0.6c-1.1-2.9-2.8-5.8-5.6-7.3s-6.6-1.2-8.4,1.4c-0.4,0.6-0.7,1.3-1.1,1.9
		c-2,3.4-6.2,5-10.1,4.9c-0.4,0-0.8-0.1-1.1-0.3c-0.6-0.4-0.6-1.4-0.5-2.1l0.4-3.3c0-0.7,0.3-1.3,0.7-1.8c0.7-0.6,1.8-0.2,2.7-0.2
		c1.4-0.1,2.7-1,3.1-2.4c0.4-1.4,0-2.9-1.1-3.9c-0.4-0.4-1-0.9-0.8-1.4c0.2-0.3,0.5-0.5,0.8-0.6c1.7-0.5,3.4-0.6,5.1-1.2
		c1.7-0.5,3.1-1.8,3.6-3.4c0.1-0.5,0.2-1.1,0.6-1.4c0.2-0.1,0.5-0.2,0.7-0.2c1.8-0.3,3.2-1.9,3.1-3.8c0.9-0.4,1.9-0.2,2.7,0.4
		c0.7,0.7,1.5,1.2,2.4,1.6c1.7,0.5,3.4-1.1,5.2-1.1c0.7,0.1,1.5,0.1,2.2,0c0.7-0.3,1.1-1,1.7-1.5s1.5-0.8,2-0.3l-0.4-3.2
		c1.8,0.4,3.6,0.1,5.1-0.9l-5.6-1.9c-0.2,0-0.4-0.1-0.5-0.3c-0.4-0.4,0-1.1,0.3-1.6c0.8-1.2,0.9-3.2-0.4-3.7c-1-0.3-2,0-2.8,0.6
		l-4.1,2.3c-0.1,0.8,0.8,1.2,1.4,1.7c1,0.9,1.1,2.4,0.2,3.3c-0.4,0.5-1.1,0.8-1.7,0.8c0.5,0.7,0.7,1.6,0.5,2.5l-2.7,0.2
		c-0.3,0.1-0.6,0-0.9-0.2c-0.3-0.3-0.3-0.7-0.3-1.1c-0.3-0.9-1-1.6-2-1.8c-0.9-0.1-1.9,0-2.8,0.3c-0.4,0.1-0.8,0.1-1.2,0
		c-0.2-0.1-0.4-0.4-0.5-0.6c-0.3-1-0.1-2.2,0.6-3c0.7-0.8,1.5-1.5,2.3-2.2c1.9-1.7,3.3-3.9,4.1-6.3c1.5-0.6,3.1-1.5,4.6-2.1
		c2.3-1.2,4.9-1.7,7.5-1.5l5.1,0.1c1.5-0.1,3,0.2,4.5,0.6c1.5,0.5,2.5,1.8,2.7,3.3c0.1,0.3-0.1,0.7-0.3,0.9
		c-0.2,0.1-0.4,0.2-0.6,0.1C224.4,89.2,223.8,89.5,222.4,89.6z"/>
	<path id="Path_44195" class="st1" d="M182.1,105.7c0.4-0.4,0.6-1,0.4-1.5c-1-0.4-2.1-0.2-2.9,0.5c-0.3,0.3-0.6,0.7-0.8,1
		c-0.8,1-1.1,2.4-0.9,3.6c0.1,0.3,0.2,0.5,0.5,0.6c0.2,0.1,0.4,0.1,0.6,0.1c0.7,0,1.5,0,2.2-0.1c0.5-0.1,1-0.2,1.2-0.6
		c0.2-0.6-0.3-1.2-0.2-1.8c0.1-0.3,0.3-0.5,0.5-0.7c0.2-0.2,0.3-0.5,0.3-0.8c-0.1-0.3-0.5-0.4-0.6-0.2"/>
	<path id="Path_44196" class="st1" d="M185.9,100.7c-0.7-0.2-1.3-0.2-2-0.1c-0.1,0-0.3,0-0.4,0.1c-0.1,0.1-0.2,0.2-0.3,0.4
		c-0.3,0.9,0.2,2,1.1,2.3c0.2,0.1,0.5,0.1,0.7,0.3c0.6,0.4,0.2,1.3,0.3,2.1c0.1,0.8,0.9,1.5,0.8,2.3c-0.1,0.6-0.8,1.1-0.7,1.8
		c0.1,0.7,0.9,0.9,1.6,0.9c0.4,0.1,0.8,0,1.1-0.1c0.4-0.2,0.6-0.6,0.7-1c0.3-0.8,0.4-1.7,0.3-2.5c0-0.4-0.1-0.8-0.3-1.1
		c-0.2-0.3-0.4-0.5-0.7-0.8C187,103.6,188.3,101.4,185.9,100.7z"/>
</g>
</svg>
